<svg width="363" height="258" viewBox="0 0 363 258" fill="none" xmlns="http://www.w3.org/2000/svg">
<g clip-path="url(#clip0_9_63)">
<path d="M351.858 52.8383C357.056 53.5498 360.693 58.3405 359.982 63.5388L342.161 193.739C341.45 198.937 336.659 202.574 331.461 201.863L113.812 172.073C110.643 171.64 107.448 172.675 105.135 174.885L77.205 201.573C70.88 207.616 60.4395 202.622 61.1756 193.905L62.7606 175.135C63.2308 169.567 59.2578 164.607 53.7217 163.849L17.3889 158.876C12.1907 158.164 8.55342 153.374 9.2649 148.175L27.0853 17.9754C27.7968 12.7772 32.5876 9.13995 37.7858 9.85143L351.858 52.8383Z" fill="#FFFCF3" stroke="black"/>
<path d="M55.1439 69.5555L52.8694 69.2424L55.9585 46.802L58.233 47.1152L55.1439 69.5555ZM82.6138 66.7797L72.7112 65.4166L69.523 71.5349L67.1375 71.2066L78.6314 49.9232L81.1556 50.2706L86.4712 73.868L84.0302 73.532L82.6138 66.7797ZM79.5894 52.2031L73.8173 63.336L82.1388 64.4815L79.5894 52.2031ZM98.0442 75.4611L93.0076 54.559L90.2774 74.392L88.0029 74.0789L91.092 51.6385L94.7257 52.1387L99.5412 72.3886L109.594 54.1854L113.255 54.6894L110.166 77.1298L107.864 76.8129L110.622 56.9837L100.125 75.7475L98.0442 75.4611ZM137.63 74.3532L127.728 72.99L124.539 79.1084L122.154 78.78L133.648 57.4967L136.172 57.8441L141.488 81.4415L139.047 81.1055L137.63 74.3532ZM134.606 59.7766L128.834 70.9094L137.155 72.055L134.606 59.7766ZM157.743 66.4664C156.827 73.1236 170.939 69.9788 169.691 79.0493C169.29 81.9618 166.698 85.3924 160.651 84.56C155.269 83.8192 153.054 79.5855 153.505 76.3124L155.779 76.6255C155.455 78.9833 157.358 81.789 161.186 82.316C165.319 82.8849 167.158 80.8204 167.482 78.4626C168.353 72.1383 154.216 75.2515 155.48 66.0701C155.934 62.7692 158.984 60.5322 163.755 61.189C168.221 61.8037 170.617 64.9317 170.086 68.7873L167.811 68.4742C168.151 66.0055 166.549 63.8912 163.442 63.4635C160.391 63.0435 158.079 64.0254 157.743 66.4664ZM183.216 64.3201C187.987 64.9769 190.097 68.7439 189.654 71.9615C189.211 75.1792 186.232 78.1326 181.434 77.472L174.61 76.5326L173.327 85.8527L171.025 85.5358L174.118 63.0677L183.216 64.3201ZM182.167 75.227C184.358 75.5286 187.018 74.4815 187.407 71.6522C187.8 68.7952 185.51 66.9536 183.347 66.6558L176.107 65.6592L174.927 74.2303L182.167 75.227ZM191.615 88.342L189.34 88.0288L192.429 65.5885L194.704 65.9016L191.615 88.342ZM207.62 80.568L211.733 91.1396L209.07 90.773L205.012 80.209L207.62 80.568ZM213.483 74.9309C212.834 79.6465 209.318 80.5474 207.62 80.568L200.019 79.5217L198.3 79.285L196.948 89.1044L194.646 88.7875L197.735 66.3471L207.003 67.5947C209.833 67.9842 214.132 70.2154 213.483 74.9309ZM206.019 78.03C209.098 78.4538 210.815 77.4749 211.209 74.6178C211.541 72.2046 209.54 70.318 207.126 69.9858L199.72 68.9663L198.613 77.0104L206.019 78.03ZM216.048 91.7055L213.774 91.3923L216.863 68.952L219.137 69.2651L216.048 91.7055ZM241.87 74.6273L232.467 73.3328L229.679 93.5819L227.405 93.2688L230.192 73.0197L220.817 71.7291L221.118 69.5377L242.172 72.4359L241.87 74.6273ZM263.908 74.9759C270.315 75.858 273.861 80.8966 272.869 88.1086C271.685 96.7075 265.797 99.0342 260.693 98.3316C254.257 97.4458 250.755 92.3 251.732 85.199C252.232 81.5652 253.726 78.7184 256.042 76.889C258.191 75.2347 260.968 74.5711 263.908 74.9759ZM261.006 96.0571C266.193 96.7711 269.738 93.8109 270.566 87.7917C271.529 80.8016 267.645 77.8079 263.595 77.2505C259.517 76.6891 254.934 78.7716 254.007 85.5121C253.052 92.4467 256.928 95.4958 261.006 96.0571ZM287.713 90.4065L277.367 88.9822L275.859 99.9389L273.612 99.6296L276.701 77.1892L291.486 79.2244L291.184 81.4158L278.646 79.6898L277.665 86.8186L288.011 88.2429L287.713 90.4065ZM71.7014 80.4755L62.2981 79.1811L59.5106 99.4301L57.2361 99.117L60.0235 78.868L50.6479 77.5773L50.9496 75.386L72.0031 78.2842L71.7014 80.4755ZM85.4027 102.994L86.911 92.0377L74.1513 90.2813L72.643 101.238L70.3685 100.925L73.4576 78.4844L75.7321 78.7975L74.4491 88.1177L87.2088 89.8741L88.4918 80.554L90.7664 80.8671L87.6772 103.308L85.4027 102.994ZM92.9863 104.038L90.7118 103.725L93.8009 81.2849L96.0755 81.598L92.9863 104.038ZM100.316 87.8345C99.3995 94.4918 113.512 91.347 112.264 100.417C111.863 103.33 109.271 106.761 103.224 105.928C97.8424 105.187 95.627 100.954 96.0776 97.6805L98.3522 97.9936C98.0276 100.351 99.9308 103.157 103.759 103.684C107.892 104.253 109.73 102.189 110.055 99.8308C110.926 93.5064 96.7889 96.6196 98.0529 87.4382C98.5072 84.1373 101.557 81.9003 106.328 82.5571C110.794 83.1719 113.19 86.2998 112.659 90.1554L110.384 89.8423C110.724 87.3736 109.121 85.2593 106.015 84.8316C102.963 84.4116 100.652 85.3936 100.316 87.8345ZM138.132 99.0887L127.785 97.6645L126.277 108.621L124.03 108.312L127.12 85.8715L141.904 87.9067L141.602 90.098L129.065 88.3721L128.083 95.5009L138.43 96.9252L138.132 99.0887ZM152.033 88.8489C158.441 89.7309 161.987 94.7696 160.994 101.982C159.81 110.58 153.922 112.907 148.818 112.205C142.383 111.319 138.88 106.173 139.857 99.0719C140.358 95.4382 141.852 92.5913 144.167 90.762C146.317 89.1077 149.093 88.4441 152.033 88.8489ZM149.131 109.93C154.318 110.644 157.863 107.684 158.692 101.665C159.654 94.6745 155.77 91.6809 151.72 91.1234C147.643 90.5621 143.06 92.6446 142.132 99.385C141.177 106.32 145.054 109.369 149.131 109.93ZM174.708 105.311L178.82 115.882L176.157 115.516L172.1 104.952L174.708 105.311ZM180.571 99.6738C179.922 104.389 176.406 105.29 174.708 105.311L167.107 104.265L165.387 104.028L164.036 113.847L161.733 113.53L164.823 91.0899L174.091 92.3375C176.92 92.727 181.22 94.9582 180.571 99.6738ZM173.107 102.773C176.186 103.197 177.903 102.218 178.297 99.3607C178.629 96.9474 176.627 95.0608 174.214 94.7286L166.808 93.7091L165.701 101.753L173.107 102.773ZM185.896 96.1954L184.915 103.324L195.705 104.81L195.403 107.001L184.621 105.46L183.406 114.281L196.221 116.045L195.924 118.209L180.862 116.135L183.951 93.6948L199.013 95.7682L198.711 97.9595L185.896 96.1954ZM203.251 102.005C202.335 108.662 216.448 105.517 215.199 114.587C214.798 117.5 212.206 120.931 206.159 120.098C200.778 119.357 198.563 115.124 199.013 111.851L201.288 112.164C200.963 114.521 202.866 117.327 206.694 117.854C210.827 118.423 212.666 116.359 212.99 114.001C213.861 107.676 199.724 110.79 200.988 101.608C201.443 98.3073 204.492 96.0703 209.263 96.7271C213.729 97.3418 216.125 100.47 215.594 104.325L213.32 104.012C213.66 101.544 212.057 99.4293 208.95 99.0016C205.899 98.5816 203.587 99.5635 203.251 102.005ZM238.89 103.491L229.487 102.196L226.7 122.445L224.425 122.132L227.212 101.883L217.837 100.592L218.139 98.4011L239.192 101.299L238.89 103.491ZM261.993 120.746L252.09 119.383L248.902 125.502L246.516 125.173L258.01 103.89L260.534 104.237L265.85 127.835L263.409 127.499L261.993 120.746ZM258.968 106.17L253.196 117.303L261.518 118.448L258.968 106.17ZM284.08 130.344L272.386 108.526L269.656 128.359L267.382 128.045L270.471 105.605L273.661 106.044L285.327 127.859L288.057 108.026L290.331 108.339L287.242 130.779L284.08 130.344ZM310.621 122.579C309.769 128.765 304.307 133.129 298.454 132.323L290.271 131.196L293.36 108.756L301.543 109.882C307.396 110.688 311.472 116.393 310.621 122.579ZM295.309 111.229L292.816 129.342L298.447 130.117C302.552 130.682 307.068 127.856 308.165 123.174L308.176 123.09L308.18 123.063C308.184 123.035 308.184 123.035 308.187 123.007L308.191 122.979L308.227 122.928C308.253 122.734 308.284 122.512 308.318 122.262C308.326 122.207 308.337 122.123 308.345 122.068L308.353 122.012L308.356 121.985L308.36 121.957C308.909 116.945 305.295 112.604 300.94 112.004L295.309 111.229ZM47.2343 127.014L44.9597 126.701L48.0489 104.26L50.3234 104.573L47.2343 127.014ZM77.3966 131.166L65.7028 109.347L62.9726 129.18L60.698 128.867L63.7871 106.427L66.9771 106.866L78.6431 128.681L81.3733 108.848L83.6479 109.161L80.5587 131.601L77.3966 131.166ZM88.6219 112.078L87.6406 119.207L98.4308 120.692L98.1292 122.884L87.3466 121.343L86.1323 130.164L98.9474 131.928L98.6496 134.091L83.5876 132.018L86.6768 109.578L101.739 111.651L101.437 113.842L88.6219 112.078ZM106.717 114.569L105.736 121.698L116.526 123.183L116.224 125.375L105.442 123.834L104.227 132.655L117.042 134.419L116.745 136.582L101.683 134.509L104.772 112.069L119.834 114.142L119.532 116.333L106.717 114.569ZM140.127 128.382C139.275 134.568 133.813 138.932 127.96 138.126L119.778 137L122.867 114.56L131.05 115.686C136.902 116.492 140.978 122.197 140.127 128.382ZM124.816 117.032L122.322 135.146L127.953 135.921C132.058 136.486 136.574 133.659 137.671 128.977L137.682 128.894L137.686 128.866C137.69 128.838 137.69 128.838 137.694 128.811L137.698 128.783L137.733 128.731C137.76 128.537 137.79 128.315 137.825 128.066C137.832 128.01 137.844 127.927 137.851 127.871L137.859 127.816L137.863 127.788L137.867 127.76C138.415 122.748 134.802 118.407 130.447 117.808L124.816 117.032ZM167.161 120.657L169.796 121.02L160.466 133.359L159.214 142.457L156.939 142.144L158.192 133.046L152.543 118.645L155.15 119.004L159.696 130.539L167.161 120.657ZM179.203 121.862C185.611 122.745 189.157 127.783 188.164 134.995C186.98 143.594 181.092 145.921 175.988 145.218C169.553 144.332 166.05 139.187 167.027 132.086C167.527 128.452 169.021 125.605 171.337 123.776C173.486 122.121 176.263 121.458 179.203 121.862ZM176.301 142.944C181.488 143.658 185.033 140.697 185.861 134.678C186.824 127.688 182.94 124.695 178.89 124.137C174.812 123.576 170.23 125.658 169.302 132.399C168.347 139.333 172.223 142.382 176.301 142.944ZM205.166 140.303L207.117 126.129L209.42 126.446L207.526 140.204C207.09 143.366 205.184 149.209 197.417 148.14C189.678 147.075 189.421 140.934 189.856 137.772L191.75 124.014L194.025 124.327L192.074 138.501C191.524 142.495 193.375 145.266 197.73 145.865C202.113 146.469 204.62 144.27 205.166 140.303ZM222.058 141.102L226.171 151.674L223.508 151.308L219.451 140.744L222.058 141.102ZM227.922 135.465C227.272 140.181 223.757 141.082 222.058 141.102L214.458 140.056L212.738 139.82L211.386 149.639L209.084 149.322L212.173 126.882L221.441 128.129C224.271 128.519 228.571 130.75 227.922 135.465ZM220.457 138.564C223.536 138.988 225.254 138.009 225.647 135.152C225.979 132.739 223.978 130.853 221.565 130.52L214.158 129.501L213.051 137.545L220.457 138.564ZM253.675 155.432L255.184 144.475L242.424 142.719L240.916 153.676L238.641 153.363L241.73 130.922L244.005 131.235L242.722 140.555L255.481 142.312L256.764 132.992L259.039 133.305L255.95 155.745L253.675 155.432ZM264.019 136.223L263.037 143.352L273.828 144.837L273.526 147.029L262.743 145.488L261.529 154.309L274.344 156.073L274.046 158.236L258.984 156.163L262.073 133.723L277.135 135.796L276.834 137.987L264.019 136.223ZM282.415 136.523L279.624 156.8L292.3 158.545L292.003 160.708L277.079 158.654L280.168 136.214L282.415 136.523ZM305.628 139.718C310.399 140.375 312.509 144.142 312.066 147.36C311.623 150.577 308.645 153.531 303.846 152.87L297.022 151.931L295.739 161.251L293.437 160.934L296.53 138.466L305.628 139.718ZM304.579 150.625C306.77 150.927 309.43 149.88 309.819 147.05C310.213 144.193 307.922 142.352 305.759 142.054L298.519 141.057L297.339 149.628L304.579 150.625ZM314.422 157.379L313.174 157.207L314.647 140.96L317.393 141.338L314.422 157.379ZM314.415 163.794L311.447 163.385L311.867 160.334L314.835 160.742L314.415 163.794Z" fill="#2C2729"/>
</g>
<defs>
<clipPath id="clip0_9_63">
<rect x="29.0195" width="337" height="214" rx="5" transform="rotate(7.79362 29.0195 0)" fill="white"/>
</clipPath>
</defs>
</svg>
