<svg width="151" height="151" viewBox="0 0 151 151" fill="none" xmlns="http://www.w3.org/2000/svg">
<path fill-rule="evenodd" clip-rule="evenodd" d="M145 76.5C145 114.331 114.331 145 76.5 145C38.6685 145 8 114.331 8 76.5C8 38.6685 38.6685 8 76.5 8C114.331 8 145 38.6685 145 76.5ZM104.108 55.7422C106.114 57.7485 106.114 61.0015 104.108 63.0076L69.8576 97.2576C67.8512 99.2639 64.5988 99.2639 62.5922 97.2576L48.8922 83.5576C46.8859 81.5512 46.8859 78.2988 48.8922 76.2924C50.8985 74.2861 54.1515 74.2861 56.1578 76.2924L66.225 86.3592L81.5334 71.0508L96.8424 55.7422C98.8488 53.7359 102.101 53.7359 104.108 55.7422Z" fill="#0A585A"/>
</svg>
