<svg width="135" height="135" viewBox="0 0 135 135" fill="none" xmlns="http://www.w3.org/2000/svg">
<path fill-rule="evenodd" clip-rule="evenodd" d="M91.3654 85.3875C93.0149 87.0328 93.0149 89.733 91.3654 91.3783C89.7201 93.0236 87.0455 93.0236 85.396 91.3783L67.5252 73.4908L49.5281 91.5044C47.8659 93.1497 45.1745 93.1497 43.5123 91.5044C41.8543 89.8169 41.8543 87.1172 43.5123 85.4719L61.5094 67.4578L43.6387 49.6125C41.9892 47.9672 41.9892 45.267 43.6387 43.6217C45.2798 41.9764 47.9545 41.9764 49.604 43.6217L67.4748 61.5092L85.6068 43.3689C87.269 41.7236 89.9563 41.7236 91.6185 43.3689C93.2765 45.0564 93.2765 47.7139 91.6185 49.4014L73.4906 67.5422L91.3654 85.3875ZM67.5 0C30.2189 0 0 30.2062 0 67.5C0 104.794 30.2189 135 67.5 135C104.781 135 135 104.794 135 67.5C135 30.2062 104.781 0 67.5 0Z" fill="white"/>
</svg>
