<svg width="470" height="418" viewBox="0 0 470 418" fill="none" xmlns="http://www.w3.org/2000/svg">
<mask id="mask0_78_127" style="mask-type:luminance" maskUnits="userSpaceOnUse" x="0" y="0" width="470" height="418">
<path d="M470 0.755005H0V417.558H470V0.755005Z" fill="white"/>
</mask>
<g mask="url(#mask0_78_127)">
<path d="M151.94 162.534C151.036 162.19 150.088 161.974 149.098 161.802C146.513 161.371 144.015 160.596 141.603 159.562C137.598 157.796 133.851 155.557 130.448 152.843C126.356 149.613 122.609 145.909 119.293 141.86C112.789 133.935 107.836 124.847 104.691 115.07C104.648 114.984 104.648 114.855 104.605 114.768C104.433 114.338 104.519 113.864 104.864 113.562C105.381 113.046 106.027 112.572 106.587 112.055C108.912 109.944 111.023 107.532 112.789 104.948C114.598 102.321 115.804 99.392 116.364 96.2478C117.139 92.113 116.234 87.849 113.823 84.4464C111.927 81.6468 109.3 79.7516 106.371 78.2441C105.682 77.8996 104.95 77.6411 104.261 77.3396C103.959 77.2104 103.658 77.0381 103.399 76.9089C103.141 76.7366 103.055 76.349 103.184 76.0906C104.605 74.1524 105.596 71.9127 106.07 69.5869C106.974 64.9783 107.276 60.2835 106.888 55.6318C106.716 53.0045 106.027 50.4633 104.95 48.0944C104.691 47.6206 104.476 47.1038 104.304 46.5869C104.175 46.1562 104.261 45.6824 104.562 45.3809C104.95 44.9933 105.294 44.5626 105.682 44.218C108.094 42.0214 110.463 39.7386 112.918 37.6282C116.278 34.6993 119.379 31.469 122.178 27.9802C123.944 25.8698 125.279 23.5009 126.141 20.9166C126.615 19.5814 126.701 18.117 126.356 16.7387C125.667 14.1544 124.332 11.9147 122.006 10.4503C120.542 9.50277 118.948 8.77056 117.311 8.21064C111.583 6.35858 105.338 6.48779 99.6952 8.64135C97.2402 9.54584 94.9143 10.7518 92.7177 12.1732C89.9181 14.0252 87.2046 16.0926 84.7065 18.3754C81.6485 21.175 78.8488 24.2331 76.3507 27.5495C75.9631 28.0664 75.5324 28.5402 75.1017 29.057C74.8432 29.2724 74.4987 29.2724 74.1972 29.1432C73.6803 28.7555 73.1204 28.3679 72.6466 27.9802C64.5923 21.4765 55.9781 15.705 46.8471 10.7518C40.4295 7.26308 33.7535 4.37732 26.6037 2.65447C22.8996 1.79305 19.1524 0.974703 14.8884 1.01777C11.4857 0.716277 8.04006 1.8792 4.72359 3.73125C3.86217 4.20503 3.08689 4.76496 2.31161 5.41102C0.502625 6.83237 -0.0572993 8.72749 0.33034 10.9672C0.416482 11.484 0.588767 12.044 0.847193 12.5177C1.5794 14.1975 2.65618 15.7481 3.94831 17.0833C7.04942 20.1413 10.409 22.9409 13.7685 25.7406C20.0999 31.0814 26.6898 36.1207 33.1935 41.2031C34.3134 42.0645 35.4332 42.9259 36.51 43.8304C36.5962 43.9165 36.5962 44.218 36.5962 44.3903C36.5531 44.6487 36.3808 44.7349 36.1224 44.6918H33.1935L22.7273 44.9502C20.7891 45.0364 18.8078 45.3809 16.9558 45.9409C15.879 46.1993 14.9745 46.8884 14.3715 47.836C13.0794 49.8603 12.3041 52.1862 12.1318 54.5551C11.9164 57.1824 12.3041 59.8097 13.2947 62.2217C13.6393 63.0401 13.6393 63.9446 13.2947 64.7629C12.6487 66.3996 12.3472 68.1225 12.4333 69.8884C12.5625 72.3865 12.9932 74.8846 13.5962 77.3396C14.5438 81.3022 17.1711 84.7048 20.746 86.643C21.6074 87.1598 22.4689 87.5906 23.3733 87.9782C24.1917 88.2797 24.8378 88.9258 25.1393 89.7872C26.0007 92.0269 27.0775 94.1804 28.3265 96.2048C30.7385 100.383 34.2703 103.785 38.5344 106.068C40.9894 107.489 43.6167 108.523 46.3733 109.212C47.1486 109.341 47.7516 109.944 47.9238 110.72C48.613 113.39 50.0343 115.759 52.1017 117.611C55.5905 120.755 59.5961 122.823 64.2908 123.426C65.1523 123.555 66.0137 123.641 66.8751 123.813C67.3058 123.856 67.6934 124.201 67.7796 124.632C67.9088 125.148 68.0811 125.665 68.2103 126.182C69.4163 131.135 71.0099 136.045 72.9912 140.74C77.8582 152.886 84.7496 164.128 93.3207 174.034C97.6278 179.073 102.581 183.596 107.965 187.472C113.607 191.478 119.68 194.622 126.528 196C127.088 196.087 127.519 196.474 127.734 196.948C127.821 197.163 127.907 197.336 128.036 197.508C128.725 198.412 129.802 198.585 130.62 197.939C131.525 197.163 132.386 196.345 133.377 195.656C133.807 195.311 134.109 194.837 134.195 194.278C134.367 192.899 135.1 191.866 135.832 190.789C138.33 187.085 140.828 183.381 143.154 179.59C145.135 176.36 147.289 173.173 149.356 169.985C149.916 169.124 150.476 168.392 151.596 168.263C152.027 168.133 152.414 167.918 152.716 167.617C154.266 166.152 153.836 163.266 151.94 162.534ZM16.3528 49.2143C16.482 48.5682 17.085 48.0513 17.731 48.0513H23.9333C24.364 47.9652 24.7947 47.9221 25.2254 47.8791C29.0156 47.9221 32.8059 47.836 36.5962 48.0083C43.4875 48.3098 50.1205 50.5925 55.6766 54.6412C56.2796 55.0719 56.8826 55.5457 57.4425 56.0626C60.7159 58.8622 62.2234 62.394 61.8788 66.7442C61.7927 67.6917 61.4481 68.1225 60.4575 68.1655C59.5961 68.2086 58.7347 68.2086 57.8732 68.2086C52.9201 68.8116 47.8808 68.9408 42.9276 68.467C36.9838 67.9932 31.04 67.0887 25.2254 65.6674C24.1486 65.452 23.1149 65.1505 22.0812 64.806C19.6692 63.9876 17.7741 62.0925 16.9558 59.6805C16.3097 57.9577 15.879 56.1487 15.6636 54.2966C15.6206 52.6169 15.8359 50.894 16.3528 49.2143ZM62.5249 83.3696C61.8788 84.1018 60.9744 84.5756 60.0268 84.7479C56.538 85.3509 53.0493 86.1261 49.4313 86.04C48.9145 86.2123 48.3976 86.2984 47.8377 86.3846C42.3677 86.7722 37.0269 86.4276 31.7291 84.9202C29.4464 84.2741 27.1636 83.4557 25.01 82.5082C21.1337 80.7853 18.5925 77.8134 16.9988 73.937C16.2236 71.9988 15.7067 70.0176 15.879 67.9071C15.879 67.6056 16.3528 67.3041 16.6112 67.4333C16.6973 67.4764 16.7835 67.5194 16.9127 67.6056C18.8078 68.9839 21.0044 69.6299 23.2011 70.1468C27.3359 71.0944 31.5138 71.7404 35.6917 72.3003C42.1954 73.2048 48.656 73.1187 55.2028 72.8172C55.5905 72.6449 55.9781 72.4726 56.4088 72.3865C57.701 72.1711 58.95 71.8696 60.1991 71.482C61.1036 71.2236 61.7496 71.3958 62.1373 72.1281C62.9987 73.6355 63.7309 75.2292 64.2478 76.8659C64.9369 79.1486 64.2908 81.6898 62.5249 83.3696ZM102.193 60.5419C101.806 63.4708 101.203 66.3135 100.384 69.1562C99.7814 71.1374 99.0492 73.0756 98.1447 74.9277C97.9724 75.3153 97.5417 75.5737 97.111 75.5737C96.7664 75.5737 96.4649 75.5737 96.1203 75.5307C92.7608 75.2722 89.3582 75.3153 85.9986 75.5737C85.5679 75.5737 85.1372 75.5737 84.7065 75.5307C84.3189 75.703 83.8882 75.8322 83.4574 75.9183C78.935 76.6505 74.5417 77.9426 70.3638 79.7947C69.7608 80.0531 69.1579 80.2254 68.4687 80.4838C68.3826 80.0101 68.3395 79.5363 68.3395 79.0625C68.4257 76.9089 67.6504 75.0138 66.4874 73.2479C65.9706 72.4296 65.4107 71.6112 64.8507 70.7929C64.7215 70.6206 64.7215 70.3621 64.8938 70.1898C66.2721 68.2947 66.3582 66.1842 66.0998 63.9446C65.583 59.4652 63.2571 55.3734 59.6822 52.6169C57.2702 50.7217 54.6429 49.1712 51.8864 47.9652C51.068 47.6206 50.2927 47.2761 49.4744 46.9315C48.5699 46.5439 47.7516 46.027 47.0624 45.3379C46.4164 44.7349 45.7703 44.1749 45.0811 43.6581C36.2516 36.939 27.5512 30.0907 18.5063 23.6301C14.7161 20.9166 10.8397 18.2893 7.00635 15.6189C6.66178 15.3604 6.27414 15.1451 5.92957 14.8866C4.50823 13.8529 3.56067 12.3024 3.2161 10.5795C3.00074 9.71812 3.30224 8.81363 3.94831 8.21064C4.72359 7.43536 5.71422 6.87543 6.74792 6.61701C8.47077 5.49716 10.452 4.8511 12.5194 4.67881C15.3191 4.42039 18.1617 4.50653 20.9614 5.02338C23.5026 5.49716 26.0437 6.10016 28.5849 6.74622C29.9632 7.09079 31.2984 7.5215 32.5905 8.08143C35.7778 9.4597 39.0081 10.7949 42.0662 12.4316C50.422 16.8248 58.3901 21.9503 65.8414 27.7649C67.7365 29.2293 69.5024 30.8229 71.3114 32.4166C71.9575 32.9765 72.0005 33.4503 71.656 34.1394C70.8376 35.69 70.0193 37.1974 69.244 38.748C69.1579 39.0495 69.0717 39.351 69.0717 39.6956C69.0286 39.954 69.4594 40.2986 69.7178 40.2555C70.1485 40.1693 70.5361 40.0401 70.9668 39.954C74.2833 35.8192 77.729 31.7705 81.347 27.8941C85.4387 23.3716 90.1335 19.4522 95.302 16.2219C97.2402 15.0159 99.3076 14.0252 101.418 13.25C104.993 11.9578 108.869 11.6133 112.617 12.1732C112.918 12.2593 113.22 12.3885 113.521 12.5608C115.804 12.5177 117.785 13.4222 119.594 14.6713C121.102 15.705 121.834 17.2556 122.135 19.0645C122.221 19.7106 122.092 20.3567 121.791 20.9597C120.8 23.0271 119.508 24.9222 117.914 26.5589C115.718 28.7986 113.306 30.866 110.894 32.8903C107.793 35.4746 104.691 38.0589 101.676 40.6862C98.9199 43.1413 96.3787 45.8547 94.1391 48.7836C93.493 49.645 92.8469 50.5495 92.287 51.454C91.8563 52.2292 91.684 53.0907 91.8563 53.9521C92.0286 55.2011 93.5361 55.7611 94.3113 55.5026C95.2589 55.2011 96.0772 54.6412 96.7233 53.909C97.9293 52.6169 99.0492 51.3247 100.212 50.0326C100.6 49.645 100.987 49.2573 101.375 48.9558C101.504 48.8266 101.72 48.8266 101.849 48.9989C101.892 49.042 101.892 49.085 101.935 49.1281C102.107 49.5158 102.236 49.9034 102.323 50.3341C102.753 53.7798 102.71 57.1824 102.193 60.5419Z" fill="#2C2729"/>
<path d="M467.608 86.8153C470.537 83.5419 470.494 82.2498 467.565 78.9764C462.784 73.6356 458.047 68.2947 453.223 62.997C441.335 49.8603 429.447 36.7667 417.517 23.6301C415.923 21.8642 414.2 20.2275 412.521 18.5477C411.228 17.2556 409.721 16.2649 407.826 16.0065C406.921 15.8773 406.06 15.6189 405.155 15.4035C399.169 14.1975 393.096 13.3361 387.022 12.4747C378.365 11.2687 369.751 9.93349 361.094 8.68443C358.854 8.33987 356.614 8.08144 354.332 7.77994C352.953 7.56458 351.575 7.95223 350.541 8.89979C346.708 12.3024 342.789 15.5758 338.998 18.9784C330.384 26.7312 322.114 34.8716 313.888 42.969C291.491 65.0644 269.137 87.1599 246.783 109.298C246.223 109.858 245.62 110.375 245.06 110.978C244.414 111.71 243.768 111.667 242.993 111.107C240.538 109.471 238.083 107.834 235.542 106.283C223.353 98.8752 210.948 91.7684 198.414 84.8771C197.811 84.5325 197.208 84.231 196.605 83.9295C195.486 83.3265 194.15 83.2404 192.987 83.7142C192.255 83.9726 191.523 84.3602 190.834 84.6617C183.21 88.1074 175.544 91.5962 167.92 95.0418C161.718 97.8845 155.602 100.727 149.615 104.044C147.246 105.379 145.179 107.145 143.542 109.298C134.411 120.928 125.84 132.944 117.269 144.918C105.123 161.888 93.4073 179.203 80.8305 195.871C80.529 196.216 80.2706 196.603 80.0552 196.991C78.9354 198.886 79.1508 200.695 80.7013 202.246C81.2612 202.806 81.9073 203.279 82.5964 203.71C84.8792 205.218 87.1189 206.725 89.4447 208.189C114.383 223.781 139.666 238.684 165.077 253.414C172.27 257.592 179.463 261.77 186.656 265.991C191.222 272.839 196.649 279.084 202.808 284.554C208.364 289.551 214.48 293.772 221.457 296.528C222.06 296.83 222.62 297.131 223.137 297.519C221.199 302.472 219.562 307.339 217.193 311.991C216.547 313.283 215.729 313.584 214.394 313.498C207.416 313.24 202.549 316.556 199.19 322.5C198.802 323.189 198.845 324.266 197.639 324.61C197.252 324.309 196.778 323.964 196.347 323.62C186.311 314.618 174.553 309.32 161.244 307.382C147.16 305.315 133.679 307.167 120.887 313.498C110.593 318.58 102.581 326.118 97.2837 336.369C95.9485 338.867 94.9578 341.537 94.441 344.294C93.9672 346.663 94.3548 349.118 95.5608 351.185C98.3174 356.138 101.462 360.79 105.424 364.882C111.669 371.386 118.905 376.554 126.701 380.99C142.508 389.992 159.651 395.247 177.439 398.52C179.334 398.908 181.315 398.693 183.081 397.874C185.105 396.97 187.13 396.108 189.499 395.075C190.059 395.85 190.576 396.539 191.092 397.271C192.6 399.339 194.71 400.157 197.208 400.502C200.439 400.975 203.712 401.105 206.986 400.889C209.656 400.674 212.326 400.459 214.954 400.2C223.094 399.382 231.148 397.96 238.901 395.247C243.768 393.524 246.525 390.294 246.74 385.039C246.912 380 247.343 374.917 246.697 369.878C246.482 368.026 246.525 367.811 248.334 367.337C252.426 366.174 255.441 363.633 257.594 360.101C260.781 354.932 262.03 349.419 260.394 343.432C259.92 341.882 260.135 340.159 260.954 338.738C262.935 334.904 264.787 331.028 266.682 327.152C267.199 326.075 267.759 324.998 268.319 323.964C268.534 323.577 268.879 323.146 269.352 323.318C269.697 323.534 269.955 323.878 270.085 324.266C271.075 328.142 273.832 330.21 277.277 331.588C278.225 331.976 279.216 332.32 280.163 332.665C279.819 334.086 278.656 334.56 277.794 335.335C269.568 343.088 264.744 352.607 263.581 363.848C261.815 380.861 267.156 395.505 278.914 407.824C282.188 411.269 285.978 414.198 289.897 416.912L290.285 416.955C291.017 417.041 291.706 417.127 292.439 417.213H292.525C293.645 417.256 294.807 417.299 295.97 417.342H296.186C302.948 415.404 308.504 411.528 313.414 406.618C318.798 401.234 323.191 395.075 327.111 388.571C333.485 377.932 338.094 366.519 341.841 354.76C343.305 350.108 344.511 345.328 345.933 340.676C346.493 338.738 346.105 337.23 344.727 335.809C343.908 334.947 342.832 334.344 342.401 333.182C343.004 332.406 343.908 332.363 344.727 332.191C346.794 331.846 347.785 330.554 348.172 328.616C348.302 327.884 348.474 327.152 348.603 326.462C350.068 319.14 350.455 311.732 350.627 304.324C350.671 303.592 350.627 302.86 350.584 302.084C350.412 299.672 349.551 298.725 347.096 298.208C340.98 296.916 334.907 295.624 328.79 294.332C324.871 293.513 320.952 292.695 317.032 291.919C315.525 291.618 314.189 291.144 313.586 289.551C313.414 289.12 313.199 288.732 312.94 288.388C310.141 284.124 303.895 280.635 297.306 284.081L295.798 284.856L295.755 284.899C295.669 285.028 295.583 285.157 295.453 285.287C295.41 285.373 295.324 285.459 295.238 285.545C294.98 285.76 294.678 286.062 294.334 285.76C294.291 285.717 294.247 285.717 294.247 285.674C294.204 285.631 294.204 285.588 294.204 285.545L306.781 261.167C307.427 260.822 308.073 260.478 308.719 260.176C310.055 259.53 311.217 258.669 312.208 257.592C325.948 242.603 339.687 227.614 353.427 212.669L367.253 197.551C368.071 200.006 368.89 202.461 369.579 204.959C371.948 213.358 373.8 221.929 375.092 230.586C375.135 230.931 375.178 231.319 375.221 231.663C375.566 234.937 375.953 238.167 376.298 241.44C376.599 243.938 376.599 243.981 374.403 245.144C372.551 246.049 370.871 247.255 369.363 248.719C366.348 251.82 365.056 255.395 366.478 259.702C366.521 259.832 366.564 259.918 366.607 260.047C366.951 261.425 367.253 261.985 365.444 262.373C362.601 262.976 360.275 264.526 358.337 266.551C353.901 271.03 351.317 276.974 351.101 283.262C351.058 283.865 351.058 284.468 351.101 285.071C351.317 287.526 351.963 289.852 353.599 291.79C355.581 294.116 358.036 295.064 361.094 294.461C361.568 294.375 362.041 294.245 362.515 294.073C362.86 293.987 363.204 293.815 363.549 293.728C364.109 293.556 364.712 293.815 364.884 294.375C364.884 294.418 364.927 294.461 364.927 294.504C365.401 297.131 365.918 299.758 365.961 302.429C366.004 305.099 366.176 307.77 366.478 310.44C366.736 312.723 367.425 314.963 368.502 317.03C370.397 320.734 373.584 323.663 377.418 325.256C380.39 326.549 383.318 326.549 386.075 324.61C387.152 323.835 388.185 323.62 389.434 324.266C390.856 324.912 392.406 325.3 394 325.386C397.187 325.644 400.331 324.998 403.174 323.534C404.251 322.974 405.242 322.285 406.318 321.725C406.749 321.552 407.223 321.423 407.697 321.423C408.041 321.423 408.429 321.509 408.773 321.595C413.468 322.371 417.388 320.82 420.618 317.461C422.298 315.695 423.633 313.627 424.623 311.388C425.786 308.717 426.648 305.918 427.165 303.032C428.371 296.14 428.026 289.249 426.691 282.401C426.131 279.515 425.313 276.715 424.236 274.002C423.245 271.547 421.996 269.135 420.575 266.895C420.058 266.12 420.144 265.689 420.876 265C422.082 263.966 423.116 262.76 423.977 261.425C425.614 258.97 426.045 255.869 425.14 253.069C424.58 251.347 423.676 249.71 422.427 248.375C421.264 247.126 419.972 246.049 418.507 245.144C417.689 244.628 416.828 244.154 415.966 243.723C415.277 243.422 414.846 242.732 414.889 241.957C414.803 237.219 414.459 232.481 413.856 227.787C413.339 222.575 412.477 217.45 411.358 212.324C410.841 210.214 410.324 208.06 409.85 205.993C408.472 199.575 406.663 193.244 404.466 187.042C403.045 182.907 401.537 178.815 399.556 174.896C398.178 172.182 396.8 169.382 395.378 166.712C405.888 155.169 416.354 143.669 426.863 132.126C440.474 117.094 453.998 101.933 467.608 86.8153ZM455.161 75.1C456.324 74.9708 457.099 75.1861 457.831 76.0906C459.253 77.8134 460.76 79.4932 462.698 81.7329C460.76 81.8621 459.683 81.9913 458.563 82.0344C447.236 82.5943 435.951 83.7142 424.667 84.7479C423.073 84.8771 421.824 84.7048 420.79 83.3696C419.757 82.0344 418.507 80.8284 417.388 79.5363C417.172 79.2778 417.086 78.9764 417.086 78.6749C417.086 78.2011 417.56 78.2872 417.861 78.2872C420.575 78.0719 423.288 77.9426 426.002 77.7273C432.462 77.2104 438.88 76.6505 445.298 76.0906C448.614 75.746 451.887 75.4876 455.161 75.1ZM384.869 39.9109C398.006 39.954 411.142 39.9971 424.279 39.954C425.916 39.954 427.122 40.3416 428.026 41.6768C428.672 42.5813 429.404 43.3997 430.007 44.175C429.749 44.9933 429.189 44.778 428.801 44.778C415.579 44.9933 402.313 45.1656 389.09 45.4671C387.453 45.5102 386.29 45.0795 385.343 43.7873C384.481 42.6244 383.491 41.5907 382.112 39.954L384.869 39.9109ZM233.819 112.83C235.326 111.107 235.714 111.064 237.523 112.055C238.772 112.744 240.107 113.304 241.313 113.864C241.442 114.768 240.882 115.07 240.495 115.458C232.354 123.21 224.214 130.963 216.031 138.673C215.6 139.06 215.169 139.448 214.738 139.793C214.265 140.309 213.489 140.396 212.886 140.051L206.943 136.562C208.321 135.399 209.311 134.495 210.345 133.59C216.935 127.862 223.525 122.09 230.072 116.362C231.407 115.285 232.656 114.122 233.819 112.83ZM177.525 115.759C185.321 110.935 193.16 106.154 200.956 101.33C202.98 100.081 205.004 98.8321 206.943 97.4538C207.933 96.7647 208.751 96.8508 209.699 97.4108C211.163 98.2722 212.628 99.0905 214.006 99.8227C214.222 100.598 213.662 100.727 213.36 100.943C203.626 107.403 193.935 113.821 184.201 120.238C183.641 120.626 183.038 120.971 182.521 121.358C181.961 121.789 181.186 121.832 180.626 121.401C178.688 120.281 176.707 119.162 174.596 117.956C175.458 116.793 176.577 116.362 177.525 115.759ZM189.929 258.841C188.637 256.774 187.431 254.663 186.311 252.466C186.182 252.208 186.139 251.907 186.053 251.605C186.268 251.519 186.613 251.26 186.742 251.347C188.767 252.466 190.834 253.5 192.901 254.448C197.424 256.472 202.119 258.152 206.813 259.745C214.954 262.502 222.75 266.206 231.062 268.575C231.364 268.661 231.622 268.747 231.881 268.92L204.66 267.326L189.929 258.841ZM233.13 274.605C232.053 277.103 230.976 279.601 229.856 282.099C228.392 281.281 227.014 280.333 225.635 279.343C224.386 279.084 223.396 278.266 222.319 277.663C220.208 276.457 218.098 275.208 215.987 274.002C221.587 274.174 227.574 274.347 233.13 274.605ZM217.021 287.052C211.982 283.693 207.287 279.817 203.023 275.509L226.669 289.335C226.368 290.067 226.066 290.8 225.248 291.317C222.276 290.455 219.605 288.775 217.021 287.052ZM206.081 387.58C205.952 387.709 205.866 387.882 205.737 388.011C205.564 388.226 205.392 388.442 205.177 388.614C205.004 388.786 204.789 388.959 204.574 389.131C204.057 389.518 203.54 389.906 202.98 390.251C201.128 391.586 199.233 392.921 197.381 394.213C197.338 394.256 197.295 394.256 197.252 394.299C197.079 394.429 196.864 394.558 196.605 394.644C196.046 394.902 195.399 394.687 195.098 394.127C194.84 393.739 194.883 393.223 195.227 392.964C197.725 391.155 200.18 389.346 202.851 387.796C203.755 387.279 204.66 386.805 205.564 386.374H205.65L206.167 386.762C206.21 387.02 206.253 387.365 206.081 387.58ZM239.849 373.195C239.72 375.047 238.557 375.434 236.231 375.52H235.757C235.283 375.52 234.853 375.563 234.379 375.563C232.785 375.65 231.148 375.822 229.555 375.994C227.617 376.209 225.721 376.468 223.826 376.683C222.836 376.597 221.802 376.468 220.811 376.468C220.036 376.468 219.218 376.123 218.486 376.511C218.313 376.597 218.141 376.726 218.012 376.899C218.012 376.942 217.969 376.942 217.969 376.985C217.969 377.028 217.926 377.071 217.926 377.071V377.114C217.926 377.2 217.926 377.243 217.969 377.329C218.012 377.372 218.012 377.415 218.055 377.415C218.098 377.459 218.184 377.545 218.27 377.588C218.399 377.674 218.529 377.76 218.701 377.803L218.916 377.889C219.304 378.019 219.735 378.105 220.122 378.191C220.338 378.234 220.51 378.234 220.725 378.277H222.017C225.851 379.397 229.684 380.43 233.647 380.517H233.69C235.025 380.56 236.317 380.474 237.609 380.258H237.781C237.954 380.215 238.126 380.215 238.298 380.215C238.686 380.172 239.074 380.387 239.289 380.689L239.418 380.947C239.461 381.033 239.461 381.12 239.504 381.163C239.547 381.335 239.59 381.507 239.59 381.723V382.024C239.59 382.455 239.59 382.929 239.547 383.359C239.504 383.79 239.461 384.264 239.418 384.695C239.418 384.781 239.375 384.867 239.332 384.996C239.246 385.254 239.117 385.513 238.901 385.685C238.6 385.944 238.255 386.073 237.911 386.116C235.585 386.417 233.302 386.676 230.976 386.891C230.201 386.977 229.426 387.02 228.65 387.063C223.869 387.408 219.089 387.106 214.394 386.159C214.178 386.116 213.963 386.073 213.791 385.987C213.575 385.901 213.36 385.814 213.188 385.642L213.102 385.556L213.059 385.47C213.016 385.427 213.016 385.384 212.972 385.341C212.843 384.867 212.886 384.393 213.059 383.962C213.145 383.618 213.231 383.316 213.317 382.972L213.403 382.627C213.619 381.507 213.748 380.387 213.834 379.268V379.138C214.006 377.588 213.188 376.123 211.81 375.434C211.594 375.305 211.336 375.219 211.12 375.176C210.431 375.004 209.742 375.09 209.096 375.305C208.751 375.434 208.407 375.65 208.105 375.865C206.598 377.028 205.004 378.148 203.411 379.268L202.851 379.655C200.697 381.163 200.396 381.077 197.898 379.483C195.658 378.019 193.504 376.425 191.437 374.745L189.886 373.453C188.336 372.161 186.828 370.869 185.321 369.534C176.879 362.298 168.609 354.803 159.607 348.213L157.842 346.921C155.731 345.414 153.621 343.949 151.424 342.614C148.797 340.977 146.083 339.556 143.24 338.35C140.441 337.144 137.512 336.153 134.583 335.464C132.343 334.947 130.061 334.603 127.778 334.517H126.917C125.538 334.474 124.203 334.388 122.825 334.301C118.776 334 114.727 334.215 110.765 334.947C110.334 335.034 109.947 335.12 109.516 335.206C108.267 335.464 107.061 335.809 105.855 336.197C104.993 335.421 105.51 334.947 105.855 334.56C106.329 333.914 106.845 333.311 107.362 332.708C108.741 331.114 110.248 329.65 111.842 328.271C113.565 326.764 115.374 325.343 117.269 324.007C117.699 323.706 118.173 323.404 118.69 323.189L118.776 323.146C119.724 322.715 120.714 322.5 121.748 322.457H122.48C122.739 322.457 122.954 322.457 123.212 322.5C126.787 322.845 130.362 323.361 133.937 324.094C136.952 324.697 139.924 325.429 142.853 326.29C145.006 326.936 147.117 327.625 149.227 328.401C149.658 328.573 150.046 328.702 150.476 328.874C156.549 331.33 162.149 334.861 167.016 339.212C169.471 341.365 171.883 343.605 174.209 345.888C175.458 347.093 176.664 348.343 177.87 349.549C178.946 350.625 180.023 351.745 181.1 352.865C183.34 355.191 185.579 357.517 187.905 359.799C190.36 362.211 192.901 364.537 195.486 366.82C196.089 367.337 196.735 367.811 197.381 368.284L198.544 369.06C199.75 369.835 200.999 370.481 202.291 371.041C202.377 371.084 202.506 371.127 202.635 371.213L202.808 371.299L203.152 371.472C203.281 371.515 203.411 371.601 203.497 371.644L203.669 371.73C203.798 371.773 203.928 371.773 204.014 371.816C204.1 371.816 204.229 371.816 204.315 371.773C204.401 371.773 204.444 371.73 204.487 371.687C204.66 371.558 204.832 371.429 204.918 371.213C205.047 371.041 205.047 370.826 205.004 370.61C204.961 370.567 204.961 370.481 204.918 370.438C204.875 370.352 204.832 370.309 204.746 370.223L204.617 370.093C204.487 369.964 204.315 369.835 204.186 369.749L204.057 369.62C203.841 369.49 203.669 369.318 203.497 369.189L203.109 368.887C202.678 368.543 202.248 368.241 201.774 367.897L201.343 367.595C196.433 364.02 191.868 359.929 187.776 355.363C186.484 353.985 185.192 352.607 183.9 351.271C179.248 346.361 174.424 341.58 169.514 336.886C168.48 335.895 167.403 334.904 166.37 333.914C159.651 327.712 151.769 322.888 143.197 319.786C141.733 319.27 140.225 318.753 138.718 318.279C137.598 317.934 136.435 317.59 135.315 317.202L134.712 317.073C134.626 317.073 134.54 317.03 134.454 316.987C134.368 316.944 134.282 316.901 134.239 316.815C134.152 316.728 134.109 316.642 134.109 316.513C134.109 316.427 134.152 316.384 134.152 316.298C134.239 316.169 134.368 316.082 134.497 315.996L134.712 315.867C134.885 315.781 135.014 315.695 135.186 315.652C135.832 315.436 136.521 315.436 137.167 315.522C137.469 315.393 137.77 315.307 138.072 315.221C139.881 314.704 141.776 314.36 143.628 314.273L144.576 314.23C147.246 314.101 149.96 314.058 152.63 314.144L154.224 314.23C154.74 314.273 155.3 314.273 155.817 314.316C160.641 314.618 165.422 315.522 170.031 316.987C174.768 318.537 179.291 320.648 183.469 323.275C183.943 323.577 184.373 323.878 184.847 324.18C185.192 324.438 185.579 324.653 185.924 324.912C186.699 325.429 187.431 325.989 188.207 326.549C190.059 327.97 191.782 329.477 193.461 331.071C194.969 332.535 196.347 334.086 197.553 335.766C198.156 336.584 198.759 337.446 199.319 338.35C199.879 339.255 200.396 340.116 200.913 341.02C202.765 344.423 205.177 347.438 208.062 350.022C208.924 350.755 209.742 351.53 210.56 352.262C212.068 353.64 213.532 354.975 215.083 356.268C215.428 356.569 215.815 356.871 216.16 357.172C217.28 358.077 218.442 358.895 219.648 359.627C221.544 360.79 223.439 361.953 225.42 362.987L226.411 363.504C229.383 365.011 232.57 366.131 235.843 366.777C236.575 366.906 237.265 367.208 237.997 367.423C238.384 367.509 238.772 367.725 239.03 368.069C239.074 368.155 239.117 368.241 239.16 368.284C239.203 368.371 239.246 368.457 239.246 368.543C239.289 368.672 239.332 368.801 239.332 368.931C239.375 369.534 239.375 370.136 239.461 370.696C239.504 370.998 239.547 371.299 239.59 371.558C239.849 372.032 239.892 372.592 239.849 373.195ZM223.826 376.726C223.783 376.899 223.654 376.985 223.482 377.028C223.611 376.899 223.74 376.813 223.826 376.726ZM254.062 348.429C254.019 349.075 253.933 349.721 253.804 350.367C253.545 351.616 253.158 352.865 252.598 354.028C252.167 354.932 251.65 355.751 251.047 356.569C250.746 356.957 250.444 357.344 250.1 357.732C249.755 358.12 249.367 358.55 248.98 358.938C248.463 359.455 247.86 359.843 247.171 360.144C246.094 360.575 244.802 360.704 243.165 360.618C242.433 360.575 241.701 360.489 240.969 360.316C240.366 360.187 239.806 360.015 239.246 359.843C231.407 357.086 224.171 352.822 217.969 347.266C217.107 346.491 216.289 345.715 215.471 344.897C214.781 344.208 214.135 343.519 213.446 342.829C212.886 342.183 212.283 341.537 211.723 340.891C210.776 339.728 209.828 338.565 208.924 337.359C208.235 336.412 207.546 335.507 206.899 334.517C205.392 332.32 205.047 329.564 205.952 327.065C205.995 326.893 206.081 326.764 206.124 326.592C207.115 324.18 208.967 322.285 211.379 321.251L211.723 321.122C212.456 320.906 213.188 320.777 213.963 320.691C214.092 320.691 214.265 320.648 214.394 320.691H214.437C214.566 320.691 214.695 320.691 214.824 320.734C215.384 320.82 215.815 321.165 216.031 321.682C216.117 321.897 216.203 322.069 216.246 322.285C217.193 326.075 219.175 329.564 221.931 332.32C222.19 332.622 222.448 332.88 222.75 333.138C223.31 333.655 223.869 334.172 224.472 334.689C225.377 335.421 226.324 336.153 227.315 336.843C228.306 337.532 229.383 338.178 230.459 338.738L231.148 339.082L232.182 339.599C232.613 339.814 233.044 339.987 233.474 340.159C233.776 340.288 234.077 340.418 234.422 340.547C234.982 340.762 235.585 340.977 236.145 341.193C236.834 341.451 237.566 341.667 238.255 341.839C239.203 342.097 240.193 342.313 241.184 342.485L241.658 342.571C244.027 342.959 246.396 343.174 248.808 343.131H249.238C250.272 343.131 251.306 343.045 252.339 343.045C253.115 343.002 253.804 343.562 253.933 344.337C254.062 345.672 254.148 347.05 254.062 348.429ZM262.763 313.369C262.676 315.566 262.418 317.762 262.073 319.959C261.901 321.122 261.6 322.285 261.212 323.404C260.824 324.524 260.308 325.601 259.705 326.635C258.326 329.047 256.991 331.459 255.699 333.914L255.613 334.043L255.57 334.129C255.484 334.301 255.397 334.474 255.268 334.603C254.967 335.034 254.536 335.421 254.062 335.637C253.933 335.723 253.761 335.766 253.632 335.809C253.545 335.852 253.459 335.895 253.33 335.895C253.029 335.981 252.727 336.024 252.382 336.024C251.736 336.067 251.09 336.067 250.444 336.067C241.184 336.11 233.259 332.751 226.583 326.161C225.721 325.256 224.946 324.266 224.3 323.189C224.257 323.103 224.214 323.06 224.171 322.974C224.128 322.888 224.085 322.845 224.042 322.758C223.051 321.208 222.534 319.7 222.663 318.021V317.977C222.706 317.676 222.75 317.331 222.793 317.03C222.836 316.815 222.879 316.599 222.965 316.427C223.137 315.824 223.396 315.264 223.697 314.747C224.559 313.154 225.42 311.517 226.195 309.923C228.909 304.539 231.493 299.112 233.991 293.642L235.843 294.719C236.877 295.365 238.083 295.624 239.246 295.537C240.624 295.796 241.916 295.193 243.251 294.504C247.688 292.178 252.167 289.852 256.603 287.569C258.283 290.541 259.661 293.729 260.652 297.002C260.824 297.519 260.954 298.036 261.083 298.552C261.643 300.62 262.03 302.687 262.289 304.798C262.461 306.219 262.59 307.64 262.633 309.062C262.676 309.794 262.676 310.483 262.676 311.215C262.676 311.948 262.763 312.637 262.763 313.369ZM237.437 285.976C238.987 282.401 240.538 278.826 242.088 275.208C242.132 275.122 242.175 275.079 242.175 274.993C243.338 275.036 244.414 275.122 245.491 275.165C245.749 275.337 246.051 275.509 246.309 275.725L246.826 276.112L240.279 283.262C239.59 284.038 238.858 284.727 238.169 285.502C237.997 285.717 237.738 285.89 237.437 285.976ZM274.564 317.891C274.09 318.064 273.573 318.15 273.057 318.15C272.626 318.193 272.195 317.891 272.066 317.461V317.245C272.066 317.159 272.109 317.116 272.109 317.03C272.195 316.858 272.238 316.685 272.324 316.556C272.41 316.298 272.54 316.082 272.669 315.824C276.416 308.803 280.163 301.74 283.91 294.719L284.298 293.944C284.427 293.685 284.557 293.47 284.729 293.255C284.944 292.996 285.203 292.738 285.547 292.609H285.59C285.978 292.479 286.409 292.523 286.796 292.652C287.356 292.867 287.916 292.996 288.476 293.212C288.734 293.298 289.036 293.427 289.294 293.556C289.467 293.685 289.596 293.815 289.682 294.03C289.725 294.116 289.768 294.245 289.811 294.332C289.854 294.418 289.854 294.504 289.854 294.633C289.811 294.805 289.811 294.978 289.768 295.15C289.639 295.667 289.424 296.184 289.251 296.743C288.821 298.208 288.304 299.629 287.744 301.051C286.968 302.903 286.107 304.712 285.073 306.434C283.824 308.631 282.403 310.698 280.809 312.68C280.508 313.067 280.163 313.455 279.862 313.843C279.646 314.101 279.431 314.36 279.173 314.575C278.225 315.566 277.148 316.47 275.985 317.202C275.512 317.461 275.038 317.719 274.564 317.891ZM312.983 300.921C313.07 300.448 313.199 299.974 313.371 299.285C313.414 299.155 313.457 299.026 313.457 298.897C319.358 300.017 324.914 301.051 330.427 302.127C331.289 302.3 332.15 302.644 333.011 302.86C333.141 302.903 333.27 302.946 333.356 302.989C334.088 303.29 334.519 304.066 334.39 304.841C334.26 306.219 334.174 307.597 334.088 308.976C334.002 311.301 333.744 313.627 333.227 315.91C332.581 318.494 332.279 321.165 331.848 323.792V323.878C331.848 324.05 331.892 324.223 331.978 324.395C332.021 324.481 332.064 324.524 332.107 324.567C332.408 324.74 332.753 324.697 333.011 324.481C333.098 324.395 333.184 324.352 333.227 324.266C333.356 324.05 333.485 323.878 333.614 323.663C333.744 323.448 333.873 323.232 334.002 322.974L334.131 322.715C334.562 321.509 334.993 320.346 335.466 319.183L336.156 317.418C337.017 315.221 337.749 312.938 338.309 310.612C338.481 309.837 338.611 309.105 338.74 308.33C338.74 308.157 338.783 307.985 338.826 307.856C338.912 307.511 338.955 307.167 339.084 306.822C339.214 306.305 339.386 305.831 339.515 305.315C339.601 304.97 339.817 304.669 340.118 304.496C340.463 304.324 340.893 304.281 341.281 304.367C343.435 304.755 343.995 305.444 343.951 307.64C343.951 307.985 343.951 308.33 343.908 308.631C343.736 311.646 343.305 314.618 342.616 317.547L342.186 319.485C341.927 320.777 341.626 322.112 341.41 323.404C341.324 324.05 340.98 324.653 340.506 325.084C340.42 325.17 340.333 325.256 340.204 325.343C339.989 325.515 339.774 325.644 339.558 325.773L338.783 326.161C337.577 326.764 336.371 327.324 335.165 327.927C334.347 328.271 333.528 328.659 332.796 329.133C332.538 329.305 332.279 329.521 332.064 329.736C331.59 330.21 331.332 330.899 331.332 331.588C331.332 331.846 331.418 332.105 331.461 332.363C331.59 332.708 331.762 333.052 331.978 333.311C332.064 333.44 332.193 333.569 332.279 333.698C332.839 334.344 333.485 334.947 334.131 335.55C334.39 335.766 334.648 336.024 334.907 336.24C335.122 336.412 335.294 336.541 335.51 336.713C336.328 337.316 337.017 338.092 337.491 338.953C337.62 339.212 337.749 339.513 337.835 339.814C337.878 339.944 337.922 340.116 337.922 340.245C337.965 340.504 338.008 340.762 338.008 341.064C338.051 341.968 337.922 342.873 337.62 343.734C336.457 347.826 335.208 351.874 333.83 355.837C332.796 358.852 331.676 361.824 330.47 364.753C330.04 365.743 329.652 366.691 329.221 367.681C326.163 374.616 322.761 381.378 318.669 387.796C316.817 390.681 314.792 393.481 312.639 396.194C311.347 397.788 310.012 399.382 308.633 400.889C306.781 402.914 304.714 404.766 302.517 406.402C302.173 406.661 301.828 406.876 301.483 407.135C300.923 407.522 300.32 407.91 299.674 408.254C298.124 409.159 296.53 409.891 294.85 410.537C293.128 411.183 291.663 411.097 290.371 409.719C289.079 408.341 287.141 407.565 286.409 405.756C286.624 405.412 286.882 405.067 287.227 404.852C287.313 404.766 287.442 404.723 287.528 404.636L287.83 404.507C288.261 404.292 288.691 404.163 289.079 403.947C292.094 402.526 294.894 400.717 297.521 398.65C298.425 397.917 299.33 397.142 300.191 396.367C300.708 395.893 301.182 395.419 301.699 394.945L302.732 393.912C303.335 393.309 303.938 392.663 304.498 392.017L304.843 391.586C305.403 390.94 305.963 390.294 306.48 389.648C309.452 385.987 312.208 382.196 314.706 378.191C315.051 377.674 315.352 377.114 315.697 376.597C318.884 371.386 321.684 365.916 324.053 360.273C326.594 354.416 328.446 348.256 329.566 341.968C329.609 341.58 329.609 341.193 329.566 340.805C329.566 340.59 329.523 340.417 329.523 340.245C329.48 340.116 329.437 340.03 329.307 339.944H329.264C329.092 339.944 328.877 339.944 328.704 339.987C328.618 339.987 328.532 340.03 328.489 340.116C328.274 340.547 328.058 340.977 327.886 341.408C327.714 341.839 327.584 342.183 327.455 342.571C322.933 354.889 317.42 366.734 310.011 377.588C308.719 379.44 307.384 381.249 305.963 382.972C305.489 383.532 305.015 384.092 304.498 384.651C300.148 389.518 295.152 393.783 289.596 397.314L287.916 398.348L285.719 399.726L283.91 400.846C283.006 401.406 282.231 401.191 281.585 400.372C279.474 397.616 277.665 394.687 276.201 391.543C276.158 391.457 276.115 391.327 276.072 391.241C275.77 390.638 275.512 390.035 275.253 389.432C272.626 383.489 271.204 377.114 271.032 370.653C270.989 368.887 271.032 367.078 271.161 365.313V365.183C271.635 358.507 273.746 352.09 277.321 346.404C277.794 345.672 278.268 344.94 278.785 344.251C279.776 342.873 280.895 341.58 282.058 340.331C283.91 338.393 286.021 336.627 288.304 335.163C289.208 334.56 290.156 334 291.146 333.483C293.042 332.492 294.764 331.243 296.358 329.822L296.444 329.736C297.693 328.616 298.856 327.367 299.976 326.075C300.277 325.73 300.579 325.343 300.88 324.998C301.613 324.094 302.302 323.189 302.948 322.285C303.594 321.38 304.24 320.433 304.886 319.485C305.791 318.064 306.652 316.599 307.47 315.135C307.987 314.144 308.504 313.154 308.978 312.12C310.787 308.588 312.079 304.798 312.983 300.921ZM294.764 296.356C294.98 295.537 295.238 294.762 295.583 293.987C296.272 292.436 297.435 291.101 298.856 290.154C299.071 290.024 299.287 289.852 299.502 289.723C299.976 289.464 300.45 289.249 300.924 289.077L301.225 288.991C301.57 288.905 301.871 288.818 302.216 288.818C302.517 288.775 302.776 288.775 303.077 288.818C303.422 288.861 303.723 288.905 304.025 288.991C304.671 289.163 305.231 289.464 305.791 289.809C307.169 290.8 308.116 292.049 308.375 293.513C308.418 293.728 308.418 293.944 308.461 294.159C308.504 294.762 308.418 295.365 308.246 295.968C307.643 298.466 306.867 300.964 305.963 303.376C305.274 305.185 304.541 306.908 303.68 308.631C303.206 309.579 302.732 310.526 302.173 311.431C300.579 314.273 298.727 316.944 296.659 319.442L296.056 320.174C295.41 320.906 294.764 321.639 294.075 322.328C293.946 322.457 293.86 322.586 293.731 322.715L293.688 322.758C292.568 323.835 291.362 324.783 290.027 325.601C289.596 325.859 289.165 326.118 288.691 326.376C287.744 326.893 286.71 327.281 285.633 327.539C284.858 327.712 284.083 327.755 283.307 327.755H283.264C282.791 327.712 282.317 327.668 281.843 327.582C281.455 327.496 281.068 327.41 280.68 327.281C279.733 326.979 278.828 326.549 277.967 326.032C277.45 325.687 276.933 325.343 276.416 324.955C282.058 321.122 286.624 315.953 289.725 309.88C289.94 309.492 290.113 309.105 290.328 308.674L291.233 306.736C292.74 303.333 293.903 299.888 294.764 296.356ZM326.852 233.946C326.206 234.635 325.259 234.764 324.44 235.109C311.347 240.019 298.21 244.972 285.116 249.925L280.336 251.734C280.379 250.485 281.24 250.011 281.8 249.365C283.523 247.427 285.03 245.101 287.141 243.723C289.251 242.345 291.965 241.871 294.42 241.053C305.791 237.305 317.204 233.601 328.575 229.854C329.221 229.639 329.781 229.251 330.643 229.596C329.566 231.276 328.144 232.568 326.852 233.946ZM374.317 135.098C373.369 133.978 372.292 132.901 371.086 131.997C369.191 130.489 367.167 129.111 365.013 127.991C362.989 126.914 360.749 126.182 358.423 125.967C353.729 125.45 349.465 126.484 345.89 129.671C341.626 133.461 340.161 138.328 340.764 143.798C341.324 148.708 343.09 153.231 346.45 156.935C346.923 157.495 347.354 158.055 347.742 158.658C348.474 159.735 349.163 160.768 349.852 161.845C343.392 169.038 336.974 176.274 330.556 183.51C309.107 207.759 287.27 231.663 265.476 255.568C261.169 255.481 258.025 255.568 257.206 255.955C254.579 257.204 242.648 263.363 236.145 266.723L194.107 250.701L178.516 250.011C178.516 250.054 178.559 250.098 178.559 250.098C178.731 250.528 178.903 251.002 179.076 251.433C179.248 251.863 179.463 252.38 179.679 252.854C164.733 244.197 149.787 235.54 134.842 226.925C119.508 218.096 104.046 209.525 88.411 201.255C88.0234 201.04 87.6357 200.781 87.205 200.48C87.162 199.36 87.9803 198.628 88.4972 197.852C94.5271 189.066 100.557 180.236 106.673 171.493C116.967 156.806 127.347 142.162 137.297 127.259C140.699 122.177 143.973 116.965 147.289 111.84C147.849 110.978 148.409 110.16 148.926 109.384C149.443 109.341 149.916 109.514 150.304 109.815C165.25 120.023 180.841 129.111 196.261 138.457C201.602 141.688 207.029 144.746 212.326 148.062C215.686 150.173 218.27 150 221.199 146.684C225.98 141.214 231.105 136.045 236.145 130.834C257.422 108.782 279.259 87.246 301.01 65.6243C315.008 51.7124 329.135 37.8866 342.659 23.4578C343.908 22.1226 345.157 20.8305 346.406 19.5383C347.785 17.4279 349.508 15.6619 351.187 13.853C351.92 13.0777 352.393 13.1638 353.169 13.9391C353.341 14.1114 353.47 14.2837 353.599 14.4559L415.492 86.0831C416.225 86.9445 416.957 87.8059 417.732 88.7535C417.043 90.3902 415.751 91.5531 414.588 92.7591C406.275 101.459 397.919 110.16 389.607 118.86C384.481 124.244 379.356 129.628 374.317 135.098ZM422.815 279.343C424.451 286.105 424.667 293.126 423.461 299.931C422.901 303.419 421.781 306.779 420.187 309.923C419.197 311.991 417.775 313.886 416.052 315.436C414.717 316.556 413.253 317.375 411.487 317.461C411.358 317.461 411.185 317.461 411.142 317.375C411.056 317.159 410.884 316.901 410.97 316.728C411.401 315.867 411.918 315.006 412.305 314.144C412.564 313.584 412.865 312.981 413.08 312.421C414.157 309.837 414.416 306.951 413.813 304.195C413.597 302.816 413.08 301.524 412.262 300.405C412.176 300.232 411.961 300.146 411.745 300.232C411.702 300.275 411.659 300.275 411.616 300.318C411.444 300.534 411.358 300.405 411.315 300.361C411.315 300.405 411.315 300.448 411.358 300.534C411.659 302.558 412.004 304.539 412.305 306.564C412.09 307.382 411.831 308.2 411.616 309.019C410.324 314.618 404.768 320.777 396.713 321.595C394.905 321.811 393.052 321.552 391.373 320.949C390.942 320.863 390.684 320.433 390.813 320.045C390.813 319.959 390.856 319.916 390.899 319.873C391.459 318.925 392.062 318.021 392.579 317.073C393.526 315.393 394.172 313.541 394.474 311.603C394.646 310.397 394.517 309.148 394.043 308.028C393.871 307.727 393.655 307.425 393.354 307.253C393.139 307.124 392.923 307.124 392.708 307.21C392.492 307.339 392.32 307.511 392.234 307.727C392.148 307.942 392.062 308.2 392.105 308.416C392.449 311.646 391.114 314.316 389.305 316.815C388.272 318.15 387.022 319.356 385.644 320.303C383.06 322.026 379.7 322.069 377.116 320.346C373.886 318.107 371.689 315.221 370.785 311.345C370.268 309.234 369.923 307.081 369.794 304.884C369.579 300.405 368.588 295.968 366.951 291.79C366.305 290.197 365.702 288.646 364.367 287.483C364.238 287.785 363.979 288.129 363.979 288.431C364.066 289.249 364.324 290.024 364.496 290.843C364.539 291.317 364.324 291.79 363.893 292.049C362.989 292.566 361.912 292.781 360.835 292.609C360.62 292.523 360.405 292.436 360.232 292.264C359.759 292.135 359.285 292.006 358.854 291.833C357.347 291.317 356.141 290.154 355.538 288.646C354.762 286.837 354.418 284.899 354.547 282.961C354.848 277.318 357.39 272.021 361.568 268.187C361.912 267.843 362.343 267.584 362.73 267.283C364.841 265.56 367.597 264.914 370.268 265.474C370.742 265.56 371.172 265.775 371.56 266.034C375.953 269.307 381.036 270.901 386.333 271.848C394.732 273.356 403.389 272.753 411.53 270.083C413.468 269.393 415.363 268.532 417.172 267.541C417.689 267.24 418.335 267.412 418.637 267.929C418.637 267.972 418.68 268.015 418.68 268.015C420.446 271.676 421.867 275.466 422.815 279.343ZM396.24 257.42C402.14 256.774 407.912 255.352 413.382 253.113C414.373 252.682 415.363 252.208 416.268 251.648C416.914 251.26 417.344 250.657 417.56 249.968C417.474 249.882 417.431 249.753 417.388 249.667C417.043 248.633 416.354 248.202 415.234 248.289C414.114 248.375 414.114 247.772 414.373 246.953C414.545 246.35 414.933 246.135 415.406 246.393C416.655 247.04 417.904 247.642 418.68 248.892C419.627 249.667 420.446 250.571 421.092 251.605C422.771 254.189 422.858 256.817 421.479 259.573C420.79 260.865 419.886 262.028 418.766 262.976C416.871 264.656 414.631 265.991 412.262 266.895C402.528 270.599 391.803 270.901 381.854 267.757C379.054 266.895 376.427 265.603 374.058 263.88C372.464 262.76 371.129 261.296 370.139 259.616C368.717 257.032 368.803 254.491 370.139 251.95C370.612 251.088 371.172 250.313 371.818 249.581C372.981 248.159 374.403 246.996 376.039 246.135C376.341 245.963 376.556 246.006 376.642 246.264C377.202 247.729 377.375 249.322 377.116 250.916C377.116 251.002 376.901 251.088 376.815 251.088C376.47 251.045 376.126 250.959 375.781 250.916C375.566 250.657 375.35 250.442 375.049 250.227C374.876 250.141 374.489 250.098 374.403 250.227C374.23 250.485 374.101 250.787 374.144 251.131C374.187 251.605 374.575 251.993 375.049 252.036C376.082 253.285 377.547 253.931 378.968 254.577C384.352 256.989 390.339 257.98 396.24 257.42ZM409.807 144.143C408.343 145.736 406.878 147.287 405.414 148.881C404.682 149.742 403.605 150.259 402.485 150.302C397.144 150.733 391.846 151.25 386.549 151.809C385.084 149.527 383.534 147.287 381.94 145.09C385.041 144.832 388.185 144.574 391.287 144.272C396.369 143.841 401.451 143.368 406.534 142.937C407.74 142.851 408.989 142.808 410.109 142.765C410.453 143.497 410.109 143.841 409.807 144.143ZM407.223 109.428C406.964 109.083 407.051 108.566 407.352 108.308C410.324 104.733 413.339 101.201 416.268 97.583C416.957 96.7216 417.991 96.1617 419.11 96.1186C428.672 94.9126 438.234 93.6205 447.753 92.3714C450.897 91.9407 454.041 91.467 457.185 90.9932C457.659 90.5194 458.305 90.304 458.951 90.3902C459.296 90.3902 459.597 90.5625 459.554 90.9501C459.511 91.3377 459.382 91.5962 458.951 91.5531C455.204 95.5156 451.414 99.392 447.753 103.441C446.59 104.819 444.91 105.637 443.101 105.723C437.674 106.197 432.247 106.8 426.863 107.403C421.479 108.006 416.052 108.609 410.625 109.212C409.549 109.428 408.386 109.471 407.223 109.428Z" fill="#2C2729"/>
<path d="M283.739 328.573H283.351C282.791 328.53 282.274 328.487 281.757 328.401C281.327 328.315 280.896 328.185 280.508 328.099C279.475 327.755 278.527 327.324 277.58 326.764C277.02 326.419 276.46 326.032 275.943 325.644C275.727 325.472 275.598 325.213 275.598 324.955C275.598 324.697 275.771 324.438 275.986 324.266C281.844 320.303 286.28 315.092 289.596 308.33C289.898 307.727 290.199 307.081 290.458 306.435C291.879 303.161 293.042 299.715 293.86 296.227C294.076 295.365 294.377 294.504 294.765 293.686C295.54 292.006 296.789 290.541 298.34 289.508C298.555 289.335 298.77 289.206 299.072 289.034C299.589 288.732 300.106 288.517 300.666 288.345L300.967 288.259C301.355 288.129 301.742 288.086 302.13 288.043H303.164C303.551 288.086 303.939 288.129 304.284 288.215C305.016 288.431 305.705 288.732 306.308 289.163C308.16 290.455 309.237 292.221 309.323 294.202C309.366 294.891 309.28 295.581 309.108 296.27C308.461 298.811 307.686 301.309 306.782 303.764C306.093 305.573 305.317 307.382 304.499 309.105C304.068 310.009 303.551 310.957 302.991 311.948C301.398 314.79 299.503 317.547 297.392 320.045L296.789 320.777C296.143 321.509 295.454 322.242 294.765 322.974L294.636 323.103C294.55 323.189 294.463 323.275 294.42 323.361L294.334 323.448C292.827 324.912 291.061 326.204 289.166 327.195C288.175 327.755 287.055 328.185 285.892 328.444C285.16 328.487 284.471 328.573 283.739 328.573ZM273.014 319.011C272.196 319.011 271.506 318.494 271.248 317.719C271.248 317.676 271.248 317.633 271.205 317.633C271.162 317.331 271.162 316.987 271.291 316.729C271.334 316.556 271.42 316.384 271.507 316.212C271.636 315.953 271.722 315.695 271.851 315.479L283.093 294.375L283.222 294.116L283.48 293.599C283.609 293.341 283.782 293.039 283.997 292.781C284.299 292.393 284.686 292.049 285.16 291.877C285.203 291.877 285.246 291.833 285.246 291.833C285.505 291.747 285.763 291.704 286.021 291.704C286.366 291.704 286.711 291.79 287.012 291.92C287.184 292.006 287.443 292.049 287.658 292.135C288.003 292.264 288.347 292.35 288.649 292.48C288.907 292.566 289.209 292.695 289.553 292.867C289.596 292.867 289.596 292.91 289.639 292.91C289.941 293.083 290.156 293.384 290.329 293.686C290.501 293.987 290.587 294.375 290.587 294.719V294.805L290.458 295.451C290.372 295.796 290.242 296.097 290.156 296.399C290.07 296.614 289.984 296.83 289.941 297.045C289.51 298.509 288.993 300.017 288.39 301.438C287.615 303.333 286.711 305.185 285.677 306.951C284.385 309.148 282.963 311.302 281.37 313.326C281.025 313.757 280.724 314.144 280.379 314.532C280.164 314.79 279.905 315.049 279.69 315.307C278.699 316.341 277.58 317.288 276.33 318.064C275.857 318.365 275.34 318.667 274.78 318.839C274.263 319.054 273.703 319.14 273.1 319.14L273.014 319.011ZM250.229 336.929C240.926 336.929 232.786 333.526 226.023 326.764C225.119 325.816 224.301 324.783 223.655 323.663C223.612 323.577 223.525 323.491 223.482 323.405L223.353 323.189C222.19 321.337 221.716 319.657 221.846 317.934V317.891C221.889 317.547 221.932 317.159 222.018 316.815C222.061 316.599 222.104 316.341 222.19 316.125C222.406 315.479 222.664 314.876 222.965 314.273C223.827 312.68 224.645 311.043 225.464 309.449C228.435 303.635 231.494 297.174 234.767 289.809C237.222 284.339 239.505 278.912 241.271 274.82L241.4 274.562L241.443 274.476C241.529 274.347 241.658 274.174 241.787 274.002C241.917 273.787 242.089 273.528 242.304 273.227C242.477 272.968 242.735 272.839 243.037 272.839C243.166 272.839 243.295 272.882 243.424 272.925C244.587 273.528 245.707 274.217 246.784 274.993C250.875 277.878 254.321 281.712 256.819 286.019C259.102 289.852 260.825 293.944 261.988 298.251C262.548 300.318 262.978 302.472 263.237 304.626C263.409 306.047 263.538 307.511 263.581 308.976C263.624 309.708 263.625 310.483 263.625 311.172C263.625 311.818 263.624 312.508 263.581 313.369C263.495 315.609 263.237 317.848 262.892 320.045C262.72 321.251 262.419 322.457 261.988 323.62C261.6 324.783 261.04 325.946 260.437 327.022C259.102 329.305 257.81 331.674 256.432 334.258L256.302 334.474C256.216 334.646 256.087 334.818 255.958 335.034C255.57 335.594 255.053 336.024 254.45 336.326C254.278 336.412 254.106 336.498 253.89 336.541C253.804 336.584 253.675 336.627 253.546 336.67C253.201 336.757 252.814 336.8 252.426 336.843C251.78 336.886 251.091 336.886 250.445 336.886L250.229 336.929Z" fill="#F7F6F5"/>
<path d="M244.112 361.436C243.811 361.436 243.509 361.436 243.208 361.393C242.433 361.35 241.614 361.264 240.839 361.092C240.236 360.962 239.59 360.79 239.03 360.575C231.019 357.775 223.783 353.468 217.452 347.826C216.547 347.007 215.686 346.232 214.91 345.457C214.178 344.725 213.489 344.035 212.886 343.346C210.474 340.719 208.191 337.876 206.21 334.904C204.616 332.536 204.229 329.736 205.047 326.979C205.952 324.007 208.277 321.466 211.034 320.346C211.163 320.303 211.249 320.26 211.335 320.26L211.422 320.217C212.197 319.959 213.015 319.83 213.834 319.743C213.963 319.743 214.135 319.7 214.307 319.7H214.437C214.652 319.7 214.781 319.7 214.953 319.743C215.772 319.83 216.504 320.389 216.805 321.208C216.935 321.466 217.021 321.682 217.064 321.94C217.968 325.558 219.863 328.918 222.534 331.588C222.792 331.889 223.051 332.148 223.352 332.406C223.869 332.88 224.386 333.397 225.032 333.914C225.85 334.603 226.755 335.292 227.789 336.024C228.736 336.713 229.77 337.316 230.847 337.876L231.536 338.221L231.665 338.307C231.966 338.436 232.225 338.565 232.526 338.695C232.957 338.91 233.388 339.082 233.819 339.255L234.723 339.642L236.403 340.288C237.006 340.504 237.695 340.719 238.47 340.934C239.418 341.193 240.365 341.408 241.313 341.58L241.787 341.667C243.983 342.054 246.223 342.227 248.463 342.227H249.195C249.583 342.227 249.97 342.226 250.401 342.183C251.047 342.183 251.65 342.14 252.296 342.14H252.511C253.674 342.14 254.665 343.002 254.837 344.165C255.053 345.543 255.139 347.007 255.053 348.429C255.009 349.118 254.923 349.807 254.794 350.496C254.536 351.831 254.105 353.123 253.502 354.373C253.028 355.32 252.511 356.225 251.865 357.043C251.607 357.431 251.305 357.775 250.875 358.249C250.444 358.723 250.056 359.11 249.712 359.498C249.109 360.058 248.42 360.532 247.644 360.876C246.611 361.221 245.534 361.436 244.112 361.436ZM225.247 292.178C225.161 292.178 225.075 292.178 225.032 292.135C221.931 291.273 219.131 289.508 216.59 287.785C203.496 279.041 193.073 267.283 185.579 252.897C185.579 252.854 185.536 252.854 185.536 252.811C185.407 252.466 185.321 252.122 185.234 251.777C185.148 251.39 185.407 250.959 185.794 250.83C185.837 250.83 185.88 250.787 185.967 250.744C186.182 250.614 186.44 250.485 186.742 250.485C186.914 250.485 187.086 250.528 187.216 250.614C189.025 251.648 191.006 252.639 193.332 253.672C197.983 255.783 202.721 257.463 207.158 258.97C210.603 260.133 214.006 261.468 217.322 262.804C221.888 264.569 226.583 266.421 231.32 267.843C231.665 267.929 231.966 268.058 232.268 268.23C235.584 269.695 235.886 270.513 234.335 273.959C232.096 279.127 229.856 284.296 227.573 289.464L227.444 289.723C227.099 290.498 226.712 291.446 225.678 292.049C225.549 292.135 225.42 292.178 225.247 292.178Z" fill="#F7F6F5"/>
<path d="M293.085 411.872C291.879 411.872 290.803 411.399 289.855 410.408C289.424 409.977 288.951 409.59 288.434 409.202C287.4 408.427 286.323 407.608 285.72 406.23C285.634 405.972 285.634 405.713 285.763 405.498C286.108 404.895 286.625 404.378 287.228 404.034L287.529 403.861C287.788 403.732 288.046 403.603 288.305 403.517C288.477 403.431 288.649 403.387 288.821 403.301C291.75 401.88 294.55 400.157 297.091 398.09C297.996 397.401 298.857 396.625 299.718 395.85C300.149 395.462 300.666 394.989 301.183 394.472L302.217 393.438C302.82 392.835 303.422 392.189 303.939 391.543L304.284 391.112C304.844 390.466 305.404 389.82 305.921 389.174C308.849 385.556 311.606 381.766 314.104 377.803C314.449 377.286 314.75 376.726 315.095 376.21C318.239 371.041 321.039 365.571 323.364 360.015C325.906 354.2 327.715 348.127 328.834 341.882V341.71C328.834 341.753 328.834 341.753 328.791 341.753C328.619 342.097 328.49 342.485 328.361 342.83C323.321 356.655 317.593 368.155 310.831 378.062C305.361 386.116 298.426 392.792 290.2 398.004C289.898 398.219 289.597 398.391 289.252 398.607C288.994 398.779 286.323 400.459 286.323 400.459L284.514 401.578C284.041 401.88 283.567 402.009 283.093 402.009C282.576 402.009 281.801 401.837 281.069 400.889C278.915 398.09 277.063 395.075 275.599 391.887L275.469 391.629C275.168 390.983 274.909 390.38 274.608 389.734C271.938 383.661 270.473 377.243 270.301 370.61C270.258 368.801 270.301 366.992 270.43 365.227V365.097C270.904 358.335 273.1 351.702 276.718 345.931C277.106 345.328 277.623 344.509 278.226 343.734C279.26 342.313 280.379 340.978 281.585 339.728C283.481 337.747 285.634 335.938 287.96 334.431C289.037 333.742 289.984 333.182 290.846 332.708C292.655 331.76 294.335 330.554 295.885 329.176L295.971 329.09C297.177 328.013 298.34 326.807 299.374 325.558C299.675 325.214 299.977 324.869 300.235 324.524C300.924 323.663 301.614 322.758 302.303 321.854C302.949 320.949 303.595 320.002 304.198 319.097C305.102 317.719 305.964 316.255 306.739 314.79C307.256 313.8 307.773 312.809 308.246 311.818C309.883 308.287 311.175 304.539 312.08 300.749C312.166 300.448 312.209 300.146 312.338 299.759L312.51 299.112L312.597 298.725C312.683 298.337 313.027 298.079 313.415 298.079H313.587L316.731 298.682C321.512 299.586 326.035 300.448 330.6 301.352C331.203 301.481 331.72 301.654 332.28 301.783C332.582 301.869 332.926 301.998 333.271 302.084C333.443 302.127 333.572 302.171 333.744 302.257C334.864 302.687 335.51 303.85 335.295 305.013C335.166 306.348 335.08 307.727 334.994 309.019C334.907 311.388 334.606 313.8 334.132 316.126C333.701 317.978 333.4 319.873 333.141 321.725C333.055 322.328 332.969 322.931 332.883 323.577C332.926 323.491 333.012 323.405 333.055 323.318C333.185 323.146 333.271 322.931 333.357 322.758V322.715C333.4 322.672 333.4 322.629 333.443 322.543C333.831 321.423 334.261 320.303 334.778 319.011L335.467 317.245C336.329 315.049 337.061 312.809 337.578 310.569C337.75 309.794 337.879 309.062 338.008 308.373C338.008 308.244 338.052 308.071 338.095 307.942V307.856C338.181 307.425 338.267 307.081 338.353 306.736C338.482 306.262 338.612 305.832 338.741 305.358L338.784 305.229C338.913 304.669 339.301 304.195 339.774 303.893L339.817 303.85C340.162 303.678 340.55 303.592 340.937 303.592C341.11 303.592 341.325 303.592 341.497 303.635C344.038 304.066 344.857 305.142 344.857 307.77V308.803C344.685 311.862 344.254 314.92 343.565 317.891L343.134 319.83C342.876 320.993 342.617 322.371 342.359 323.706C342.229 324.524 341.799 325.3 341.196 325.86C341.067 325.989 340.98 326.075 340.851 326.161C340.636 326.333 340.334 326.506 340.076 326.678L339.258 327.066C338.525 327.41 337.793 327.798 337.061 328.142C336.587 328.358 336.07 328.616 335.597 328.831C334.778 329.176 334.003 329.564 333.271 329.994C333.098 330.124 332.883 330.253 332.711 330.468C332.366 330.813 332.194 331.243 332.237 331.717C332.237 331.89 332.28 332.062 332.323 332.234C332.409 332.493 332.538 332.708 332.711 332.966C332.797 333.052 332.883 333.182 332.926 333.268L332.969 333.311C333.357 333.785 333.788 334.172 334.261 334.646L334.778 335.163C334.994 335.378 335.252 335.594 335.51 335.766C335.683 335.938 335.898 336.067 336.07 336.197C337.276 337.015 338.224 338.307 338.655 339.728C338.698 339.858 338.741 340.03 338.784 340.245C338.999 341.581 338.913 342.916 338.482 344.165C337.147 348.73 335.941 352.693 334.692 356.311C333.572 359.541 332.495 362.47 331.289 365.27C330.902 366.217 330.514 367.165 330.04 368.198C326.465 376.253 323.106 382.713 319.445 388.442C317.593 391.371 315.525 394.213 313.372 396.884C312.08 398.477 310.745 400.071 309.323 401.622C307.428 403.689 305.318 405.584 303.078 407.264C302.733 407.522 302.389 407.781 302.001 407.996C301.441 408.384 300.838 408.728 300.149 409.159C298.555 410.063 296.919 410.882 295.196 411.485C294.464 411.743 293.732 411.872 293.085 411.872ZM196.176 395.592C195.443 395.592 194.797 395.204 194.41 394.601C193.893 393.869 194.065 392.878 194.754 392.275L194.797 392.232C195.271 391.887 195.788 391.543 196.262 391.198C198.243 389.777 200.31 388.313 202.464 387.02C203.541 386.417 204.402 385.944 205.221 385.556C205.35 385.47 205.522 385.427 205.694 385.427H205.78C205.91 385.427 206.039 385.47 206.168 385.556C206.383 385.685 206.599 385.858 206.771 385.987C206.986 386.159 207.116 386.461 207.073 386.762C207.073 386.848 207.073 386.891 207.03 386.977C206.986 387.322 206.986 387.667 206.728 387.968C206.599 388.14 206.47 388.313 206.34 388.442C206.168 388.657 205.953 388.873 205.737 389.088C205.522 389.303 205.307 389.519 205.048 389.691C204.661 389.992 204.273 390.251 203.842 390.552L203.455 390.854C201.732 392.06 200.009 393.309 198.286 394.515L197.769 394.859C197.511 395.075 197.209 395.247 196.908 395.333C196.736 395.549 196.477 395.592 196.176 395.592ZM224.947 388.097C221.372 388.097 217.797 387.753 214.309 387.02C214.05 386.977 213.835 386.891 213.576 386.805C213.232 386.719 212.93 386.504 212.672 386.288L212.5 386.116C212.456 386.073 212.413 385.987 212.37 385.944L212.327 385.901C212.284 385.858 212.284 385.814 212.241 385.771C212.198 385.728 212.198 385.685 212.198 385.599C212.026 384.996 212.026 384.35 212.241 383.747C212.327 383.402 212.413 383.058 212.456 382.799L212.543 382.455C212.758 381.378 212.887 380.258 212.973 379.095C213.103 377.889 212.456 376.726 211.423 376.21C211.25 376.123 211.078 376.08 210.906 376.037C210.734 375.994 210.518 375.994 210.346 375.994C210.045 375.994 209.7 376.037 209.398 376.167C209.097 376.296 208.839 376.425 208.623 376.64C207.46 377.545 206.297 378.363 205.134 379.182C204.747 379.483 204.316 379.741 203.928 380.043L203.368 380.431C202.335 381.163 201.56 381.68 200.612 381.68C199.664 381.68 198.846 381.163 197.468 380.301C195.228 378.837 192.988 377.2 190.921 375.521L189.37 374.228C188.423 373.453 187.475 372.635 186.571 371.816C185.968 371.3 185.408 370.783 184.805 370.309C183.082 368.801 181.316 367.294 179.593 365.83C173.046 360.144 166.241 354.243 159.135 349.032C155.99 346.706 153.406 344.94 150.994 343.476C148.41 341.882 145.696 340.461 142.94 339.255C140.183 338.049 137.341 337.101 134.412 336.369C132.258 335.852 130.019 335.551 127.779 335.464L126.917 335.378C125.539 335.335 124.161 335.249 122.826 335.163C121.663 335.077 120.5 335.034 119.337 335.034C116.537 335.034 113.738 335.292 110.981 335.766C109.388 336.067 107.751 336.455 106.2 336.972C106.114 337.015 106.028 337.015 105.942 337.015C105.726 337.015 105.511 336.929 105.382 336.8C104.004 335.594 104.865 334.431 105.167 334.086L105.253 333.957C105.683 333.354 106.2 332.751 106.803 332.062C108.225 330.468 109.732 328.918 111.369 327.539C113.135 326.032 114.987 324.567 116.882 323.232C117.356 322.888 117.872 322.586 118.432 322.328L118.519 322.285C119.552 321.854 120.629 321.596 121.792 321.553H122.309C122.653 321.553 122.998 321.552 123.343 321.596C126.96 321.94 130.578 322.5 134.153 323.189C137.168 323.792 140.183 324.524 143.112 325.386C145.266 326.032 147.419 326.721 149.53 327.496C155.947 329.865 161.891 333.483 167.576 338.479C169.902 340.504 172.271 342.7 174.812 345.155C175.975 346.275 177.181 347.481 178.517 348.86C179.593 349.979 180.67 351.056 181.747 352.176C184.331 354.889 186.485 357.086 188.552 359.067C191.222 361.695 193.721 363.977 196.089 366.045C196.649 366.519 197.252 366.992 197.898 367.466C199.363 368.543 200.957 369.447 202.636 370.137C202.722 370.18 202.852 370.223 202.938 370.266L203.024 370.309L203.196 370.395L203.541 370.567L203.799 370.697L203.971 370.74H204.101C204.101 370.74 204.144 370.697 204.144 370.653L204.101 370.61L204.015 370.524C203.928 370.438 203.799 370.352 203.67 370.266L203.455 370.094C203.282 369.964 203.067 369.835 202.895 369.663L202.55 369.361C202.162 369.06 201.732 368.758 201.258 368.414L200.827 368.112C195.831 364.494 191.222 360.36 187.131 355.794C185.968 354.545 184.762 353.253 183.599 352.004L183.297 351.659C178.646 346.792 173.822 341.968 168.955 337.316L168.007 336.412L165.811 334.345C159.135 328.185 151.468 323.491 142.897 320.39C141.432 319.873 139.968 319.356 138.46 318.925C137.771 318.71 137.039 318.494 136.35 318.279C135.919 318.15 135.532 318.021 135.101 317.891L134.498 317.762C134.369 317.719 134.196 317.676 134.067 317.633C133.895 317.547 133.723 317.418 133.593 317.288C133.378 317.073 133.249 316.772 133.249 316.47V316.384C133.249 316.126 133.335 315.91 133.464 315.738C133.637 315.523 133.809 315.35 134.067 315.221L134.239 315.092C134.455 314.963 134.67 314.876 134.886 314.79C135.402 314.618 135.876 314.575 136.393 314.575C136.608 314.575 136.824 314.575 137.039 314.618C137.298 314.532 137.513 314.446 137.771 314.36C139.666 313.8 141.605 313.455 143.543 313.369L144.49 313.326C146.299 313.24 148.065 313.197 149.702 313.197C150.693 313.197 151.64 313.197 152.588 313.24C153.751 313.283 154.784 313.326 155.818 313.412C160.685 313.714 165.552 314.618 170.247 316.126C175.028 317.676 179.636 319.83 183.9 322.5C184.374 322.802 184.848 323.103 185.279 323.405C185.666 323.663 186.011 323.878 186.355 324.137C187.131 324.654 187.906 325.214 188.638 325.817C190.49 327.238 192.256 328.788 193.979 330.382C195.487 331.846 196.908 333.483 198.157 335.163C198.846 336.154 199.406 336.972 199.966 337.79C200.526 338.652 201.043 339.556 201.603 340.504C203.412 343.82 205.737 346.749 208.58 349.247C209.312 349.893 210.088 350.582 211.121 351.53L211.38 351.788C212.758 353.037 214.179 354.33 215.601 355.536C217.022 356.742 218.529 357.818 220.08 358.809C222.277 360.187 224.086 361.221 225.808 362.125C226.11 362.298 226.455 362.47 226.799 362.599C229.728 364.107 232.829 365.14 236.016 365.786C236.533 365.873 237.007 366.045 237.438 366.174L238.213 366.433C238.773 366.562 239.29 366.863 239.677 367.337C239.677 367.337 239.677 367.38 239.72 367.38C239.807 367.509 239.893 367.595 239.936 367.725C240.022 367.854 240.065 367.983 240.108 368.112C240.151 368.285 240.194 368.5 240.237 368.672C240.28 368.931 240.28 369.189 240.28 369.404C240.28 369.749 240.323 370.094 240.367 370.395L240.496 371.3C240.582 371.903 240.625 372.549 240.582 373.152C240.323 376.167 237.739 376.253 235.672 376.296C235.241 376.296 234.767 376.339 234.337 376.339C232.657 376.425 230.977 376.597 229.556 376.77C228.78 376.856 228.048 376.942 227.273 377.028C226.11 377.157 224.947 377.329 223.784 377.459H223.612C223.31 377.416 223.052 377.416 222.75 377.373C222.535 377.329 222.277 377.329 222.018 377.286C222.061 377.286 222.061 377.286 222.104 377.329C225.679 378.406 229.857 379.526 234.035 379.526C235.155 379.526 236.275 379.44 237.352 379.268H237.61C237.782 379.225 237.955 379.225 238.127 379.225C239.117 379.225 239.634 379.698 239.893 380.129C239.979 380.215 240.022 380.388 240.108 380.517C240.151 380.646 240.194 380.775 240.194 380.861C240.237 381.077 240.28 381.292 240.28 381.55V381.723C240.323 381.809 240.323 381.895 240.323 381.981C240.323 382.412 240.323 382.886 240.28 383.359C240.237 383.876 240.194 384.35 240.151 384.738C240.108 384.91 240.108 384.996 240.065 385.125C239.936 385.556 239.72 385.901 239.376 386.202C238.945 386.59 238.428 386.805 237.868 386.848C234.164 387.322 231.322 387.623 228.608 387.796C227.531 388.011 226.239 388.097 224.947 388.097ZM222.018 377.373C221.631 377.329 221.2 377.329 220.812 377.329C220.511 377.329 220.209 377.286 219.951 377.243C219.865 377.243 219.822 377.243 219.735 377.2C219.908 377.243 220.08 377.286 220.252 377.286C220.425 377.329 220.597 377.329 220.769 377.373H222.018Z" fill="#FEF6D1"/>
<path d="M68.5123 81.3453C68.3401 81.3453 68.2108 81.3022 68.0816 81.216C67.8663 81.0868 67.694 80.8715 67.6509 80.6131C67.5648 80.0962 67.5217 79.5794 67.4786 79.1056V79.0625C67.5648 77.3397 67.0049 75.6599 65.7558 73.7648C65.2389 72.9464 64.7221 72.1711 64.1622 71.3528C63.7745 70.8359 63.8176 70.1468 64.2483 69.7161C65.282 68.2947 65.5835 66.615 65.282 64.1599C64.8082 59.8959 62.5685 55.9764 59.1659 53.3922C56.8401 51.5401 54.2558 49.9896 51.5424 48.8266C51.1978 48.6974 50.8532 48.5251 50.5517 48.3959C50.0779 48.1806 49.6042 48.0083 49.1735 47.7929C48.1828 47.3622 47.2783 46.8023 46.5031 46.027C45.9001 45.4671 45.254 44.9072 44.6079 44.4334C42.1098 42.5383 39.6548 40.6431 37.1997 38.748C30.9975 33.9671 24.5799 29.057 18.0762 24.4054C15.4488 22.5533 12.7354 20.6582 10.108 18.8492C8.94511 18.0309 7.73912 17.2125 6.5762 16.3941C6.44699 16.308 6.31778 16.2219 6.14549 16.1357C5.93014 16.0065 5.67171 15.8342 5.45636 15.6619C3.86273 14.499 2.78595 12.7762 2.39831 10.838C2.13989 9.71814 2.48446 8.46908 3.38895 7.6938C4.25037 6.83238 5.28407 6.22939 6.44699 5.97096C8.25597 4.80804 10.3234 4.16198 12.4769 3.98969C13.4676 3.90355 14.5013 3.86048 15.4919 3.86048C17.387 3.86048 19.2822 4.03276 21.1342 4.37733C23.8046 4.85111 26.5181 5.54025 28.8009 6.10017C30.2222 6.44474 31.6005 6.87545 32.9357 7.47845L34.1417 7.9953C36.8982 9.20129 39.784 10.4503 42.4974 11.8717C50.8963 16.2649 58.9506 21.4765 66.4449 27.2911C67.9524 28.454 69.3738 29.7462 70.7951 30.9522C71.1827 31.2967 71.5704 31.6413 71.958 31.9428C72.8625 32.7181 73.0779 33.6656 72.518 34.6993C72.3026 35.13 72.0442 35.6038 71.8288 36.0345C71.2689 37.0682 70.709 38.145 70.149 39.2218C70.106 39.3079 70.106 39.3941 70.106 39.4371C70.2352 39.3941 70.5367 39.3079 70.6228 39.3079C73.8962 35.2593 77.3419 31.2537 80.8737 27.4203C85.0086 22.8548 89.7894 18.8923 95.001 15.6189C96.9823 14.3698 99.0928 13.3361 101.289 12.5608C103.917 11.6563 106.63 11.1826 109.387 11.1826C110.55 11.1826 111.756 11.2687 112.919 11.441H113.005C113.306 11.5271 113.608 11.6133 113.866 11.7855C116.58 11.7855 118.776 13.0777 120.198 14.0252C121.791 15.102 122.739 16.7818 123.126 18.9784C123.213 19.8398 123.083 20.6582 122.696 21.3904C121.662 23.5439 120.327 25.4821 118.647 27.205C116.278 29.5739 113.737 31.7705 111.54 33.5795C108.999 35.69 105.64 38.4896 102.323 41.3323C99.6096 43.7443 97.1115 46.4147 94.9149 49.3004C94.2688 50.1188 93.6658 51.0233 93.149 51.9277C92.8044 52.4877 92.6752 53.1768 92.8044 53.8659C92.8905 54.4259 93.5797 54.7704 94.0104 54.7704H94.1396C94.9149 54.512 95.6471 54.0382 96.207 53.4352C96.8962 52.703 97.5422 51.9708 98.1883 51.2386L99.7388 49.5588C100.126 49.1281 100.557 48.7405 100.988 48.3959C101.074 48.3098 101.203 48.2236 101.376 48.1806C101.505 48.1375 101.634 48.0944 101.763 48.0944C102.237 48.0944 102.711 48.3959 102.883 48.8697C103.098 49.3004 103.228 49.7742 103.314 50.248V50.2911C103.744 53.7367 103.658 57.1824 103.185 60.6281C102.797 63.5569 102.194 66.4858 101.376 69.3284C100.773 71.3528 99.9973 73.3341 99.0928 75.2292C98.7913 75.9183 98.0591 76.3921 97.2838 76.3921H97.1546C96.81 76.3921 96.5085 76.3921 96.164 76.349C94.6565 76.2198 93.1059 76.1768 91.5984 76.1768C89.8325 76.1768 87.9805 76.2629 86.2145 76.3921H85.0516C84.664 76.5644 84.2333 76.6936 83.8456 76.7797H83.8026C79.3662 77.5119 75.0591 78.761 70.9243 80.6131C70.4936 80.7853 70.0629 80.9576 69.5891 81.0868C69.3738 81.173 69.1584 81.2161 68.9431 81.3022C68.7277 81.3453 68.5985 81.3453 68.5123 81.3453ZM66.0573 120.884H65.6697C65.5835 120.884 65.4974 120.841 65.4112 120.841C63.2577 120.281 61.1472 119.549 59.1229 118.645C56.797 117.611 54.7727 115.931 53.3083 113.821C51.3701 111.107 50.724 107.662 51.4993 104.431C52.0592 102.105 52.9637 99.9089 54.2989 97.8845C55.6772 95.731 57.3569 93.7066 59.2521 91.9838C60.8888 90.4763 62.6116 89.098 64.4637 87.849C69.3738 84.5756 74.7577 82.2067 80.443 80.7853H80.4861C81.0891 80.6561 81.649 80.57 82.252 80.5269C82.4243 80.3977 82.6396 80.2254 82.9411 80.1824C85.4823 79.7516 88.4973 79.3209 91.5123 79.3209C92.2014 79.3209 92.8905 79.364 93.5366 79.4071C96.6377 79.5794 99.7389 80.1824 102.668 81.3022C104.261 81.9483 105.769 82.7666 107.147 83.8434C111.583 87.246 113.005 92.0269 111.282 97.583C110.334 100.598 108.525 103.527 105.812 106.413C105.338 106.886 104.821 107.317 104.347 107.748C104.175 107.92 104.003 108.049 103.831 108.222C103.615 108.394 103.357 108.48 103.055 108.48C102.495 108.48 101.806 108.135 101.634 107.532C101.203 106.154 100.902 104.69 100.729 103.225V103.096C100.773 101.847 101.763 100.856 102.969 100.77C103.4 100.641 103.874 100.512 104.304 100.34C104.864 100.081 105.252 99.4782 105.252 98.789V98.746C105.295 97.9707 104.907 97.2815 104.218 96.937C103.4 96.5063 102.582 96.2048 101.72 96.0325C101.289 95.9463 100.816 95.8171 100.385 95.6879C99.5666 95.4726 98.7913 95.2572 98.0591 95.2572C97.8007 95.2572 97.5853 95.3003 97.3269 95.3434C96.3362 95.5587 95.3025 95.731 94.3119 95.9033C93.192 96.0756 92.0291 96.2478 90.9524 96.5493C83.4149 98.5306 76.2651 102.235 70.3213 107.274C68.4262 108.825 66.7895 110.59 65.4543 112.615C64.9805 113.261 64.679 113.95 64.5067 114.682V114.811H64.5498C64.8082 114.682 65.0236 114.553 65.282 114.424C65.3682 114.381 65.4112 114.338 65.4974 114.338C65.6266 114.295 65.7558 114.295 65.885 114.295C65.9712 114.295 66.1004 114.295 66.1865 114.338C66.4449 114.381 66.7034 114.467 66.8756 114.639C66.9618 114.682 67.0049 114.768 67.0479 114.855C67.1771 115.07 67.2633 115.285 67.2633 115.544C67.4356 116.836 67.5648 118.085 67.7371 119.377C67.7801 119.765 67.6509 120.152 67.3925 120.454C67.0049 120.626 66.5311 120.884 66.0573 120.884ZM46.8476 105.077H46.6323C46.0723 104.948 45.4693 104.819 44.9525 104.561C44.7802 104.474 44.6079 104.431 44.4356 104.345C43.3158 103.914 42.1098 103.441 41.1192 102.579C40.7315 102.45 40.3439 102.321 39.9993 102.149C39.9993 102.149 39.9563 102.149 39.9563 102.105C36.769 100.297 33.9694 97.9276 31.6435 95.0849C31.3851 94.7404 31.0836 94.3527 30.7391 93.922C29.8776 92.8452 28.887 91.5962 28.284 90.8209C28.1117 90.6055 28.0686 90.304 28.1548 90.0025C28.3701 89.4426 28.7147 88.8396 29.6623 88.8396H30.2653C31.1698 89.0119 32.3758 89.3134 33.4956 89.658C34.5724 89.9595 35.6922 90.304 36.5106 90.4333C38.1042 90.6917 39.6978 90.8209 41.3345 90.8209C41.9375 90.8209 42.4974 90.8209 43.1004 90.7778H43.4019C43.7034 90.7778 44.0049 90.8209 44.3064 90.8209H44.6079C44.9094 90.6917 45.2109 90.6486 45.5124 90.5625H45.5986C47.4075 90.4333 49.2165 90.1318 50.9824 89.8303L52.533 89.5718H52.6622C52.7914 89.5718 52.8776 89.6149 53.0068 89.658C53.0929 89.701 53.1791 89.701 53.3083 89.7441C53.739 89.8303 54.5573 90.0025 54.9019 90.9501C54.988 91.2516 54.945 91.5531 54.7727 91.8115C54.6004 92.0269 54.4281 92.2422 54.2128 92.4576C53.8682 92.8883 53.4806 93.319 53.136 93.7928C50.7671 96.8939 49.3888 99.7366 48.6997 102.708C48.5705 103.311 48.3551 103.871 48.1398 104.388C48.0967 104.474 48.0536 104.517 48.0105 104.561C47.709 104.905 47.3214 105.077 46.8476 105.077Z" fill="#F7F6F5"/>
<path d="M49.2594 69.63C47.1489 69.63 44.9954 69.5439 42.8849 69.3285C36.898 68.8547 30.9112 67.9072 25.0966 66.5289C24.0198 66.3135 22.943 66.012 21.9093 65.6675C19.282 64.763 17.1715 62.6525 16.267 60.0252C15.6209 58.2593 15.1472 56.3641 14.9318 54.469C14.7595 52.617 14.9749 50.7649 15.5348 48.999C15.7502 47.9653 16.6977 47.19 17.7745 47.19H23.8906C24.3213 47.1039 24.752 47.0608 25.2258 47.0177H29.7052C31.8157 47.0177 34.2707 47.0177 36.7258 47.1469C43.7894 47.4484 50.5516 49.7743 56.28 53.9091C56.8399 54.3398 57.4429 54.7705 58.1321 55.3735C61.6639 58.3885 63.2575 62.2218 62.8699 66.7873C62.7407 68.1656 62.0515 68.8978 60.6732 68.9839C59.8118 69.027 58.9073 69.027 58.089 69.027C55.1171 69.4577 52.1883 69.63 49.2594 69.63Z" fill="#F7F6F5"/>
<path d="M43.7895 87.3752C39.3532 87.3752 35.3476 86.8153 31.5143 85.6954C29.1885 85.0494 26.9057 84.231 24.666 83.2404C20.7896 81.5176 17.9469 78.4595 16.2241 74.1955C15.578 72.5157 14.8458 70.276 15.0181 67.7779C15.0612 67.0457 15.8364 66.4858 16.4394 66.4858C16.6117 66.4858 16.784 66.5288 16.9563 66.615C17.0855 66.6581 17.2147 66.7442 17.3009 66.8303L17.3439 66.8734C19.0237 68.0794 20.9188 68.6824 23.3308 69.2423C27.5518 70.2329 31.7727 70.8359 35.7353 71.3959C39.1809 71.8696 42.8851 72.1281 47.1491 72.1281C49.3888 72.1281 51.8438 72.085 54.9019 71.9127C55.2895 71.7404 55.6772 71.6112 56.1079 71.482H56.194C57.4431 71.3097 58.649 71.0082 59.812 70.6206C60.1996 70.4914 60.5011 70.4483 60.8026 70.4483C61.4056 70.4483 62.2239 70.6637 62.7839 71.6543C63.6884 73.1618 64.4206 74.8415 64.9374 76.5644C65.7988 79.1487 65.0666 82.0775 63.0854 83.9726C62.3101 84.834 61.2764 85.394 60.1565 85.6093C59.5105 85.6954 58.9075 85.8247 58.3045 85.9108C55.591 86.3846 52.8345 86.9014 49.9918 86.9014H49.518C49.0011 87.0307 48.4843 87.1599 47.9674 87.246H47.9244C46.5461 87.3321 45.1247 87.3752 43.7895 87.3752Z" fill="#F7F6F5"/>
<path d="M237.092 286.923C236.705 286.923 236.317 286.794 235.93 286.579C234.724 285.846 233.431 285.114 232.182 284.425C229.813 283.09 227.358 281.712 225.119 280.032C224.817 279.816 224.688 279.429 224.817 279.084C224.903 278.783 225.033 278.524 225.205 278.266L225.291 278.18C226.109 277.232 226.971 276.328 227.832 275.38C229.383 273.657 231.019 271.891 232.527 270.082C234.121 268.23 235.8 266.464 237.437 264.742C239.72 262.33 242.046 259.875 244.113 257.247C244.199 257.118 244.328 257.032 244.415 256.903C246.697 254.835 248.765 252.509 250.746 250.227C251.995 248.805 253.244 247.341 254.579 245.963L255.355 245.187C258.585 241.871 261.944 238.382 264.959 234.807C265.907 233.687 266.941 232.611 267.931 231.577C269.223 230.242 270.473 228.95 271.549 227.571C272.971 225.676 274.65 223.996 276.287 222.36C278.096 220.508 279.991 218.613 281.499 216.459C281.499 216.459 281.499 216.416 281.542 216.416C281.714 216.201 281.886 216.028 282.059 215.856C283.265 214.564 284.514 213.315 285.677 212.066C288.433 209.223 291.276 206.294 293.817 203.236C295.195 201.556 296.746 200.006 298.21 198.498C300.235 196.431 302.302 194.32 303.982 191.952C303.982 191.952 303.982 191.909 304.025 191.909C304.197 191.693 304.369 191.521 304.542 191.306C305.791 189.97 307.083 188.635 308.375 187.3C311.132 184.457 313.974 181.485 316.602 178.427C317.851 176.963 319.186 175.585 320.478 174.206C322.545 172.053 324.699 169.77 326.508 167.358C326.68 167.143 326.853 166.927 327.068 166.712C330.212 163.826 333.098 160.553 335.897 157.409C336.931 156.246 338.008 155.04 339.085 153.834C340.205 152.585 341.411 151.336 342.573 150.173C345.028 147.632 347.57 144.961 349.723 142.075C349.896 141.86 350.111 141.645 350.283 141.472C351.446 140.223 352.652 138.974 353.858 137.725C356.744 134.71 359.759 131.609 362.515 128.379C363.894 126.785 365.358 125.235 366.779 123.77C368.89 121.574 371.086 119.291 372.895 116.836C373.068 116.577 373.283 116.405 373.498 116.19C376.858 113.089 379.959 109.6 382.974 106.24C384.266 104.819 385.601 103.311 386.937 101.89C391.158 97.3246 395.594 92.759 399.858 88.3658L400.59 87.6336C401.538 86.686 401.538 86.6429 400.633 85.6092C399.47 84.231 398.264 82.8527 397.101 81.5175C395.335 79.4932 393.526 77.4258 391.761 75.3153C390.124 73.3771 388.444 71.3958 386.85 69.4576C385.257 67.5194 383.62 65.5381 381.94 63.643C380.864 62.3509 379.744 61.1018 378.624 59.8528C377.806 58.9052 376.944 57.9576 376.126 57.0101C375.652 56.4932 375.221 55.9333 374.834 55.4165L373.8 54.1243C371.733 51.6262 369.622 49.1712 367.512 46.7161L365.875 44.821C365.1 43.9165 364.324 43.012 363.592 42.1075C361.74 39.954 359.845 37.7143 357.993 35.4746C355.71 32.6749 353.427 29.7892 351.188 26.9896L349.68 25.0944C349.206 24.5345 348.819 23.8885 348.388 23.3285C347.57 22.1656 346.794 21.0888 345.804 20.1843C345.459 19.8829 345.416 19.4091 345.631 19.0645C346.751 17.2986 348.216 15.748 349.594 14.2836C349.896 13.9391 350.24 13.5945 350.542 13.2499C350.886 12.9053 351.403 12.4316 352.092 12.4316C352.824 12.4316 353.384 12.9053 353.772 13.3361L353.815 13.3791L353.987 13.5514C354.073 13.6376 354.16 13.7668 354.246 13.8529L416.139 85.5231C416.526 85.9969 416.957 86.4707 417.345 86.9444C417.689 87.3321 418.034 87.7628 418.422 88.1935C418.637 88.4519 418.68 88.7965 418.551 89.098C417.905 90.6486 416.828 91.7684 415.751 92.8021C415.579 92.9744 415.407 93.1467 415.234 93.362C406.922 102.062 398.566 110.763 390.253 119.463C370.01 140.611 350.843 162.103 331.289 184.113C312.467 205.304 293.085 226.624 274.349 247.212C267.716 254.491 261.126 261.77 254.493 269.049C249.971 274.002 245.448 278.955 240.926 283.865C240.538 284.253 240.194 284.64 239.806 285.071C239.461 285.416 239.16 285.76 238.815 286.105C238.298 286.665 237.739 286.923 237.092 286.923Z" fill="#0A5859"/>
<path d="M225.636 280.204H225.463C224.387 279.989 223.525 279.429 222.664 278.912C222.405 278.74 222.147 278.567 221.888 278.438C192.988 261.598 163.57 244.584 134.454 227.83C119.207 219 103.615 210.386 88.0236 202.203C87.6791 202.03 87.3345 201.772 86.9899 201.556L86.7746 201.384C86.5592 201.212 86.3869 200.953 86.3869 200.695C86.3439 199.489 86.9899 198.671 87.5068 197.982C87.636 197.852 87.7221 197.68 87.8513 197.551L91.0817 192.856C95.9487 185.749 100.988 178.384 106.027 171.191C108.095 168.22 110.162 165.291 112.23 162.319C120.327 150.776 128.683 138.888 136.651 126.957C138.934 123.555 141.173 120.066 143.327 116.663C144.447 114.941 145.523 113.218 146.643 111.538C147.031 110.892 147.462 110.289 147.849 109.686L148.28 109.04C148.409 108.825 148.668 108.695 148.926 108.652H149.141C149.787 108.652 150.39 108.868 150.864 109.255C163.01 117.439 175.802 125.148 188.164 132.557C191.05 134.28 193.892 136.002 196.778 137.725C198.802 138.931 200.87 140.18 202.894 141.343C206.167 143.281 209.57 145.263 212.887 147.373C214.222 148.235 215.342 148.622 216.375 148.622C217.797 148.622 219.132 147.847 220.639 146.124C224.516 141.688 228.651 137.424 232.699 133.289C233.69 132.298 234.681 131.265 235.628 130.274C253.847 111.366 272.798 92.5868 291.104 74.4108C294.248 71.3097 297.392 68.2086 300.493 65.0644C302.604 62.997 304.671 60.8865 306.781 58.8191C318.497 47.1899 330.643 35.1731 342.1 22.8978C343.133 21.778 344.167 20.7012 345.201 19.6675L345.89 18.9784C346.062 18.8061 346.278 18.72 346.493 18.72C346.708 18.72 346.881 18.8061 347.053 18.9353C348.216 19.969 349.077 21.175 349.939 22.381C350.369 22.984 350.757 23.5439 351.145 24.0608L351.188 24.1038C353.858 27.5064 356.615 30.9952 359.414 34.3978C361.18 36.5514 363.032 38.7049 364.841 40.8154C365.66 41.763 366.478 42.7536 367.296 43.7012L369.665 46.5008C371.517 48.6543 373.326 50.8509 375.178 53.0045C375.566 53.4352 375.91 53.909 376.255 54.3397C376.643 54.8565 377.073 55.3734 377.504 55.8903L379.701 58.3453C380.907 59.6805 382.156 61.1018 383.362 62.5232C384.998 64.4183 386.635 66.3996 388.186 68.2947C389.822 70.2329 391.502 72.2573 393.182 74.2385C394.819 76.1767 396.498 78.1149 398.135 80.01C399.427 81.5175 400.762 83.025 402.055 84.5325C403.519 86.2553 403.476 87.289 401.925 88.8827C397.446 93.4913 392.837 98.2291 388.315 103.096L384.438 107.36C381.38 110.806 378.193 114.338 374.747 117.525L374.36 117.913C372.465 120.497 370.225 122.823 368.071 125.105C366.693 126.57 365.229 128.034 363.894 129.585C361.137 132.772 358.208 135.83 355.322 138.802C354.073 140.094 352.781 141.429 351.532 142.765C351.36 142.937 351.231 143.066 351.102 143.238C348.905 146.167 346.321 148.881 343.822 151.465C342.66 152.671 341.497 153.877 340.377 155.126C339.3 156.289 338.223 157.538 337.19 158.701C334.39 161.888 331.461 165.161 328.274 168.09C328.274 168.09 328.231 168.09 328.231 168.133C328.102 168.22 327.972 168.349 327.886 168.478C326.034 171.019 323.838 173.302 321.727 175.499C320.435 176.834 319.1 178.212 317.894 179.633C315.223 182.691 312.381 185.663 309.624 188.549C308.375 189.884 307.04 191.219 305.791 192.598C305.618 192.77 305.489 192.899 305.403 193.028C303.637 195.483 301.527 197.68 299.459 199.747C297.995 201.255 296.487 202.762 295.152 204.399C292.568 207.5 289.682 210.472 286.926 213.315C285.72 214.564 284.471 215.813 283.308 217.105L283.265 217.148C283.135 217.277 283.006 217.407 282.92 217.536C281.326 219.819 279.388 221.757 277.536 223.652C275.943 225.246 274.306 226.882 272.971 228.691C271.808 230.199 270.516 231.534 269.223 232.869C268.233 233.86 267.242 234.937 266.338 236.013C263.366 239.545 260.092 242.905 256.948 246.178L255.915 247.255C254.579 248.633 253.287 250.098 252.038 251.562C250.057 253.845 247.989 256.171 245.707 258.238L245.577 258.367C243.467 261.081 241.098 263.579 238.815 265.991C237.179 267.714 235.542 269.479 233.991 271.245C232.441 273.054 230.804 274.82 229.254 276.543C228.435 277.448 227.617 278.352 226.755 279.3C226.669 279.429 226.626 279.515 226.583 279.644C226.325 279.946 225.98 280.204 225.636 280.204Z" fill="#80BBBC"/>
<path d="M407.913 110.332H407.224C406.965 110.332 406.707 110.203 406.578 109.988C406.061 109.298 406.19 108.308 406.793 107.748C407.741 106.628 408.645 105.508 409.593 104.388C411.574 102.019 413.642 99.5213 415.623 97.0662C416.484 96.0325 417.733 95.3434 419.068 95.2572C428.716 94.0512 438.364 92.7591 447.711 91.51C449.39 91.2947 451.07 91.0363 452.707 90.7778C454.171 90.5625 455.679 90.3471 457.143 90.1318H457.272C457.402 90.1318 457.488 90.1318 457.617 90.1748C457.746 90.2179 457.919 90.2179 458.091 90.261C458.565 90.304 459.168 90.3902 459.684 90.907C459.986 91.2516 459.986 91.7685 459.684 92.113C458.78 93.1037 457.832 94.0512 456.928 95.0419C454.128 97.9707 451.242 100.986 448.529 104.001C447.237 105.508 445.299 106.456 443.274 106.585C438.278 107.016 433.153 107.576 428.2 108.135L427.08 108.265C422.6 108.738 418.078 109.255 413.642 109.772L410.885 110.074C409.851 110.246 408.904 110.332 407.913 110.332ZM423.849 85.6524C422.213 85.6524 421.05 85.0925 420.102 83.8865C419.499 83.1112 418.81 82.379 418.121 81.6037C417.647 81.1299 417.216 80.6131 416.743 80.0962C416.398 79.6655 416.226 79.1486 416.226 78.6318C416.226 78.2442 416.398 77.3827 417.69 77.3827H417.819C419.37 77.2535 420.92 77.1674 422.471 77.0382C423.634 76.952 424.797 76.8659 426.003 76.7797C432.377 76.2629 438.881 75.703 445.299 75.143L446.505 75.0569C449.304 74.7985 452.233 74.5831 455.076 74.2386C455.334 74.1955 455.55 74.1955 455.722 74.1955C456.885 74.1955 457.746 74.6262 458.522 75.5307C459.469 76.6936 460.46 77.8565 461.623 79.1487C462.183 79.7516 462.742 80.4408 463.389 81.173C463.604 81.4314 463.647 81.776 463.518 82.0775C463.389 82.379 463.13 82.5943 462.786 82.5943C462.183 82.6374 461.666 82.6805 461.192 82.7235C460.158 82.8097 459.383 82.8528 458.608 82.8958C449.347 83.3265 439.915 84.231 430.827 85.0494C428.803 85.2217 426.778 85.437 424.754 85.6093C424.409 85.6093 424.108 85.6524 423.849 85.6524ZM181.532 122.607C181.058 122.607 180.584 122.478 180.153 122.177C178.818 121.401 174.167 118.731 174.167 118.731C173.951 118.602 173.822 118.386 173.736 118.171C173.693 117.913 173.736 117.697 173.865 117.482C174.683 116.362 175.631 115.802 176.492 115.328C176.708 115.199 176.88 115.113 177.052 114.984C181.273 112.399 185.451 109.815 189.672 107.231C193.29 105.034 196.865 102.795 200.483 100.598C202.723 99.2197 204.575 98.0138 206.427 96.7647C207.073 96.334 207.676 96.1186 208.322 96.1186C208.925 96.1186 209.485 96.2909 210.131 96.6786C211.251 97.3246 212.371 97.9276 213.447 98.5306L214.438 99.0905C214.653 99.2197 214.783 99.392 214.826 99.6074C215.213 100.943 214.266 101.459 213.964 101.632C213.921 101.632 213.878 101.675 213.878 101.675C204.144 108.135 194.453 114.553 184.719 120.971C184.504 121.1 184.331 121.229 184.116 121.358C183.728 121.617 183.384 121.832 183.039 122.09C182.609 122.435 182.049 122.607 181.532 122.607ZM213.706 141.128C213.275 141.128 212.844 140.999 212.457 140.783L206.513 137.295C206.254 137.165 206.125 136.907 206.082 136.648C206.039 136.39 206.168 136.089 206.384 135.916L207.417 135.012C208.279 134.236 209.054 133.59 209.829 132.944C216.419 127.216 223.052 121.444 229.556 115.716C230.848 114.639 232.054 113.476 233.174 112.27C233.992 111.323 234.724 110.591 235.801 110.591C236.447 110.591 237.05 110.849 237.955 111.323C238.773 111.796 239.678 112.184 240.539 112.572C240.927 112.744 241.357 112.959 241.745 113.132C242.003 113.261 242.176 113.519 242.219 113.778C242.391 115.027 241.702 115.63 241.314 115.974C241.271 116.017 241.228 116.061 241.142 116.104C233.002 123.856 224.861 131.566 216.678 139.319C216.333 139.62 216.032 139.879 215.73 140.137L215.386 140.439C214.955 140.869 214.309 141.128 213.706 141.128ZM369.924 154.652C369.278 154.652 368.675 154.566 368.029 154.437C367.728 154.351 367.512 154.135 367.426 153.877C367.34 153.575 367.383 153.274 367.599 153.059C368.546 151.982 369.451 150.948 370.312 149.957C371.475 148.622 372.595 147.373 373.715 146.081C374.49 145.22 375.567 144.746 376.73 144.703C381.511 144.315 386.378 143.884 391.072 143.497H391.288C393.312 143.324 395.336 143.152 397.318 142.98C400.376 142.721 403.477 142.42 406.535 142.162C407.741 142.075 408.947 142.032 410.024 141.989H410.153C410.454 141.989 410.756 142.162 410.928 142.463C411.531 143.669 410.842 144.401 410.54 144.746L409.55 145.823C408.43 147.029 407.267 148.278 406.147 149.527C405.286 150.56 403.994 151.163 402.615 151.25C391.761 152.111 381.166 153.36 372.25 154.523C372.078 154.523 371.949 154.566 371.776 154.566C371.13 154.609 370.57 154.652 369.924 154.652ZM388.919 46.2855C386.981 46.2855 385.688 45.6394 384.655 44.218C384.095 43.4858 383.492 42.7536 382.717 41.8922C382.329 41.4615 381.941 40.9877 381.467 40.4709C381.252 40.2124 381.209 39.8679 381.338 39.5664C381.467 39.2649 381.769 39.0495 382.114 39.0495H384.87C388.187 39.0495 391.46 39.0495 394.776 39.0926C401.668 39.0926 408.559 39.1357 415.451 39.1357H424.28C425.658 39.1357 427.424 39.3941 428.759 41.2461C429.19 41.8491 429.621 42.366 430.095 42.9259C430.31 43.1843 430.525 43.4428 430.698 43.6581C430.87 43.8735 430.956 44.175 430.827 44.4765C430.568 45.2948 430.009 45.6825 429.233 45.6825H428.846C424.883 45.7686 420.921 45.8117 416.958 45.8547C407.827 45.984 398.394 46.1562 389.134 46.3285L388.919 46.2855ZM280.294 252.553C280.121 252.553 279.949 252.51 279.777 252.38C279.561 252.208 279.389 251.95 279.432 251.648C279.475 250.313 280.207 249.624 280.767 249.107C280.897 248.978 281.026 248.892 281.112 248.762C281.586 248.246 282.016 247.686 282.49 247.126C283.739 245.618 284.988 244.025 286.668 242.948C288.305 241.871 290.243 241.354 292.095 240.794C292.784 240.622 293.473 240.407 294.119 240.191L328.275 228.993C328.404 228.95 328.533 228.907 328.619 228.864C328.964 228.734 329.438 228.562 329.955 228.562C330.299 228.562 330.601 228.648 330.945 228.777C331.204 228.864 331.376 229.079 331.462 229.337C331.548 229.596 331.505 229.854 331.376 230.07C330.514 231.405 329.438 232.482 328.447 233.558C328.146 233.903 327.801 234.204 327.499 234.549C326.853 235.238 326.035 235.496 325.303 235.712C325.131 235.755 324.915 235.841 324.743 235.884C311.649 240.837 298.513 245.747 285.419 250.701L280.638 252.51C280.509 252.553 280.423 252.553 280.294 252.553Z" fill="#0A5859"/>
<path d="M395.851 270.772C392.75 270.772 389.692 270.47 386.634 269.867C384.911 269.523 383.232 269.092 381.595 268.618C378.709 267.757 375.996 266.421 373.541 264.613C371.861 263.45 370.44 261.856 369.406 260.09C367.898 257.377 367.855 254.491 369.406 251.605C369.923 250.701 370.526 249.839 371.215 249.064C372.464 247.599 373.928 246.35 375.651 245.446C375.91 245.317 376.125 245.231 376.383 245.231C376.9 245.231 377.288 245.532 377.46 246.006C378.063 247.643 378.235 249.365 377.977 251.088C377.891 251.648 377.245 251.993 376.814 251.993H376.728C376.513 251.95 376.297 251.95 376.082 251.907C376.9 252.725 378.02 253.242 379.312 253.802C383.619 255.783 388.185 256.774 392.923 256.774C393.999 256.774 395.076 256.73 396.153 256.601C399.599 256.257 403.001 255.568 406.318 254.62C408.6 253.974 410.84 253.199 413.037 252.337C413.984 251.95 414.932 251.476 415.793 250.916C416.138 250.701 416.439 250.399 416.612 250.055C416.612 250.055 416.612 250.011 416.569 250.011V249.968C416.353 249.322 416.009 249.193 415.578 249.193H414.975C414.243 249.193 413.855 248.892 413.683 248.633C413.252 248.073 413.381 247.298 413.554 246.781C413.769 245.963 414.372 245.489 415.061 245.489C415.32 245.489 415.578 245.532 415.793 245.661C417.042 246.264 418.421 246.953 419.325 248.375C420.316 249.193 421.134 250.141 421.823 251.174C423.632 253.974 423.805 256.946 422.254 259.961C421.479 261.382 420.488 262.631 419.282 263.622C417.301 265.388 415.018 266.766 412.52 267.714C407.222 269.738 401.58 270.772 395.851 270.772Z" fill="#F7F6F5"/>
<path d="M395.465 322.629C394 322.629 392.536 322.371 391.157 321.897C390.856 321.768 390.554 321.595 390.339 321.337C389.908 320.863 389.822 320.131 390.21 319.528C390.425 319.184 390.641 318.839 390.813 318.494C391.157 317.934 391.502 317.331 391.847 316.728C392.751 315.135 393.354 313.369 393.656 311.56C393.828 310.526 393.699 309.449 393.311 308.502C393.225 308.373 393.139 308.243 393.053 308.157C393.01 308.243 393.01 308.33 393.01 308.416V308.717C393.268 312.378 391.545 315.264 389.995 317.331C388.918 318.796 387.583 320.002 386.118 321.036C384.697 321.983 383.06 322.5 381.337 322.5C379.658 322.5 378.021 322.026 376.599 321.079C374.618 319.743 372.981 318.064 371.732 316.039C370.871 314.661 370.268 313.154 369.923 311.56C369.407 309.406 369.062 307.167 368.89 304.97C368.674 300.534 367.727 296.227 366.09 292.135C365.789 291.403 365.487 290.627 365.099 289.938C365.143 290.197 365.229 290.412 365.272 290.67V290.757C365.358 291.532 364.97 292.307 364.281 292.738C364.281 292.738 364.238 292.738 364.238 292.781C363.377 293.255 362.429 293.513 361.438 293.513C361.18 293.513 360.922 293.513 360.663 293.47C360.62 293.47 360.534 293.427 360.491 293.427C360.232 293.341 360.017 293.212 359.759 293.039C359.629 292.996 359.457 292.953 359.328 292.91C359.026 292.824 358.768 292.738 358.51 292.652C356.744 292.049 355.365 290.714 354.676 288.991C353.858 287.096 353.47 284.985 353.643 282.918C353.944 277.017 356.571 271.547 360.922 267.584C361.223 267.326 361.568 267.068 361.869 266.809L362.128 266.637C363.85 265.259 366.09 264.483 368.33 264.483C369.019 264.483 369.708 264.569 370.397 264.699C370.957 264.828 371.517 265.043 372.034 265.431C375.781 268.187 380.39 269.996 386.463 271.073C389.392 271.59 392.407 271.848 395.378 271.848C400.762 271.848 406.103 270.987 411.229 269.307C413.124 268.661 414.976 267.8 416.742 266.852C416.785 266.809 416.871 266.809 416.914 266.766C417.172 266.637 417.431 266.594 417.689 266.594C418.464 266.594 419.154 267.024 419.455 267.714C421.35 271.332 422.772 275.165 423.719 279.127C424.753 283.391 425.27 287.742 425.227 292.135C425.184 294.805 424.925 297.476 424.451 300.06C423.848 303.635 422.729 307.081 421.092 310.311C420.015 312.507 418.551 314.446 416.742 316.039C415.493 317.202 413.899 317.978 412.176 318.236C412.004 318.279 411.788 318.279 411.659 318.279H411.53C410.927 318.279 410.626 317.978 410.496 317.762L410.453 317.719C410.281 317.418 410.023 316.901 410.281 316.384C410.496 315.953 410.712 315.566 410.927 315.135C411.186 314.661 411.401 314.23 411.616 313.8L411.875 313.283C412.305 312.335 412.736 311.431 412.693 310.44C412.693 310.182 412.779 309.966 412.951 309.794C413.167 309.579 413.21 309.277 413.081 309.019C412.951 308.76 412.994 308.459 413.124 308.243C413.511 307.554 413.425 306.736 413.296 305.831C413.253 305.53 413.21 305.185 413.167 304.841C413.124 304.195 412.994 303.549 412.779 302.946C412.951 304.152 413.167 305.315 413.339 306.521C413.382 306.65 413.339 306.779 413.296 306.908C413.038 307.77 412.822 308.502 412.65 309.277C411.272 315.221 405.457 321.682 396.972 322.5C396.412 322.629 395.938 322.629 395.465 322.629ZM190.145 193.588H190.059C189.714 193.545 189.413 193.287 189.327 192.942C188.939 191.392 188.336 189.798 187.776 188.291L186.742 185.448C186.699 185.276 186.527 184.802 186.355 184.199C185.881 182.605 184.503 177.954 183.9 176.791H183.469C180.54 176.791 177.525 177.092 174.553 177.437C173.132 177.566 171.711 177.738 170.289 177.867H170.203C169.859 177.867 169.514 177.652 169.385 177.308C169.256 176.963 169.385 176.532 169.686 176.317C169.686 176.317 178.99 169.727 179.033 169.684C178.171 167.057 177.224 164.515 175.587 162.448C173.907 160.294 171.581 158.916 169.385 158.744C169.04 158.701 168.739 158.485 168.609 158.141C168.48 157.796 168.609 157.409 168.911 157.193C171.883 154.911 175.458 153.662 179.205 153.532H179.334C192.126 153.532 198.759 163.956 199.621 185.362C199.621 185.749 199.405 186.094 199.018 186.223C197.855 186.568 196.735 187.128 195.701 187.774C194.754 188.377 193.892 189.109 193.117 189.927C192.342 190.746 191.696 191.65 191.136 192.641L191.093 192.727C191.006 192.856 190.92 193.028 190.877 193.158C190.748 193.373 190.446 193.588 190.145 193.588ZM261.729 186.439C261.643 186.439 261.514 186.439 261.428 186.396C257.207 184.759 252.77 183.94 248.248 183.94C247.774 183.94 247.429 183.596 247.386 183.122L247.343 182.519C247.085 178.04 246.87 173.819 246.439 169.512C243.553 168.736 240.452 168.22 237.437 167.746C236.059 167.53 234.637 167.315 233.216 167.057C232.828 166.97 232.527 166.669 232.527 166.281C232.527 165.894 232.742 165.549 233.087 165.42L243.855 161.457C243.682 158.701 243.424 155.987 242.433 153.575C241.873 152.154 240.969 150.905 239.849 149.871C239.634 149.656 239.504 149.354 239.591 149.053C239.677 148.751 239.892 148.493 240.194 148.407C240.409 148.364 240.624 148.278 240.84 148.235C241.83 148.019 242.864 147.89 243.941 147.89C248.808 147.89 253.718 150.259 257.164 154.221C264.055 162.19 264.486 175.757 262.59 185.793C262.547 186.051 262.375 186.266 262.16 186.396C262.031 186.396 261.858 186.439 261.729 186.439Z" fill="#F7F6F5"/>
<path d="M137.124 315.695C137.167 315.652 137.253 315.609 137.296 315.523C137.21 315.609 137.124 315.695 136.995 315.781C137.038 315.738 137.081 315.695 137.124 315.695ZM268.405 189.238C270.386 190.66 272.023 192.469 273.315 194.536C269.352 191.909 265.131 190.401 260.824 189.41C256.517 188.463 252.081 188.032 247.687 188.075C246.266 188.075 244.845 188.161 243.423 188.291C242.131 188.42 240.71 188.635 239.202 188.808C237.695 188.98 236.144 189.367 234.637 189.798C230.244 190.918 226.066 192.856 222.405 195.484C223.309 193.847 224.429 192.382 225.764 191.09C224.3 183.467 221.845 171.622 223.482 163.266C223.955 160.897 224.731 158.615 225.764 156.418C227.229 153.145 229.296 150.087 231.708 148.407C234.034 146.296 236.877 144.789 239.935 144.057C247.041 142.377 255.096 145.263 260.35 151.379C268.577 160.897 268.878 176.446 266.423 187.86C267.112 188.291 267.759 188.764 268.405 189.238ZM261.729 185.577C263.538 175.886 263.236 162.491 256.517 154.738C252.511 150.087 246.309 147.804 241.054 149.01C240.839 149.053 240.624 149.096 240.408 149.182C241.614 150.302 242.562 151.68 243.208 153.188C244.371 155.944 244.586 159.002 244.716 161.974L243.38 162.491L233.388 166.195C237.953 167.057 242.82 167.53 247.257 168.866C247.731 173.647 247.989 178.341 248.247 183.122C252.856 183.079 257.421 183.94 261.729 185.577ZM214.135 190.401C215.427 192.21 216.03 194.407 215.729 196.603C214.178 192.684 210.905 190.66 207.545 189.798C205.909 189.367 204.229 189.238 202.549 189.497C201.774 189.583 200.955 189.798 200.223 190.1C199.448 190.401 198.759 190.746 198.07 191.219C196.691 192.124 195.485 193.244 194.538 194.622C193.59 196 192.944 197.551 192.686 199.188C192.384 200.954 192.47 202.763 192.858 204.485C193.289 206.38 194.107 208.189 195.227 209.826C193.289 208.836 191.695 207.328 190.618 205.433C189.455 203.452 188.852 201.255 188.766 198.972C188.723 197.809 188.852 196.69 189.154 195.57C189.929 195.484 190.661 195.44 191.48 195.397C190.877 194.967 190.231 194.579 189.542 194.278V194.234C189.843 194.191 190.145 194.148 190.489 194.148C190.403 193.675 190.317 193.244 190.188 192.77C190.274 192.555 190.403 192.382 190.489 192.167C191.092 191.133 191.781 190.186 192.6 189.281C193.418 188.42 194.365 187.645 195.356 186.999C196.476 186.266 197.639 185.706 198.888 185.319C198.888 185.749 198.931 186.137 198.931 186.568L203.97 186.439C203.97 185.879 203.97 185.319 203.884 184.759H203.927C204.487 184.802 205.09 184.888 205.65 185.017C206.77 185.233 207.89 185.62 208.924 186.094C210.991 187.042 212.8 188.506 214.135 190.401Z" fill="#2C2729"/>
<path d="M179.291 149.268C194.581 149.182 202.807 161.113 203.841 184.716C203.238 184.673 202.678 184.673 202.075 184.716C200.999 184.759 199.879 184.974 198.845 185.276C197.984 164.343 191.609 154.221 179.291 154.265C175.716 154.351 172.313 155.557 169.471 157.71C172.141 157.926 174.639 159.605 176.319 161.759C178.128 164.128 179.162 167.014 180.066 169.856C179.678 170.115 179.291 170.416 178.903 170.675L170.203 176.834C174.854 176.446 179.635 175.671 184.287 175.8C184.933 175.8 187.216 184.113 187.56 185.06C188.379 187.515 189.542 190.1 190.145 192.641C189.886 193.115 189.671 193.631 189.499 194.105H189.412L189.499 194.148C189.369 194.536 189.24 194.924 189.154 195.354L189.111 195.44C188.336 195.527 187.603 195.613 186.871 195.785C185.407 196.043 183.985 196.302 182.564 196.689C179.808 197.336 177.094 198.24 174.51 199.36C171.969 200.48 169.557 201.858 167.36 203.581C165.12 205.304 163.182 207.414 161.158 209.955C161.244 206.639 162.45 203.409 164.517 200.824C164.647 200.695 164.733 200.566 164.862 200.394C161.718 194.837 158.746 188.807 157.324 182.175C155.688 174.422 156.635 166.884 159.995 160.941C164.044 153.92 171.624 149.311 179.291 149.268Z" fill="#2C2729"/>
<path d="M203.843 184.759C203.886 185.319 203.886 185.879 203.929 186.439L198.889 186.568C198.889 186.137 198.846 185.749 198.846 185.319C199.88 184.974 201 184.802 202.077 184.716C202.68 184.716 203.24 184.716 203.843 184.759ZM190.448 194.105C190.146 194.148 189.801 194.191 189.5 194.191C189.672 193.675 189.888 193.201 190.146 192.727C190.232 193.158 190.361 193.631 190.448 194.105ZM189.457 194.234C190.146 194.536 190.792 194.881 191.395 195.354C190.577 195.397 189.801 195.44 189.069 195.527L189.112 195.44C189.198 195.01 189.328 194.622 189.457 194.234ZM248.593 220.336C247.301 219.517 246.095 218.57 244.975 217.536C243.856 216.502 242.865 215.339 242.047 214.09C241.142 212.755 240.453 211.291 239.979 209.783C239.462 211.506 239.592 213.358 240.238 214.995C240.884 216.631 241.874 218.139 243.166 219.345C239.032 222.188 234.595 224.513 229.944 226.322C224.991 228.218 219.822 229.38 214.567 229.854C209.356 230.285 204.101 229.768 199.105 228.304C193.979 226.882 189.026 224.513 183.858 222.145C185.796 224.212 187.906 226.107 190.232 227.787C192.558 229.51 195.056 230.931 197.683 232.137C199.148 232.783 200.655 233.343 202.163 233.774C201.732 234.549 201.775 235.583 201.56 236.789C201.043 239.545 199.708 241.44 196.779 242.388C196.391 242.517 195.874 242.819 196.047 243.163C196.09 243.292 196.176 243.379 196.305 243.422L196.391 243.508C209.442 253.543 233.174 249.538 241.357 235.152C243.425 231.534 244.674 226.236 243.597 219.689C244.846 220.766 246.268 221.628 247.818 222.188C249.498 222.834 251.307 222.92 253.03 222.489C251.436 221.929 249.972 221.197 248.593 220.336Z" fill="#2C2729"/>
</g>
</svg>
