<svg width="247" height="78" viewBox="0 0 247 78" fill="none" xmlns="http://www.w3.org/2000/svg">
<path d="M174.741 0.514578H71.965C66.8853 0.514578 62.6412 5.20835 61.542 11.4996H185.164C184.064 5.20835 179.82 0.514578 174.741 0.514578Z" fill="#529395"/>
<path d="M224.649 11.4996H185.164H61.5421H22.0569C15.6588 11.4996 10.4722 16.9133 10.4722 23.5916H236.234C236.234 16.9133 231.047 11.4996 224.649 11.4996Z" fill="#80BBBC"/>
<path d="M239.762 23.5916H236.233H10.4717H6.94315C3.36564 23.5916 0.465332 26.4891 0.465332 30.0634V49.9168H0.557496H10.8754H14.0724H20.1595L23.7598 77.2498H29.3017L25.9018 49.9168H30.7109H87.0409L88.3078 77.2498H93.8499L92.7834 49.9168H97.5925H149.113H153.922L152.856 77.2498H158.398L159.665 49.9168H215.995H220.804L217.404 77.2498H222.946L226.546 49.9168H232.633H235.83H246.148H246.24V30.0634C246.24 26.4891 243.339 23.5916 239.762 23.5916Z" fill="#5FB2B5"/>
</svg>
