<svg width="247" height="304" viewBox="0 0 247 304" fill="none" xmlns="http://www.w3.org/2000/svg">
<path d="M37.5922 292.554L31.7494 228.775H26.2409C20.7553 228.775 16.3081 233.343 16.3081 238.978V293.76C16.3081 299.395 20.7553 303.963 26.2409 303.963H37.2775C39.4963 303.963 41.5382 303.206 43.1917 301.943C40.1097 299.913 37.9557 296.523 37.5922 292.554Z" fill="#191423"/>
<path d="M203.514 301.943C205.167 303.206 207.209 303.963 209.428 303.963H220.465C225.951 303.963 230.398 299.395 230.398 293.76V238.978C230.398 233.343 225.951 228.775 220.465 228.775H214.956L209.114 292.554C208.75 296.523 206.596 299.913 203.514 301.943Z" fill="#191423"/>
<path d="M0.558105 0.916672L11.8269 11.2965L10.8758 0.916672H0.558105Z" fill="#529395"/>
<path d="M234.879 11.2965L246.148 0.916672H246.148H235.83L234.879 11.2965Z" fill="#529395"/>
<path d="M158.547 293.576C157.504 287.568 152.374 283.189 146.38 283.189H100.326C94.3312 283.189 89.2015 287.568 88.158 293.576C88.0866 293.987 87.9922 294.388 87.8838 294.783C91.5262 299.077 97.2121 301.803 103.529 301.803H143.176C149.493 301.803 155.179 299.077 158.821 294.783C158.713 294.388 158.619 293.987 158.547 293.576Z" fill="#529395"/>
<path d="M232.633 0.916672L228.981 40.79C174.335 17.6812 102.234 54.2832 64.7858 125.622C30.2121 191.484 36.8097 264.789 77.4498 300.657C76.9731 300.735 76.4868 300.782 75.9906 300.782H49.8957C45.134 300.782 41.2079 297.12 40.7628 292.264L14.073 0.916672H10.876L11.8269 11.2965L31.7497 228.775L37.5925 292.554C37.956 296.523 40.1102 299.913 43.1922 301.943C45.1303 303.22 47.4325 303.963 49.8955 303.963H75.9908C81.5752 303.963 86.4057 300.161 87.8843 294.783C87.9927 294.388 88.0871 293.987 88.1585 293.576C89.202 287.568 94.3317 283.189 100.326 283.189H146.38C152.374 283.189 157.504 287.568 158.548 293.576C158.619 293.987 158.713 294.388 158.822 294.783C160.301 300.161 165.131 303.963 170.715 303.963H196.81C199.273 303.963 201.576 303.22 203.514 301.943C206.596 299.913 208.75 296.524 209.113 292.554L214.956 228.775L234.879 11.2967L235.83 0.916839H232.633V0.916672Z" fill="#80BBBC"/>
<path d="M168.47 298.708C182.556 298.822 196.012 300.697 199.774 296.124C208.244 285.828 226.32 51.8401 226.32 51.8401C197.395 296.124 168.47 298.708 168.47 298.708Z" fill="#5FB2B5"/>
<path d="M40.7627 292.264C41.2078 297.12 45.1338 300.782 49.8956 300.782H75.9905C76.4867 300.782 76.9729 300.735 77.4497 300.657C36.8096 264.789 30.212 191.485 64.7857 125.622C102.234 54.2836 174.335 17.6815 228.981 40.7904L232.633 0.916992H226.546L222.946 28.2499H217.404L215.995 0.916992H159.665L158.398 28.2499H152.856L149.114 0.916992H97.5926L93.8502 28.2499H88.3081L87.0412 0.916992H30.7112L29.302 28.2499H23.7601L20.1598 0.916992H14.0728L40.7627 292.264Z" fill="#529395"/>
<path d="M25.9023 0.916672L29.3022 28.2498L30.7112 0.916672H25.9023Z" fill="#529395"/>
<path d="M92.7837 0.916672L93.8502 28.2498L97.5927 0.916672H92.7837Z" fill="#529395"/>
<path d="M220.803 0.916672H215.994L217.403 28.2498L220.803 0.916672Z" fill="#529395"/>
<path d="M153.922 0.916672H149.113L152.856 28.2498L153.922 0.916672Z" fill="#529395"/>
<path d="M155.322 253.569L154.079 248.256C151.892 238.04 143.623 233.3 134.3 234.166C131.071 234.188 115.635 234.188 112.406 234.166C103.083 233.3 94.8135 238.04 92.6264 248.256L91.3837 253.569C88.8597 264.161 83.9896 285.484 81.6172 296.124C88.138 280.96 93.1098 265.388 97.8622 249.689C99.3771 243.822 104.726 240.992 109.85 240.992C113.505 241.083 133.2 241.083 136.855 240.992C142.651 240.992 147.328 243.822 148.843 249.689C153.596 265.388 158.567 280.96 165.088 296.124C162.716 285.484 157.846 264.161 155.322 253.569Z" fill="#529395"/>
<path d="M73.9699 209.99H78.1863C77.472 215.197 73.7856 217.847 69.408 217.847C64.5465 217.847 60.5375 214.529 60.5375 208.17C60.5375 201.949 64.5465 198.47 69.408 198.47C73.8086 198.47 77.2186 201.165 78.0941 205.797H73.7856C73.3017 203.469 71.5507 202.34 69.408 202.34C66.6662 202.34 64.5465 204.184 64.5465 208.17C64.5465 212.179 66.6431 213.999 69.408 213.999C71.735 213.999 73.6704 212.709 73.9699 209.99ZM87.7681 198.47C92.86 198.47 96.6616 202.064 96.6616 208.17C96.6616 214.552 92.6296 217.847 87.7681 217.847C82.9066 217.847 78.8976 214.529 78.8976 208.17C78.8976 201.949 82.9066 198.47 87.7681 198.47ZM87.7681 213.999C90.5559 213.999 92.6296 212.179 92.6296 208.17C92.6296 204.184 90.5329 202.34 87.7681 202.34C85.0263 202.34 82.9066 204.184 82.9066 208.17C82.9066 212.179 85.0033 213.999 87.7681 213.999ZM113.08 198.861H117.412V217.501H113.495V206.833L109.325 217.501H106.237L102.067 206.81V217.501H98.1504V198.861H102.459L107.781 213.538L113.08 198.861ZM119.548 198.861H127.336C131.414 198.861 133.879 201.788 133.879 204.875C133.879 207.962 131.414 210.796 127.359 210.796C123.419 210.796 123.672 210.796 123.672 210.796V217.501H119.548V198.861ZM127.658 207.179C129.11 207.179 130.262 206.303 130.262 204.875C130.262 203.423 129.11 202.479 127.658 202.479H123.672V207.179H127.658ZM143.321 198.47C148.413 198.47 152.214 202.064 152.214 208.17C152.214 214.552 148.182 217.847 143.321 217.847C138.459 217.847 134.45 214.529 134.45 208.17C134.45 201.949 138.459 198.47 143.321 198.47ZM143.321 213.999C146.109 213.999 148.182 212.179 148.182 208.17C148.182 204.184 146.086 202.34 143.321 202.34C140.579 202.34 138.459 204.184 138.459 208.17C138.459 212.179 140.556 213.999 143.321 213.999ZM161.79 206.349C164.786 207.018 168.495 207.847 168.495 211.58C168.495 215.266 165.707 217.847 160.339 217.847C155.869 217.847 153.081 215.243 153.081 211.902V211.534H157.505V211.902C157.505 213.515 159.233 214.068 160.961 214.068C162.597 214.068 164.256 213.584 164.256 211.902C164.256 210.52 162.274 210.059 159.97 209.506C157.044 208.815 153.381 207.939 153.381 204.46C153.381 200.843 156.399 198.493 161.053 198.493C165.339 198.493 168.334 200.958 168.334 204.46V204.829H164.256V204.46C164.256 203.055 162.412 202.202 160.638 202.202C159.44 202.202 157.689 202.778 157.689 204.115C157.689 205.428 159.578 205.866 161.79 206.349ZM169.185 198.861H186.304V202.594H179.806V217.501H175.682V202.594H169.185V198.861Z" fill="#FFFCF3"/>
<path d="M128.823 83.4081H128.616C127.255 83.4837 125.856 84.0715 124.817 85.2206L124.325 101.208L126.82 101.322L131.696 84.2189C130.997 83.7142 130.052 83.4232 129.05 83.4005H128.823V83.4081ZM121.15 93.531C113.552 93.7389 106.351 95.334 100.908 98.3732C94.6936 101.851 90.7472 106.973 90.5469 114.514C97.7705 112.643 103.856 111.206 109.696 111.471C115.688 111.717 121.377 113.833 127.5 118.691C132.603 112.114 138.67 109.297 145.285 109.486C151.56 109.657 155.51 110.545 162.711 114.268C161.502 108.371 159.876 105.177 153.658 101.397C147.761 97.8062 140.22 95.3284 132.396 94.1981L130.373 101.284C131.791 101.057 133.227 100.792 134.701 100.528L135.306 103.892C132.093 104.459 128.729 105.177 125.384 105.196C122.019 105.196 118.58 104.421 115.65 101.964L117.842 99.356C118.825 100.169 119.846 100.755 120.904 101.133L121.15 93.531ZM142.885 112.945C137.801 113.399 133.416 115.988 129.201 122.055L128.124 123.605L126.707 122.395C120.432 117.065 115.272 115.119 109.564 114.873C115.669 123.17 117.842 133.149 117.427 142.146C117.086 149.479 115.159 156.226 112.021 161.046C113.722 161.764 115.48 162.388 117.162 162.709C120.659 163.409 123.701 163.068 126.347 160.214L127.387 159.099L128.616 160.006C131.885 162.445 135.174 162.369 138.784 161.159C140.466 160.592 142.186 159.78 143.887 158.835C136.554 143.866 136.1 128.424 142.885 112.945ZM132.055 130.579C132.055 130.579 135.684 135.058 135.268 137.61C135.117 138.593 134.229 139.727 133.246 139.783C131.923 139.859 130.581 138.479 130.184 137.213C129.523 135.021 132.055 130.579 132.055 130.579ZM124.287 131.184C124.287 131.184 126.877 136.136 125.988 138.479C125.629 139.386 124.571 140.294 123.626 140.142C122.36 139.972 121.339 138.385 121.226 137.1C121.018 134.888 124.287 131.184 124.287 131.184ZM149.916 159.194C146.93 161.065 143.528 163.182 139.842 164.391C136.005 165.658 131.715 165.828 127.784 163.503C124.439 166.376 120.281 166.811 116.501 166.055C112.588 165.28 108.903 163.427 105.879 161.859C102.061 163.352 97.9028 163.976 91.9096 163.9C94.9903 166.111 99.2258 167.945 104.178 169.286C111.208 171.176 119.6 172.121 127.878 172.121C136.138 172.103 144.303 171.139 150.88 169.305C155.662 167.982 159.536 166.149 162.069 164.089C160.028 164.051 158.308 164.108 156.569 163.768C154.244 163.333 152.108 162.01 149.916 159.194Z" fill="white"/>
</svg>
