<svg width="316" height="394" viewBox="0 0 316 394" fill="none" xmlns="http://www.w3.org/2000/svg">
<path d="M72.5922 361.554L66.7494 297.775H61.2409C55.7553 297.775 51.3081 302.343 51.3081 307.978V362.76C51.3081 368.395 55.7553 372.963 61.2409 372.963H72.2775C74.4963 372.963 76.5382 372.206 78.1917 370.943C75.1097 368.913 72.9557 365.523 72.5922 361.554Z" fill="#191423"/>
<path d="M238.514 370.943C240.167 372.206 242.209 372.963 244.428 372.963H255.465C260.951 372.963 265.398 368.395 265.398 362.76V307.978C265.398 302.343 260.951 297.775 255.465 297.775H249.956L244.114 361.554C243.75 365.523 241.596 368.913 238.514 370.943Z" fill="#191423"/>
<path d="M209.741 20.5146H106.965C101.885 20.5146 97.6412 25.2084 96.542 31.4996H220.164C219.064 25.2084 214.82 20.5146 209.741 20.5146Z" fill="#529395"/>
<path d="M35.5581 69.9167L46.8269 80.2965L45.8758 69.9167H35.5581Z" fill="#529395"/>
<path d="M269.879 80.2965L281.148 69.9167H281.148H270.83L269.879 80.2965Z" fill="#529395"/>
<path d="M193.547 362.576C192.504 356.568 187.374 352.189 181.38 352.189H135.326C129.331 352.189 124.202 356.568 123.158 362.576C123.087 362.987 122.992 363.388 122.884 363.783C126.526 368.077 132.212 370.803 138.529 370.803H178.176C184.493 370.803 190.179 368.077 193.821 363.783C193.713 363.388 193.619 362.987 193.547 362.576Z" fill="#529395"/>
<path d="M267.633 69.9167L263.981 109.79C209.335 86.6812 137.234 123.283 99.7858 194.622C65.2121 260.484 71.8097 333.789 112.45 369.657C111.973 369.735 111.487 369.782 110.991 369.782H84.8957C80.134 369.782 76.2079 366.12 75.7628 361.264L49.073 69.9167H45.876L46.8269 80.2965L66.7497 297.775L72.5925 361.554C72.956 365.523 75.1102 368.913 78.1922 370.943C80.1303 372.22 82.4325 372.963 84.8955 372.963H110.991C116.575 372.963 121.406 369.161 122.884 363.783C122.993 363.388 123.087 362.987 123.158 362.576C124.202 356.568 129.332 352.189 135.326 352.189H181.38C187.374 352.189 192.504 356.568 193.548 362.576C193.619 362.987 193.713 363.388 193.822 363.783C195.301 369.161 200.131 372.963 205.715 372.963H231.81C234.273 372.963 236.576 372.22 238.514 370.943C241.596 368.913 243.75 365.524 244.113 361.554L249.956 297.775L269.879 80.2967L270.83 69.9168H267.633V69.9167Z" fill="#80BBBC"/>
<path d="M203.47 367.708C217.556 367.822 231.012 369.697 234.774 365.124C243.244 354.828 261.32 120.84 261.32 120.84C232.395 365.124 203.47 367.708 203.47 367.708Z" fill="#5FB2B5"/>
<path d="M75.7627 361.264C76.2078 366.12 80.1338 369.782 84.8956 369.782H110.991C111.487 369.782 111.973 369.735 112.45 369.657C71.8096 333.789 65.212 260.485 99.7857 194.622C137.234 123.284 209.335 86.6815 263.981 109.79L267.633 69.917H261.546L257.946 97.2499H252.404L250.995 69.917H194.665L193.398 97.2499H187.856L184.114 69.917H132.593L128.85 97.2499H123.308L122.041 69.917H65.7112L64.302 97.2499H58.7601L55.1598 69.917H49.0728L75.7627 361.264Z" fill="#529395"/>
<path d="M259.649 31.4996H220.164H96.5421H57.0569C50.6588 31.4996 45.4722 36.9133 45.4722 43.5916H271.234C271.234 36.9133 266.047 31.4996 259.649 31.4996Z" fill="#80BBBC"/>
<path d="M60.9023 69.9167L64.3022 97.2498L65.7112 69.9167H60.9023Z" fill="#529395"/>
<path d="M127.784 69.9167L128.85 97.2498L132.593 69.9167H127.784Z" fill="#529395"/>
<path d="M255.803 69.9167H250.994L252.403 97.2498L255.803 69.9167Z" fill="#529395"/>
<path d="M188.922 69.9167H184.113L187.856 97.2498L188.922 69.9167Z" fill="#529395"/>
<path d="M274.762 43.5916H271.233H45.4717H41.9432C38.3656 43.5916 35.4653 46.4891 35.4653 50.0634V69.9168H35.5575H45.8754H49.0724H55.1595L58.7598 97.2498H64.3017L60.9018 69.9168H65.7109H122.041L123.308 97.2498H128.85L127.783 69.9168H132.592H184.113H188.922L187.856 97.2498H193.398L194.665 69.9168H250.995H255.804L252.404 97.2498H257.946L261.546 69.9168H267.633H270.83H281.148H281.24V50.0634C281.24 46.4891 278.339 43.5916 274.762 43.5916Z" fill="#5FB2B5"/>
<path d="M190.322 322.569L189.079 317.256C186.892 307.04 178.623 302.3 169.3 303.166C166.071 303.188 150.635 303.188 147.406 303.166C138.083 302.3 129.813 307.04 127.626 317.256L126.384 322.569C123.86 333.161 118.99 354.484 116.617 365.124C123.138 349.96 128.11 334.388 132.862 318.689C134.377 312.822 139.726 309.992 144.85 309.992C148.505 310.083 168.2 310.083 171.855 309.992C177.651 309.992 182.328 312.822 183.843 318.689C188.596 334.388 193.567 349.96 200.088 365.124C197.716 354.484 192.846 333.161 190.322 322.569Z" fill="#529395"/>
<path d="M108.97 278.99H113.186C112.472 284.197 108.786 286.847 104.408 286.847C99.5465 286.847 95.5375 283.529 95.5375 277.17C95.5375 270.949 99.5465 267.47 104.408 267.47C108.809 267.47 112.219 270.165 113.094 274.797H108.786C108.302 272.469 106.551 271.34 104.408 271.34C101.666 271.34 99.5465 273.184 99.5465 277.17C99.5465 281.179 101.643 282.999 104.408 282.999C106.735 282.999 108.67 281.709 108.97 278.99ZM122.768 267.47C127.86 267.47 131.662 271.064 131.662 277.17C131.662 283.552 127.63 286.847 122.768 286.847C117.907 286.847 113.898 283.529 113.898 277.17C113.898 270.949 117.907 267.47 122.768 267.47ZM122.768 282.999C125.556 282.999 127.63 281.179 127.63 277.17C127.63 273.184 125.533 271.34 122.768 271.34C120.026 271.34 117.907 273.184 117.907 277.17C117.907 281.179 120.003 282.999 122.768 282.999ZM148.08 267.861H152.412V286.501H148.495V275.833L144.325 286.501H141.237L137.067 275.81V286.501H133.15V267.861H137.459L142.781 282.538L148.08 267.861ZM154.548 267.861H162.336C166.414 267.861 168.879 270.788 168.879 273.875C168.879 276.962 166.414 279.796 162.359 279.796C158.419 279.796 158.672 279.796 158.672 279.796V286.501H154.548V267.861ZM162.658 276.179C164.11 276.179 165.262 275.303 165.262 273.875C165.262 272.423 164.11 271.479 162.658 271.479H158.672V276.179H162.658ZM178.321 267.47C183.413 267.47 187.214 271.064 187.214 277.17C187.214 283.552 183.182 286.847 178.321 286.847C173.459 286.847 169.45 283.529 169.45 277.17C169.45 270.949 173.459 267.47 178.321 267.47ZM178.321 282.999C181.109 282.999 183.182 281.179 183.182 277.17C183.182 273.184 181.086 271.34 178.321 271.34C175.579 271.34 173.459 273.184 173.459 277.17C173.459 281.179 175.556 282.999 178.321 282.999ZM196.79 275.349C199.786 276.018 203.495 276.847 203.495 280.58C203.495 284.266 200.707 286.847 195.339 286.847C190.869 286.847 188.081 284.243 188.081 280.902V280.534H192.505V280.902C192.505 282.515 194.233 283.068 195.961 283.068C197.597 283.068 199.256 282.584 199.256 280.902C199.256 279.52 197.274 279.059 194.97 278.506C192.044 277.815 188.381 276.939 188.381 273.46C188.381 269.843 191.399 267.493 196.053 267.493C200.339 267.493 203.334 269.958 203.334 273.46V273.829H199.256V273.46C199.256 272.055 197.412 271.202 195.638 271.202C194.44 271.202 192.689 271.778 192.689 273.115C192.689 274.428 194.578 274.866 196.79 275.349ZM204.185 267.861H221.304V271.594H214.806V286.501H210.682V271.594H204.185V267.861Z" fill="#FFFCF3"/>
<path d="M163.823 152.408H163.616C162.255 152.484 160.856 153.071 159.817 154.221L159.325 170.208L161.82 170.322L166.696 153.219C165.997 152.714 165.052 152.423 164.05 152.4H163.823V152.408ZM156.15 162.531C148.552 162.739 141.351 164.334 135.908 167.373C129.694 170.851 125.747 175.973 125.547 183.514C132.771 181.643 138.856 180.206 144.696 180.471C150.688 180.717 156.377 182.833 162.5 187.691C167.603 181.114 173.67 178.297 180.285 178.486C186.56 178.657 190.51 179.545 197.711 183.268C196.502 177.371 194.876 174.177 188.658 170.397C182.761 166.806 175.22 164.328 167.396 163.198L165.373 170.284C166.791 170.057 168.227 169.792 169.701 169.528L170.306 172.892C167.093 173.459 163.729 174.177 160.384 174.196C157.019 174.196 153.58 173.421 150.65 170.964L152.842 168.356C153.825 169.169 154.846 169.755 155.904 170.133L156.15 162.531ZM177.885 181.945C172.801 182.399 168.416 184.988 164.201 191.055L163.124 192.605L161.707 191.395C155.432 186.065 150.272 184.119 144.564 183.873C150.669 192.17 152.842 202.149 152.427 211.146C152.086 218.479 150.159 225.226 147.021 230.046C148.722 230.764 150.48 231.388 152.162 231.709C155.659 232.409 158.701 232.068 161.347 229.214L162.387 228.099L163.616 229.006C166.885 231.445 170.174 231.369 173.784 230.159C175.466 229.592 177.186 228.78 178.887 227.835C171.554 212.866 171.1 197.424 177.885 181.945ZM167.055 199.579C167.055 199.579 170.684 204.058 170.268 206.61C170.117 207.593 169.229 208.727 168.246 208.783C166.923 208.859 165.581 207.479 165.184 206.213C164.523 204.021 167.055 199.579 167.055 199.579ZM159.287 200.184C159.287 200.184 161.877 205.136 160.988 207.479C160.629 208.386 159.571 209.294 158.626 209.142C157.36 208.972 156.339 207.385 156.226 206.1C156.018 203.888 159.287 200.184 159.287 200.184ZM184.916 228.194C181.93 230.065 178.528 232.182 174.842 233.391C171.005 234.658 166.715 234.828 162.784 232.503C159.439 235.376 155.281 235.811 151.501 235.055C147.588 234.28 143.903 232.427 140.879 230.859C137.061 232.352 132.903 232.976 126.91 232.9C129.99 235.111 134.226 236.945 139.178 238.286C146.208 240.176 154.6 241.121 162.878 241.121C171.138 241.103 179.303 240.139 185.88 238.305C190.662 236.982 194.536 235.149 197.069 233.089C195.028 233.051 193.308 233.108 191.569 232.768C189.244 232.333 187.108 231.01 184.916 228.194Z" fill="white"/>
</svg>
