<svg width="316" height="394" viewBox="0 0 316 394" fill="none" xmlns="http://www.w3.org/2000/svg">
<path d="M71.7816 361.554L65.9388 297.775H60.4303C54.9448 297.775 50.4976 302.343 50.4976 307.978V362.76C50.4976 368.395 54.9448 372.963 60.4303 372.963H71.4669C73.6857 372.963 75.7276 372.206 77.3811 370.943C74.2992 368.913 72.1452 365.523 71.7816 361.554Z" fill="black"/>
<path d="M237.703 370.943C239.356 372.206 241.398 372.963 243.617 372.963H254.654C260.14 372.963 264.587 368.395 264.587 362.76V307.978C264.587 302.343 260.14 297.775 254.654 297.775H249.145L243.303 361.554C242.939 365.523 240.785 368.913 237.703 370.943Z" fill="black"/>
<path d="M208.93 20.5146H106.154C101.075 20.5146 96.8306 25.2084 95.7314 31.4996H219.353C218.254 25.2084 214.01 20.5146 208.93 20.5146Z" fill="#191423"/>
<path d="M34.7476 69.9167L46.0163 80.2965L45.0653 69.9167H34.7476Z" fill="#A2A2A2"/>
<path d="M269.068 80.2965L280.337 69.9167H280.337H270.019L269.068 80.2965Z" fill="#A2A2A2"/>
<path d="M192.737 362.576C191.693 356.568 186.563 352.189 180.569 352.189H134.515C128.521 352.189 123.391 356.568 122.347 362.576C122.276 362.987 122.182 363.388 122.073 363.783C125.716 368.077 131.402 370.803 137.718 370.803H177.366C183.683 370.803 189.368 368.077 193.011 363.783C192.902 363.388 192.808 362.987 192.737 362.576Z" fill="#191423"/>
<path d="M266.822 69.9167L263.17 109.79C208.524 86.6812 136.423 123.283 98.9748 194.622C64.4011 260.484 70.9986 333.789 111.639 369.657C111.162 369.735 110.676 369.782 110.18 369.782H84.0846C79.3229 369.782 75.3968 366.12 74.9518 361.264L48.262 69.9167H45.0649L46.0158 80.2965L65.9387 297.775L71.7815 361.554C72.145 365.523 74.2992 368.913 77.3811 370.943C79.3193 372.22 81.6214 372.963 84.0845 372.963H110.18C115.764 372.963 120.595 369.161 122.073 363.783C122.182 363.388 122.276 362.987 122.347 362.576C123.391 356.568 128.521 352.189 134.515 352.189H180.569C186.563 352.189 191.693 356.568 192.737 362.576C192.808 362.987 192.902 363.388 193.011 363.783C194.49 369.161 199.32 372.963 204.904 372.963H230.999C233.462 372.963 235.765 372.22 237.703 370.943C240.785 368.913 242.939 365.524 243.302 361.554L249.145 297.775L269.068 80.2967L270.019 69.9168H266.822V69.9167Z" fill="#A2A2A2"/>
<path d="M202.659 367.708C216.745 367.822 230.201 369.697 233.963 365.124C242.433 354.828 260.509 120.84 260.509 120.84C231.584 365.124 202.659 367.708 202.659 367.708Z" fill="black"/>
<path d="M74.9517 361.264C75.3967 366.12 79.3228 369.782 84.0845 369.782H110.179C110.676 369.782 111.162 369.735 111.639 369.657C70.9985 333.789 64.401 260.485 98.9746 194.622C136.423 123.284 208.524 86.6815 263.169 109.79L266.822 69.917H260.735L257.135 97.2499H251.593L250.184 69.917H193.854L192.587 97.2499H187.045L183.303 69.917H131.782L128.039 97.2499H122.497L121.23 69.917H64.9002L63.4909 97.2499H57.9491L54.3488 69.917H48.2617L74.9517 361.264Z" fill="#191423"/>
<path d="M258.838 31.4996H219.353H95.7316H56.2464C49.8483 31.4996 44.6616 36.9133 44.6616 43.5916H270.423C270.423 36.9133 265.236 31.4996 258.838 31.4996Z" fill="#A2A2A2"/>
<path d="M60.0918 69.9167L63.4916 97.2498L64.9007 69.9167H60.0918Z" fill="#A2A2A2"/>
<path d="M126.973 69.9167L128.039 97.2498L131.782 69.9167H126.973Z" fill="#A2A2A2"/>
<path d="M254.993 69.9167H250.184L251.593 97.2498L254.993 69.9167Z" fill="#A2A2A2"/>
<path d="M188.111 69.9167H183.302L187.045 97.2498L188.111 69.9167Z" fill="#A2A2A2"/>
<path d="M273.951 43.5916H270.423H44.6611H41.1326C37.5551 43.5916 34.6548 46.4891 34.6548 50.0634V69.9168H34.7469H45.0648H48.2619H54.349L57.9492 97.2498H63.4911L60.0913 69.9168H64.9003H121.23L122.497 97.2498H128.039L126.973 69.9168H131.782H183.303H188.112L187.045 97.2498H192.587L193.854 69.9168H250.184H254.993L251.593 97.2498H257.135L260.736 69.9168H266.822H270.019H280.337H280.43V50.0634C280.429 46.4891 277.529 43.5916 273.951 43.5916Z" fill="black"/>
<path d="M189.511 322.569L188.269 317.256C186.082 307.04 177.812 302.3 168.489 303.166C165.26 303.188 149.824 303.188 146.595 303.166C137.272 302.3 129.003 307.04 126.816 317.256L125.573 322.569C123.049 333.161 118.179 354.484 115.807 365.124C122.327 349.96 127.299 334.388 132.052 318.689C133.567 312.822 138.916 309.992 144.039 309.992C147.695 310.083 167.39 310.083 171.045 309.992C176.84 309.992 181.518 312.822 183.033 318.689C187.785 334.388 192.757 349.96 199.278 365.124C196.906 354.484 192.035 333.161 189.511 322.569Z" fill="#191423"/>
<path d="M185.09 192.539H129.179V230.977C129.179 231.904 129.547 232.793 130.202 233.448C130.858 234.104 131.746 234.472 132.673 234.472H181.595C182.522 234.472 183.411 234.104 184.066 233.448C184.721 232.793 185.09 231.904 185.09 230.977V192.539ZM146.651 220.494C146.651 221.421 146.283 222.31 145.627 222.965C144.972 223.62 144.083 223.989 143.156 223.989C142.23 223.989 141.341 223.62 140.686 222.965C140.03 222.31 139.662 221.421 139.662 220.494V206.517C139.662 205.59 140.03 204.701 140.686 204.046C141.341 203.39 142.23 203.022 143.156 203.022C144.083 203.022 144.972 203.39 145.627 204.046C146.283 204.701 146.651 205.59 146.651 206.517V220.494ZM160.629 220.494C160.629 221.421 160.26 222.31 159.605 222.965C158.95 223.62 158.061 223.989 157.134 223.989C156.207 223.989 155.319 223.62 154.663 222.965C154.008 222.31 153.64 221.421 153.64 220.494V206.517C153.64 205.59 154.008 204.701 154.663 204.046C155.319 203.39 156.207 203.022 157.134 203.022C158.061 203.022 158.95 203.39 159.605 204.046C160.26 204.701 160.629 205.59 160.629 206.517V220.494ZM174.606 220.494C174.606 221.421 174.238 222.31 173.583 222.965C172.927 223.62 172.039 223.989 171.112 223.989C170.185 223.989 169.296 223.62 168.641 222.965C167.986 222.31 167.617 221.421 167.617 220.494V206.517C167.617 205.59 167.986 204.701 168.641 204.046C169.296 203.39 170.185 203.022 171.112 203.022C172.039 203.022 172.927 203.39 173.583 204.046C174.238 204.701 174.606 205.59 174.606 206.517V220.494ZM192.078 175.067V185.55H122.19V175.067C122.19 174.14 122.558 173.251 123.213 172.596C123.869 171.94 124.758 171.572 125.684 171.572H143.156V168.078C143.156 167.151 143.525 166.262 144.18 165.607C144.835 164.952 145.724 164.583 146.651 164.583H167.617C168.544 164.583 169.433 164.952 170.088 165.607C170.744 166.262 171.112 167.151 171.112 168.078V171.572H188.584C189.511 171.572 190.4 171.94 191.055 172.596C191.71 173.251 192.078 174.14 192.078 175.067Z" fill="white"/>
<path d="M105.106 276.317H114.207V280.05H100.982V261.41H105.106V276.317ZM127.244 280.05L125.792 276.202H118.926L117.475 280.05H113.558L120.401 261.41H124.733L131.184 280.05H127.244ZM120.217 272.769H124.502L122.359 267.101L120.217 272.769ZM144.283 261.41H148.108V280.05H144.283L135.251 267.378L135.136 280.05H131.335V261.41H135.136L144.283 273.99V261.41ZM157.4 261.41C162.284 261.41 166.27 265.58 166.27 270.718C166.27 275.879 162.284 280.05 157.4 280.05H150.257V261.41H157.4ZM154.381 265.097V276.363H157.538C159.934 276.363 162.008 273.99 162.261 271.294C162.261 271.271 162.261 271.271 162.261 271.271C162.261 271.225 162.261 271.202 162.261 271.156C162.284 271.018 162.284 270.88 162.284 270.718C162.284 270.672 162.284 270.626 162.284 270.557C162.192 267.677 160.049 265.097 157.538 265.097H154.381ZM171.797 280.05H167.672V261.41H180.782V265.143H171.797V268.46H178.732V272.193H171.797V280.05ZM185.627 261.41V280.05H181.802V261.41H185.627ZM191.889 276.317H200.99V280.05H187.765V261.41H191.889V276.317ZM206.109 276.317H215.21V280.05H201.985V261.41H206.109V276.317Z" fill="#FFFCF3"/>
</svg>
