<svg width="247" height="304" viewBox="0 0 247 304" fill="none" xmlns="http://www.w3.org/2000/svg">
<path d="M37.7816 292.554L31.9388 228.775H26.4303C20.9448 228.775 16.4976 233.343 16.4976 238.978V293.76C16.4976 299.395 20.9448 303.963 26.4303 303.963H37.4669C39.6857 303.963 41.7276 303.206 43.3811 301.943C40.2992 299.913 38.1452 296.523 37.7816 292.554Z" fill="black"/>
<path d="M203.703 301.943C205.356 303.206 207.398 303.963 209.617 303.963H220.654C226.14 303.963 230.587 299.395 230.587 293.76V238.978C230.587 233.343 226.14 228.775 220.654 228.775H215.145L209.303 292.554C208.939 296.523 206.785 299.913 203.703 301.943Z" fill="black"/>
<path d="M0.747559 0.916672L12.0163 11.2965L11.0653 0.916672H0.747559Z" fill="#A2A2A2"/>
<path d="M235.068 11.2965L246.337 0.916672H246.337H236.019L235.068 11.2965Z" fill="#A2A2A2"/>
<path d="M158.737 293.576C157.693 287.568 152.563 283.189 146.569 283.189H100.515C94.5207 283.189 89.391 287.568 88.3474 293.576C88.276 293.987 88.1817 294.388 88.0732 294.783C91.7157 299.077 97.4015 301.803 103.718 301.803H143.366C149.683 301.803 155.368 299.077 159.011 294.783C158.902 294.388 158.808 293.987 158.737 293.576Z" fill="#191423"/>
<path d="M232.822 0.916672L229.17 40.79C174.524 17.6812 102.423 54.2832 64.9748 125.622C30.4011 191.484 36.9986 264.789 77.6388 300.657C77.162 300.735 76.6758 300.782 76.1796 300.782H50.0846C45.3229 300.782 41.3968 297.12 40.9518 292.264L14.262 0.916672H11.0649L12.0158 11.2965L31.9387 228.775L37.7815 292.554C38.145 296.523 40.2992 299.913 43.3811 301.943C45.3193 303.22 47.6214 303.963 50.0845 303.963H76.1798C81.7642 303.963 86.5946 300.161 88.0733 294.783C88.1817 294.388 88.276 293.987 88.3474 293.576C89.391 287.568 94.5207 283.189 100.515 283.189H146.569C152.563 283.189 157.693 287.568 158.737 293.576C158.808 293.987 158.902 294.388 159.011 294.783C160.49 300.161 165.32 303.963 170.904 303.963H196.999C199.462 303.963 201.765 303.22 203.703 301.943C206.785 299.913 208.939 296.524 209.302 292.554L215.145 228.775L235.068 11.2967L236.019 0.916839H232.822V0.916672Z" fill="#A2A2A2"/>
<path d="M168.659 298.708C182.745 298.822 196.201 300.697 199.963 296.124C208.433 285.828 226.509 51.8401 226.509 51.8401C197.584 296.124 168.659 298.708 168.659 298.708Z" fill="black"/>
<path d="M40.9517 292.264C41.3967 297.12 45.3228 300.782 50.0845 300.782H76.1795C76.6757 300.782 77.1619 300.735 77.6387 300.657C36.9985 264.789 30.401 191.485 64.9746 125.622C102.423 54.2836 174.524 17.6815 229.169 40.7904L232.822 0.916992H226.735L223.135 28.2499H217.593L216.184 0.916992H159.854L158.587 28.2499H153.045L149.303 0.916992H97.7816L94.0391 28.2499H88.4971L87.2302 0.916992H30.9002L29.4909 28.2499H23.9491L20.3488 0.916992H14.2617L40.9517 292.264Z" fill="#191423"/>
<path d="M26.0918 0.916672L29.4916 28.2498L30.9007 0.916672H26.0918Z" fill="#A2A2A2"/>
<path d="M92.9727 0.916672L94.0391 28.2498L97.7817 0.916672H92.9727Z" fill="#A2A2A2"/>
<path d="M220.993 0.916672H216.184L217.593 28.2498L220.993 0.916672Z" fill="#A2A2A2"/>
<path d="M154.111 0.916672H149.302L153.045 28.2498L154.111 0.916672Z" fill="#A2A2A2"/>
<path d="M155.511 253.569L154.269 248.256C152.082 238.04 143.812 233.3 134.489 234.166C131.26 234.188 115.825 234.188 112.595 234.166C103.272 233.3 95.0029 238.04 92.8158 248.256L91.5732 253.569C89.0492 264.161 84.179 285.484 81.8066 296.124C88.3275 280.96 93.2993 265.388 98.0517 249.689C99.5665 243.822 104.916 240.992 110.039 240.992C113.695 241.083 133.39 241.083 137.045 240.992C142.84 240.992 147.518 243.822 149.033 249.689C153.785 265.388 158.757 280.96 165.278 296.124C162.906 285.484 158.035 264.161 155.511 253.569Z" fill="#191423"/>
<path d="M151.09 123.539H95.1788V161.977C95.1788 162.904 95.5469 163.793 96.2023 164.448C96.8576 165.104 97.7464 165.472 98.6732 165.472H147.595C148.522 165.472 149.411 165.104 150.066 164.448C150.721 163.793 151.09 162.904 151.09 161.977V123.539ZM112.651 151.494C112.651 152.421 112.283 153.31 111.627 153.965C110.972 154.62 110.083 154.989 109.156 154.989C108.23 154.989 107.341 154.62 106.686 153.965C106.03 153.31 105.662 152.421 105.662 151.494V137.517C105.662 136.59 106.03 135.701 106.686 135.046C107.341 134.39 108.23 134.022 109.156 134.022C110.083 134.022 110.972 134.39 111.627 135.046C112.283 135.701 112.651 136.59 112.651 137.517V151.494ZM126.629 151.494C126.629 152.421 126.26 153.31 125.605 153.965C124.95 154.62 124.061 154.989 123.134 154.989C122.207 154.989 121.319 154.62 120.663 153.965C120.008 153.31 119.64 152.421 119.64 151.494V137.517C119.64 136.59 120.008 135.701 120.663 135.046C121.319 134.39 122.207 134.022 123.134 134.022C124.061 134.022 124.95 134.39 125.605 135.046C126.26 135.701 126.629 136.59 126.629 137.517V151.494ZM140.606 151.494C140.606 152.421 140.238 153.31 139.583 153.965C138.927 154.62 138.039 154.989 137.112 154.989C136.185 154.989 135.296 154.62 134.641 153.965C133.986 153.31 133.617 152.421 133.617 151.494V137.517C133.617 136.59 133.986 135.701 134.641 135.046C135.296 134.39 136.185 134.022 137.112 134.022C138.039 134.022 138.927 134.39 139.583 135.046C140.238 135.701 140.606 136.59 140.606 137.517V151.494ZM158.078 106.067V116.55H88.1899V106.067C88.1899 105.14 88.5581 104.251 89.2134 103.596C89.8688 102.94 90.7576 102.572 91.6844 102.572H109.156V99.0779C109.156 98.1511 109.525 97.2623 110.18 96.607C110.835 95.9516 111.724 95.5835 112.651 95.5835H133.617C134.544 95.5835 135.433 95.9516 136.088 96.607C136.744 97.2623 137.112 98.1511 137.112 99.0779V102.572H154.584C155.511 102.572 156.4 102.94 157.055 103.596C157.71 104.251 158.078 105.14 158.078 106.067Z" fill="white"/>
<path d="M71.1061 207.317H80.207V211.05H66.9819V192.41H71.1061V207.317ZM93.2439 211.05L91.7924 207.202H84.9264L83.4749 211.05H79.558L86.401 192.41H90.7325L97.1838 211.05H93.2439ZM86.2167 203.769H90.5021L88.3594 198.101L86.2167 203.769ZM110.283 192.41H114.108V211.05H110.283L101.251 198.378L101.136 211.05H97.3346V192.41H101.136L110.283 204.99V192.41ZM123.4 192.41C128.284 192.41 132.27 196.58 132.27 201.718C132.27 206.879 128.284 211.05 123.4 211.05H116.257V192.41H123.4ZM120.381 196.097V207.363H123.538C125.934 207.363 128.008 204.99 128.261 202.294C128.261 202.271 128.261 202.271 128.261 202.271C128.261 202.225 128.261 202.202 128.261 202.156C128.284 202.018 128.284 201.88 128.284 201.718C128.284 201.672 128.284 201.626 128.284 201.557C128.192 198.677 126.049 196.097 123.538 196.097H120.381ZM137.797 211.05H133.672V192.41H146.782V196.143H137.797V199.46H144.732V203.193H137.797V211.05ZM151.627 192.41V211.05H147.802V192.41H151.627ZM157.889 207.317H166.99V211.05H153.765V192.41H157.889V207.317ZM172.109 207.317H181.21V211.05H167.985V192.41H172.109V207.317Z" fill="#FFFCF3"/>
</svg>
