<svg width="247" height="78" viewBox="0 0 247 78" fill="none" xmlns="http://www.w3.org/2000/svg">
<path d="M174.93 0.514578H72.1544C67.0747 0.514578 62.8306 5.20835 61.7314 11.4996H185.353C184.254 5.20835 180.01 0.514578 174.93 0.514578Z" fill="#191423"/>
<path d="M224.838 11.4996H185.353H61.7316H22.2464C15.8483 11.4996 10.6616 16.9133 10.6616 23.5916H236.423C236.423 16.9133 231.236 11.4996 224.838 11.4996Z" fill="#A2A2A2"/>
<path d="M239.951 23.5916H236.423H10.6611H7.13261C3.55509 23.5916 0.654785 26.4891 0.654785 30.0634V49.9168H0.746949H11.0648H14.2619H20.349L23.9492 77.2498H29.4911L26.0913 49.9168H30.9003H87.2304L88.4973 77.2498H94.0393L92.9729 49.9168H97.7819H149.303H154.112L153.045 77.2498H158.587L159.854 49.9168H216.184H220.993L217.593 77.2498H223.135L226.736 49.9168H232.822H236.02H246.337H246.43V30.0634C246.429 26.4891 243.529 23.5916 239.951 23.5916Z" fill="black"/>
</svg>
