<svg width="247" height="304" viewBox="0 0 247 304" fill="none" xmlns="http://www.w3.org/2000/svg">
<path d="M37.7948 292.554L31.952 228.775H26.4435C20.9579 228.775 16.5107 233.343 16.5107 238.978V293.76C16.5107 299.395 20.9579 303.963 26.4435 303.963H37.4801C39.6989 303.963 41.7408 303.206 43.3943 301.943C40.3123 299.913 38.1583 296.523 37.7948 292.554Z" fill="#191423"/>
<path d="M203.717 301.943C205.37 303.206 207.412 303.963 209.631 303.963H220.668C226.153 303.963 230.6 299.395 230.6 293.76V238.978C230.6 233.343 226.153 228.775 220.668 228.775H215.159L209.316 292.554C208.953 296.523 206.799 299.913 203.717 301.943Z" fill="#191423"/>
<path d="M0.760742 0.916672L12.0295 11.2965L11.0785 0.916672H0.760742Z" fill="#5B8FCB"/>
<path d="M235.082 11.2965L246.35 0.916672H246.35H236.032L235.082 11.2965Z" fill="#5B8FCB"/>
<path d="M158.75 293.576C157.707 287.568 152.577 283.189 146.582 283.189H100.528C94.5339 283.189 89.4041 287.568 88.3606 293.576C88.2892 293.987 88.1949 294.388 88.0864 294.783C91.7289 299.077 97.4147 301.803 103.731 301.803H143.379C149.696 301.803 155.382 299.077 159.024 294.783C158.916 294.388 158.821 293.987 158.75 293.576Z" fill="#B0D5FA"/>
<path d="M232.836 0.916672L229.183 40.79C174.538 17.6812 102.437 54.2832 64.9884 125.622C30.4148 191.484 37.0123 264.789 77.6525 300.657C77.1757 300.735 76.6895 300.782 76.1933 300.782H50.0983C45.3366 300.782 41.4105 297.12 40.9655 292.264L14.2757 0.916672H11.0786L12.0295 11.2965L31.9523 228.775L37.7951 292.554C38.1587 296.523 40.3128 299.913 43.3948 301.943C45.3329 303.22 47.6351 303.963 50.0982 303.963H76.1934C81.7778 303.963 86.6083 300.161 88.0869 294.783C88.1954 294.388 88.2897 293.987 88.3611 293.576C89.4047 287.568 94.5344 283.189 100.529 283.189H146.583C152.577 283.189 157.707 287.568 158.75 293.576C158.822 293.987 158.916 294.388 159.024 294.783C160.503 300.161 165.333 303.963 170.918 303.963H197.013C199.476 303.963 201.778 303.22 203.716 301.943C206.798 299.913 208.952 296.524 209.316 292.554L215.159 228.775L235.082 11.2967L236.032 0.916839H232.836V0.916672Z" fill="#5B8FCB"/>
<path d="M168.673 298.708C182.759 298.822 196.215 300.697 199.977 296.124C208.446 285.828 226.522 51.8401 226.522 51.8401C197.598 296.124 168.673 298.708 168.673 298.708Z" fill="#9AC5F0"/>
<path d="M40.9653 292.264C41.4104 297.12 45.3365 300.782 50.0982 300.782H76.1931C76.6893 300.782 77.1756 300.735 77.6523 300.657C37.0122 264.789 30.4146 191.485 64.9883 125.622C102.437 54.2836 174.538 17.6815 229.183 40.7904L232.836 0.916992H226.749L223.149 28.2499H217.607L216.197 0.916992H159.868L158.601 28.2499H153.059L149.316 0.916992H97.7952L94.0528 28.2499H88.5108L87.2439 0.916992H30.9138L29.5046 28.2499H23.9627L20.3625 0.916992H14.2754L40.9653 292.264Z" fill="#B0D5FA"/>
<path d="M103.443 151.264C102.148 153.598 100.261 157.205 100.61 162.56C100.707 164.051 104.659 168.774 107.393 168.774C112.404 168.774 114.91 168.774 119.922 168.774C119.802 161.77 119.743 158.268 119.623 151.264C113.151 151.264 109.915 151.264 103.443 151.264Z" fill="white"/>
<path d="M85.8446 142.334C86.0824 144.777 89.833 153.128 98.1581 162.323C98.5351 152.68 103.735 143.915 110.136 136.431C112.969 137.93 114.373 138.679 117.157 140.177C113.155 133.184 111.073 129.687 106.749 122.694C98.6328 123.334 94.5898 123.654 86.5347 124.293C88.7903 125.422 89.9111 125.987 92.1387 127.116C90.5126 129.653 85.4451 138.231 85.8446 142.334Z" fill="white"/>
<path d="M151.087 169.153C153.21 167.93 159.248 161.285 164.159 149.674C154.69 153.514 144.02 152.758 134.149 150.793C134.079 147.664 134.042 146.099 133.966 142.969C129.648 149.801 127.576 153.216 123.608 160.047C128.213 166.487 130.422 169.707 134.652 176.147C134.612 173.789 134.591 172.61 134.547 170.251C137.545 170.513 147.52 171.207 151.087 169.153Z" fill="white"/>
<path d="M151.433 150.293C154.319 150.41 158.711 150.534 163.794 147.896C165.209 147.162 167.932 141.454 166.538 138.92C163.982 134.273 162.661 131.949 159.934 127.302C153.01 130.753 149.615 132.479 142.962 135.93C146.481 141.675 148.175 144.548 151.433 150.293Z" fill="white"/>
<path d="M134.753 124.424C132.015 126.313 130.662 127.257 127.984 129.145C136.403 129.038 140.615 128.984 149.044 128.876C152.375 120.975 154.107 117.025 157.707 109.125C155.5 110.548 154.404 111.26 152.23 112.683C150.716 109.654 145.282 99.6296 141.136 97.5058C138.667 96.2414 128.595 94.6764 115.313 97.7613C124.982 104.124 130.872 114.374 134.753 124.424Z" fill="white"/>
<path d="M124.53 109.241C122.831 106.612 120.143 102.612 114.426 99.8619C112.835 99.0963 105.928 100.486 104.603 103.347C102.174 108.594 100.998 111.217 98.7246 116.464C106.065 120.062 109.663 121.861 116.713 125.459C119.721 118.972 121.284 115.728 124.53 109.241Z" fill="white"/>
<path d="M26.105 0.916672L29.5048 28.2498L30.9139 0.916672H26.105Z" fill="#5B8FCB"/>
<path d="M92.9863 0.916672L94.0528 28.2498L97.7954 0.916672H92.9863Z" fill="#5B8FCB"/>
<path d="M221.006 0.916672H216.197L217.606 28.2498L221.006 0.916672Z" fill="#5B8FCB"/>
<path d="M154.125 0.916672H149.316L153.058 28.2498L154.125 0.916672Z" fill="#5B8FCB"/>
<path d="M155.524 253.569L154.282 248.256C152.095 238.04 143.825 233.3 134.503 234.166C131.273 234.188 115.838 234.188 112.608 234.166C103.286 233.3 95.0161 238.04 92.829 248.256L91.5864 253.569C89.0624 264.161 84.1922 285.484 81.8198 296.124C88.3407 280.96 93.3124 265.388 98.0649 249.689C99.5797 243.822 104.929 240.992 110.053 240.992C113.708 241.083 133.403 241.083 137.058 240.992C142.853 240.992 147.531 243.822 149.046 249.689C153.798 265.388 158.77 280.96 165.291 296.124C162.919 285.484 158.048 264.161 155.524 253.569Z" fill="#9AC5F0"/>
<path d="M63.7943 205.773L68.195 212.893H63.4487L59.7623 206.188C56.8131 206.188 56.3523 206.188 56.3523 206.188V212.893H52.2282V194.253H60.8452C64.9002 194.253 67.3886 197.179 67.3886 200.267C67.3886 202.64 65.9831 204.944 63.7943 205.773ZM56.3523 202.571H61.1677C62.5962 202.571 63.7713 201.695 63.7713 200.267C63.7713 198.815 62.5962 197.871 61.1677 197.871H56.3523V202.571ZM69.3733 194.253H82.6905V197.986H73.4053V201.304L81.1468 201.35V205.059L73.4053 205.036V209.183H82.6905V212.893H69.3733V194.253ZM97.6182 205.382H101.835C101.12 210.589 97.4338 213.238 93.0562 213.238C88.1947 213.238 84.1857 209.921 84.1857 203.562C84.1857 197.341 88.1947 193.862 93.0562 193.862C97.4569 193.862 100.867 196.557 101.742 201.188H97.4338C96.95 198.861 95.1989 197.732 93.0562 197.732C90.3144 197.732 88.1947 199.576 88.1947 203.562C88.1947 207.571 90.2914 209.391 93.0562 209.391C95.3833 209.391 97.3186 208.101 97.6182 205.382ZM112.415 194.253H117.161L110.779 205.451V212.893H106.862V205.451L100.503 194.253H105.226L108.821 201.557L112.415 194.253ZM129.231 205.382H133.447C132.733 210.589 129.047 213.238 124.669 213.238C119.807 213.238 115.798 209.921 115.798 203.562C115.798 197.341 119.807 193.862 124.669 193.862C129.07 193.862 132.48 196.557 133.355 201.188H129.047C128.563 198.861 126.812 197.732 124.669 197.732C121.927 197.732 119.807 199.576 119.807 203.562C119.807 207.571 121.904 209.391 124.669 209.391C126.996 209.391 128.931 208.101 129.231 205.382ZM138.928 209.16H148.029V212.893H134.804V194.253H138.928V209.16ZM152.848 194.253V212.893H149.024V194.253H152.848ZM167.935 194.253H171.76V212.893H167.935L158.903 200.221L158.788 212.893H154.986V194.253H158.788L167.935 206.833V194.253ZM183.171 203.723H190.797V212.87H188.286L187.94 211.234C186.374 212.57 184.346 213.238 182.134 213.238C177.273 213.238 173.264 209.921 173.264 203.562C173.264 197.341 177.273 193.862 182.134 193.862C186.42 193.862 189.784 196.419 190.728 200.843H186.581C185.844 198.723 184.185 197.732 182.134 197.732C179.393 197.732 177.273 199.599 177.273 203.562C177.273 207.571 179.369 209.391 182.134 209.391C184.07 209.391 185.706 208.492 186.512 206.488H183.171V203.723Z" fill="#FFFCF3"/>
</svg>
