<svg width="316" height="394" viewBox="0 0 316 394" fill="none" xmlns="http://www.w3.org/2000/svg">
<path d="M71.7948 361.554L65.952 297.775H60.4435C54.9579 297.775 50.5107 302.343 50.5107 307.978V362.76C50.5107 368.395 54.9579 372.963 60.4435 372.963H71.4801C73.6989 372.963 75.7408 372.206 77.3943 370.943C74.3123 368.913 72.1583 365.523 71.7948 361.554Z" fill="#191423"/>
<path d="M237.717 370.943C239.37 372.206 241.412 372.963 243.631 372.963H254.668C260.153 372.963 264.6 368.395 264.6 362.76V307.978C264.6 302.343 260.153 297.775 254.668 297.775H249.159L243.316 361.554C242.953 365.523 240.799 368.913 237.717 370.943Z" fill="#191423"/>
<path d="M208.943 20.5146H106.168C101.088 20.5146 96.8438 25.2084 95.7446 31.4996H219.366C218.267 25.2084 214.023 20.5146 208.943 20.5146Z" fill="#B0D5FA"/>
<path d="M34.7607 69.9167L46.0295 80.2965L45.0785 69.9167H34.7607Z" fill="#5B8FCB"/>
<path d="M269.082 80.2965L280.35 69.9167H280.35H270.032L269.082 80.2965Z" fill="#5B8FCB"/>
<path d="M192.75 362.576C191.707 356.568 186.577 352.189 180.582 352.189H134.528C128.534 352.189 123.404 356.568 122.361 362.576C122.289 362.987 122.195 363.388 122.086 363.783C125.729 368.077 131.415 370.803 137.731 370.803H177.379C183.696 370.803 189.382 368.077 193.024 363.783C192.916 363.388 192.821 362.987 192.75 362.576Z" fill="#B0D5FA"/>
<path d="M266.836 69.9167L263.183 109.79C208.538 86.6812 136.437 123.283 98.9884 194.622C64.4148 260.484 71.0123 333.789 111.652 369.657C111.176 369.735 110.689 369.782 110.193 369.782H84.0983C79.3366 369.782 75.4105 366.12 74.9655 361.264L48.2757 69.9167H45.0786L46.0295 80.2965L65.9523 297.775L71.7951 361.554C72.1587 365.523 74.3128 368.913 77.3948 370.943C79.3329 372.22 81.6351 372.963 84.0982 372.963H110.193C115.778 372.963 120.608 369.161 122.087 363.783C122.195 363.388 122.29 362.987 122.361 362.576C123.405 356.568 128.534 352.189 134.529 352.189H180.583C186.577 352.189 191.707 356.568 192.75 362.576C192.822 362.987 192.916 363.388 193.024 363.783C194.503 369.161 199.333 372.963 204.918 372.963H231.013C233.476 372.963 235.778 372.22 237.716 370.943C240.798 368.913 242.952 365.524 243.316 361.554L249.159 297.775L269.082 80.2967L270.032 69.9168H266.836V69.9167Z" fill="#5B8FCB"/>
<path d="M202.673 367.708C216.759 367.822 230.215 369.697 233.977 365.124C242.446 354.828 260.522 120.84 260.522 120.84C231.598 365.124 202.673 367.708 202.673 367.708Z" fill="#9AC5F0"/>
<path d="M74.9653 361.264C75.4104 366.12 79.3365 369.782 84.0982 369.782H110.193C110.689 369.782 111.176 369.735 111.652 369.657C71.0122 333.789 64.4146 260.485 98.9883 194.622C136.437 123.284 208.538 86.6815 263.183 109.79L266.836 69.917H260.749L257.149 97.2499H251.607L250.197 69.917H193.868L192.601 97.2499H187.059L183.316 69.917H131.795L128.053 97.2499H122.511L121.244 69.917H64.9138L63.5046 97.2499H57.9627L54.3625 69.917H48.2754L74.9653 361.264Z" fill="#B0D5FA"/>
<path d="M137.443 220.264C136.148 222.598 134.261 226.205 134.61 231.56C134.707 233.051 138.659 237.774 141.393 237.774C146.404 237.774 148.91 237.774 153.922 237.774C153.802 230.77 153.743 227.268 153.623 220.264C147.151 220.264 143.915 220.264 137.443 220.264Z" fill="white"/>
<path d="M119.845 211.334C120.082 213.777 123.833 222.128 132.158 231.323C132.535 221.68 137.735 212.915 144.136 205.431C146.969 206.93 148.373 207.679 151.157 209.177C147.155 202.184 145.073 198.687 140.749 191.694C132.633 192.334 128.59 192.654 120.535 193.293C122.79 194.422 123.911 194.987 126.139 196.116C124.513 198.653 119.445 207.231 119.845 211.334Z" fill="white"/>
<path d="M185.087 238.153C187.21 236.93 193.248 230.285 198.159 218.674C188.69 222.514 178.02 221.758 168.149 219.793C168.079 216.664 168.042 215.099 167.966 211.969C163.648 218.801 161.576 222.216 157.608 229.047C162.213 235.487 164.422 238.707 168.652 245.147C168.612 242.789 168.591 241.61 168.547 239.251C171.545 239.513 181.52 240.207 185.087 238.153Z" fill="white"/>
<path d="M185.433 219.293C188.319 219.41 192.711 219.534 197.794 216.896C199.209 216.162 201.932 210.454 200.538 207.92C197.982 203.273 196.661 200.949 193.934 196.302C187.01 199.753 183.615 201.479 176.962 204.93C180.481 210.675 182.175 213.548 185.433 219.293Z" fill="white"/>
<path d="M168.753 193.424C166.015 195.313 164.662 196.257 161.984 198.145C170.403 198.038 174.615 197.984 183.044 197.876C186.375 189.975 188.107 186.025 191.707 178.125C189.5 179.548 188.404 180.26 186.23 181.683C184.716 178.654 179.282 168.63 175.136 166.506C172.667 165.241 162.595 163.676 149.313 166.761C158.982 173.124 164.872 183.374 168.753 193.424Z" fill="white"/>
<path d="M158.53 178.241C156.831 175.612 154.143 171.612 148.426 168.862C146.835 168.096 139.928 169.486 138.603 172.347C136.174 177.594 134.998 180.217 132.725 185.464C140.065 189.062 143.663 190.861 150.713 194.459C153.721 187.972 155.284 184.728 158.53 178.241Z" fill="white"/>
<path d="M258.852 31.4996H219.366H95.7448H56.2596C49.8615 31.4996 44.6748 36.9133 44.6748 43.5916H270.436C270.436 36.9133 265.25 31.4996 258.852 31.4996Z" fill="#5B8FCB"/>
<path d="M60.105 69.9167L63.5048 97.2498L64.9139 69.9167H60.105Z" fill="#5B8FCB"/>
<path d="M126.986 69.9167L128.053 97.2498L131.795 69.9167H126.986Z" fill="#5B8FCB"/>
<path d="M255.006 69.9167H250.197L251.606 97.2498L255.006 69.9167Z" fill="#5B8FCB"/>
<path d="M188.125 69.9167H183.316L187.058 97.2498L188.125 69.9167Z" fill="#5B8FCB"/>
<path d="M273.964 43.5916H270.436H44.6743H41.1458C37.5683 43.5916 34.668 46.4891 34.668 50.0634V69.9168H34.7601H45.078H48.2751H54.3622L57.9624 97.2498H63.5043L60.1045 69.9168H64.9135H121.244L122.51 97.2498H128.053L126.986 69.9168H131.795H183.316H188.125L187.058 97.2498H192.601L193.867 69.9168H250.197H255.007L251.607 97.2498H257.148L260.749 69.9168H266.836H270.033H280.351H280.443V50.0634C280.442 46.4891 277.542 43.5916 273.964 43.5916Z" fill="#9AC5F0"/>
<path d="M189.524 322.569L188.282 317.256C186.095 307.04 177.825 302.3 168.503 303.166C165.273 303.188 149.838 303.188 146.608 303.166C137.286 302.3 129.016 307.04 126.829 317.256L125.586 322.569C123.062 333.161 118.192 354.484 115.82 365.124C122.341 349.96 127.312 334.388 132.065 318.689C133.58 312.822 138.929 309.992 144.053 309.992C147.708 310.083 167.403 310.083 171.058 309.992C176.853 309.992 181.531 312.822 183.046 318.689C187.798 334.388 192.77 349.96 199.291 365.124C196.919 354.484 192.048 333.161 189.524 322.569Z" fill="#9AC5F0"/>
<path d="M97.7943 274.773L102.195 281.893H97.4487L93.7623 275.188C90.8131 275.188 90.3523 275.188 90.3523 275.188V281.893H86.2282V263.253H94.8452C98.9002 263.253 101.389 266.179 101.389 269.267C101.389 271.64 99.9831 273.944 97.7943 274.773ZM90.3523 271.571H95.1677C96.5962 271.571 97.7713 270.695 97.7713 269.267C97.7713 267.815 96.5962 266.871 95.1677 266.871H90.3523V271.571ZM103.373 263.253H116.69V266.986H107.405V270.304L115.147 270.35V274.059L107.405 274.036V278.183H116.69V281.893H103.373V263.253ZM131.618 274.382H135.835C135.12 279.589 131.434 282.238 127.056 282.238C122.195 282.238 118.186 278.921 118.186 272.562C118.186 266.341 122.195 262.862 127.056 262.862C131.457 262.862 134.867 265.557 135.742 270.188H131.434C130.95 267.861 129.199 266.732 127.056 266.732C124.314 266.732 122.195 268.576 122.195 272.562C122.195 276.571 124.291 278.391 127.056 278.391C129.383 278.391 131.319 277.101 131.618 274.382ZM146.415 263.253H151.161L144.779 274.451V281.893H140.862V274.451L134.503 263.253H139.226L142.821 270.557L146.415 263.253ZM163.231 274.382H167.447C166.733 279.589 163.047 282.238 158.669 282.238C153.807 282.238 149.798 278.921 149.798 272.562C149.798 266.341 153.807 262.862 158.669 262.862C163.07 262.862 166.48 265.557 167.355 270.188H163.047C162.563 267.861 160.812 266.732 158.669 266.732C155.927 266.732 153.807 268.576 153.807 272.562C153.807 276.571 155.904 278.391 158.669 278.391C160.996 278.391 162.931 277.101 163.231 274.382ZM172.928 278.16H182.029V281.893H168.804V263.253H172.928V278.16ZM186.848 263.253V281.893H183.024V263.253H186.848ZM201.935 263.253H205.76V281.893H201.935L192.903 269.221L192.788 281.893H188.986V263.253H192.788L201.935 275.833V263.253ZM217.171 272.723H224.797V281.87H222.286L221.94 280.234C220.374 281.57 218.346 282.238 216.134 282.238C211.273 282.238 207.264 278.921 207.264 272.562C207.264 266.341 211.273 262.862 216.134 262.862C220.42 262.862 223.784 265.419 224.728 269.843H220.581C219.844 267.723 218.185 266.732 216.134 266.732C213.393 266.732 211.273 268.599 211.273 272.562C211.273 276.571 213.369 278.391 216.134 278.391C218.07 278.391 219.706 277.492 220.512 275.488H217.171V272.723Z" fill="#FFFCF3"/>
</svg>
