<svg width="247" height="78" viewBox="0 0 247 78" fill="none" xmlns="http://www.w3.org/2000/svg">
<path d="M174.943 0.514578H72.1676C67.0879 0.514578 62.8438 5.20835 61.7446 11.4996H185.366C184.267 5.20835 180.023 0.514578 174.943 0.514578Z" fill="#B0D5FA"/>
<path d="M224.852 11.4996H185.366H61.7448H22.2596C15.8615 11.4996 10.6748 16.9133 10.6748 23.5916H236.436C236.436 16.9133 231.25 11.4996 224.852 11.4996Z" fill="#5B8FCB"/>
<path d="M239.964 23.5916H236.436H10.6743H7.14579C3.56827 23.5916 0.667969 26.4891 0.667969 30.0634V49.9168H0.760133H11.078H14.2751H20.3622L23.9624 77.2498H29.5043L26.1045 49.9168H30.9135H87.2436L88.5105 77.2498H94.0525L92.9861 49.9168H97.7951H149.316H154.125L153.058 77.2498H158.601L159.867 49.9168H216.197H221.007L217.607 77.2498H223.148L226.749 49.9168H232.836H236.033H246.351H246.443V30.0634C246.442 26.4891 243.542 23.5916 239.964 23.5916Z" fill="#9AC5F0"/>
</svg>
