<svg width="363" height="258" viewBox="0 0 363 258" fill="none" xmlns="http://www.w3.org/2000/svg">
<g clip-path="url(#clip0_9_65)">
<path d="M11.1845 53.6726C5.9863 54.384 2.34906 59.1748 3.06054 64.3731L20.881 194.573C21.5924 199.771 26.3832 203.409 31.5814 202.697L249.23 172.908C252.4 172.474 255.594 173.509 257.908 175.719L285.837 202.407C292.162 208.451 302.603 203.456 301.867 194.739L300.282 175.97C299.811 170.402 303.784 165.441 309.321 164.683L345.653 159.71C350.852 158.999 354.489 154.208 353.777 149.01L335.957 18.8097C335.245 13.6115 330.455 9.97424 325.256 10.6857L11.1845 53.6726Z" fill="#FFFCF3" stroke="black"/>
<path d="M35.9661 93.9747L33.6923 94.2937L30.5457 71.8613L32.8194 71.5423L35.9661 93.9747ZM56.1527 70.503L46.7527 71.8215L49.5921 92.0634L47.3183 92.3823L44.4789 72.1405L35.1067 73.4551L34.7994 71.2646L55.8454 68.3124L56.1527 70.503ZM73.1451 88.7595L70.8713 89.0785L67.7247 66.6461L69.9984 66.3271L73.1451 88.7595ZM75.7787 71.1711C76.7122 77.826 89.4327 70.9523 90.7046 80.0195C91.113 82.931 89.5545 86.9384 83.5097 87.7863C78.1304 88.5409 74.8446 85.0717 74.3857 81.7997L76.6594 81.4808C76.99 83.8377 79.5861 86.0182 83.4126 85.4814C87.5442 84.9019 88.7503 82.4142 88.4197 80.0573C87.5329 73.7352 74.7808 80.585 73.4933 71.4069C73.0305 68.1072 75.3545 65.1234 80.1238 64.4544C84.5881 63.8282 87.746 66.1844 88.2867 70.0387L86.0129 70.3576C85.6668 67.8898 83.5484 66.2925 80.4428 66.7282C77.3926 67.156 75.4364 68.731 75.7787 71.1711ZM106.452 84.0875L104.178 84.4064L101.031 61.9741L103.305 61.6551L106.452 84.0875ZM119.523 82.2539L108.978 63.5171L111.759 83.343L109.485 83.662L106.339 61.2296L109.971 60.72L120.126 78.8896L124.834 58.6352L128.494 58.1218L131.641 80.5542L129.339 80.877L126.586 61.0473L121.603 81.9622L119.523 82.2539ZM140.617 56.4213C145.386 55.7523 148.443 58.8012 148.895 62.0177C149.346 65.2342 147.285 68.8878 142.488 69.5607L135.667 70.5176L136.974 79.8344L134.672 80.1572L131.522 57.6971L140.617 56.4213ZM142.581 67.2009C144.772 66.8937 147.045 65.1611 146.649 62.3327C146.248 59.4767 143.542 58.3294 141.38 58.6328L134.142 59.648L135.344 68.2161L142.581 67.2009ZM159.553 53.3127C165.958 52.4142 170.744 56.2951 171.755 63.5045C172.961 72.1003 167.93 75.9444 162.828 76.6601C156.395 77.5625 151.622 73.5668 150.626 66.4683C150.116 62.8359 150.778 59.6895 152.506 57.2982C154.124 55.1205 156.614 53.725 159.553 53.3127ZM162.509 74.3864C167.694 73.659 170.298 69.8444 169.454 63.8273C168.473 56.8397 163.92 55.0186 159.872 55.5864C155.796 56.1582 151.955 59.4114 152.9 66.1494C153.872 73.0815 158.433 74.9581 162.509 74.3864ZM185.857 62.9684L192.696 72.0181L190.034 72.3915L183.25 63.334L185.857 62.9684ZM189.961 55.9462C190.622 60.66 187.485 62.4855 185.857 62.9684L178.259 64.0341L176.54 64.2753L177.917 74.0912L175.615 74.414L172.469 51.9816L181.726 50.6548C184.554 50.2581 189.3 51.2323 189.961 55.9462ZM183.625 60.963C186.702 60.5313 188.088 59.1212 187.687 56.2651C187.349 53.8527 184.909 52.5834 182.497 52.9218L175.093 53.9603L176.221 62.0015L183.625 60.963ZM211.882 48.6584L202.482 49.977L205.321 70.2188L203.048 70.5378L200.208 50.2959L190.836 51.6106L190.529 49.4201L211.575 46.4679L211.882 48.6584ZM225.572 60.8186L215.673 62.2071L214.274 68.963L211.89 69.2975L217.145 45.6866L219.668 45.3326L231.216 66.5865L228.776 66.9287L225.572 60.8186ZM218.688 47.6189L216.17 59.9038L224.489 58.7369L218.688 47.6189ZM249.44 64.0302L232.24 46.2268L235.021 66.0527L232.747 66.3717L229.601 43.9393L232.79 43.492L249.962 61.2992L247.181 41.4733L249.454 41.1544L252.601 63.5868L249.44 64.0302ZM272.782 40.1159L263.382 41.4344L266.221 61.6762L263.947 61.9952L261.108 41.7534L251.736 43.068L251.429 40.8775L272.475 37.9253L272.782 40.1159ZM54.8737 99.9663L45.4737 101.285L48.3131 121.527L46.0394 121.846L43.2 101.604L33.8277 102.918L33.5205 100.728L54.5664 97.7757L54.8737 99.9663ZM64.5008 95.9298C70.9061 95.0314 75.6916 98.9122 76.7028 106.122C77.9086 114.717 72.8778 118.562 67.7758 119.277C61.3427 120.18 56.5694 116.184 55.5737 109.085C55.0642 105.453 55.7255 102.307 57.4541 99.9154C59.0712 97.7376 61.5615 96.3421 64.5008 95.9298ZM67.4568 117.004C72.6421 116.276 75.2454 112.462 74.4014 106.444C73.4212 99.4569 68.8681 97.6357 64.8197 98.2036C60.7436 98.7753 56.9023 102.028 57.8474 108.767C58.8198 115.699 63.3807 117.575 67.4568 117.004ZM102.037 102.822L91.6941 104.273L93.2305 115.226L90.9845 115.541L87.8378 93.1087L102.617 91.0355L102.924 93.2261L90.3911 94.9842L91.3907 102.11L101.733 100.66L102.037 102.822ZM109.587 112.932L107.313 113.251L104.166 90.8182L106.44 90.4993L109.587 112.932ZM129.313 110.165L112.113 92.3613L114.894 112.187L112.62 112.506L109.474 90.0738L112.662 89.6265L129.835 107.434L127.054 87.6078L129.327 87.2888L132.474 109.721L129.313 110.165ZM152.73 95.4571C153.598 101.641 149.532 107.328 143.682 108.149L135.502 109.297L132.355 86.8641L140.535 85.7167C146.386 84.896 151.863 89.2736 152.73 95.4571ZM134.905 88.7119L137.444 106.819L143.073 106.029C147.177 105.453 150.751 101.503 150.53 96.6988L150.518 96.6156L150.514 96.5879C150.51 96.5602 150.51 96.5602 150.506 96.5325L150.502 96.5047L150.522 96.4454C150.495 96.2513 150.464 96.0295 150.429 95.7799C150.421 95.7244 150.409 95.6413 150.402 95.5858L150.394 95.5303L150.39 95.5026L150.386 95.4749C149.547 90.5032 144.887 87.3117 140.533 87.9223L134.905 88.7119ZM174.196 91.0889C174.196 91.0889 178.837 90.9185 179.603 96.381C180.265 101.095 177.818 103.813 173.215 104.459C169.028 105.046 165.953 103.074 165.179 99.1678L167.397 98.8567C168.573 101.802 170.076 102.637 173.514 102.155C176.537 101.731 177.699 99.3342 177.279 96.3395C177.011 94.4262 175.23 92.4141 171.626 92.5238L171.346 90.5273C173.791 89.8168 174.781 88.4056 174.551 86.7696C174.162 83.9968 172.505 83.07 170.065 83.4122C168.013 83.7001 167.096 84.8184 166.857 86.7462L164.611 87.0612C164.421 84.0909 166.197 81.6364 169.746 81.1385C174.044 80.5356 176.382 83.0917 176.775 85.8922C177.389 90.2733 174.196 91.0889 174.196 91.0889ZM203.542 99.7523L192.997 81.0155L195.778 100.841L193.504 101.16L190.358 78.728L193.99 78.2184L204.144 96.388L208.853 76.1336L212.513 75.6202L215.659 98.0526L213.358 98.3754L210.605 78.5456L205.622 99.4606L203.542 99.7523ZM230.901 89.3551L221.002 90.7436L219.602 97.4995L217.218 97.834L222.473 74.2231L224.996 73.8691L236.545 95.123L234.104 95.4653L230.901 89.3551ZM224.016 76.1554L221.498 88.4403L229.817 87.2734L224.016 76.1554ZM246.065 84.7398L245.758 82.5493L254.88 81.2696L256.432 92.3333L254.491 92.6056L253.812 90.1844C252.247 92.3266 249.812 93.7143 246.762 94.1422C240.329 95.0446 235.555 91.0489 234.56 83.9504C234.054 80.3457 234.711 77.1716 236.444 74.808C238.061 72.6302 240.547 71.207 243.487 70.7948C248.006 70.1608 251.954 71.8972 254.235 76.6667L251.85 77.0012C250.049 73.6347 246.745 72.6562 243.806 73.0685C239.73 73.6403 235.884 76.8657 236.833 83.6314C237.817 90.6468 242.672 92.3974 246.443 91.8684C249.465 91.4445 253.727 89.5744 252.914 83.7791L246.065 84.7398ZM261.308 91.6493L259.035 91.9682L255.888 69.5359L258.162 69.2169L261.308 91.6493ZM280.941 80.5545L283.27 80.2278C283.02 86.7094 278.633 89.6998 274.196 90.3221C267.763 91.2245 262.986 87.2011 261.99 80.1026C261.485 76.4979 262.142 73.3238 263.875 70.9602C265.492 68.7825 267.978 67.3593 270.917 66.947C276.186 66.208 280.325 68.7092 282.202 73.6201L279.873 73.9469C278.085 69.8716 274.481 68.7656 271.209 69.2246C267.16 69.7925 263.323 73.0734 264.264 79.7837C265.24 86.7435 269.801 88.6202 273.85 88.0523C278.092 87.4572 280.629 84.7828 280.941 80.5545ZM297.839 79.9655L287.94 81.354L286.541 88.1099L284.156 88.4444L289.411 64.8335L291.935 64.4795L303.483 85.7334L301.043 86.0756L297.839 79.9655ZM290.955 66.7658L288.437 79.0507L296.755 77.8838L290.955 66.7658ZM304.113 62.7711L306.957 83.0407L319.629 81.2632L319.932 83.426L305.014 85.5186L301.867 63.0862L304.113 62.7711ZM41.1559 131.174L42.1555 138.301L52.9419 136.788L53.2492 138.978L42.455 140.436L43.6919 149.253L56.5025 147.456L56.8059 149.619L41.7493 151.731L38.6026 129.299L53.6592 127.187L53.9665 129.377L41.1559 131.174ZM58.9372 126.447L61.7804 146.716L74.4524 144.939L74.7558 147.101L59.8378 149.194L56.6912 126.762L58.9372 126.447ZM75.5999 126.343L76.5996 133.469L87.386 131.956L87.6932 134.147L76.8991 135.604L78.1359 144.422L90.9465 142.625L91.2499 144.788L76.1933 146.9L73.0467 124.467L88.1032 122.355L88.4105 124.546L75.5999 126.343ZM104.32 142.954L93.7745 124.218L96.5556 144.044L94.2818 144.362L91.1352 121.93L94.7676 121.421L104.922 139.59L109.63 119.336L113.29 118.822L116.437 141.255L114.135 141.578L111.382 121.748L106.399 142.663L104.32 142.954ZM118.872 120.273L119.871 127.399L130.658 125.886L130.965 128.077L120.171 129.534L121.408 138.352L134.218 136.555L134.522 138.718L119.465 140.83L116.318 118.398L131.375 116.286L131.682 118.476L118.872 120.273ZM154.246 135.951L137.046 118.148L139.827 137.974L137.554 138.293L134.407 115.86L137.596 115.413L154.768 133.22L151.987 113.394L154.26 113.075L157.407 135.508L154.246 135.951ZM177.588 112.037L168.188 113.355L171.027 133.597L168.754 133.916L165.914 113.674L156.542 114.989L156.235 112.798L177.281 109.846L177.588 112.037ZM181.481 114.912C182.415 121.567 195.135 114.693 196.407 123.76C196.816 126.672 195.257 130.679 189.212 131.527C183.833 132.282 180.547 128.812 180.088 125.54L182.362 125.221C182.693 127.578 185.289 129.759 189.115 129.222C193.247 128.643 194.453 126.155 194.122 123.798C193.235 117.476 180.483 124.326 179.196 115.148C178.733 111.848 181.057 108.864 185.826 108.195C190.291 107.569 193.449 109.925 193.989 113.779L191.715 114.098C191.369 111.63 189.251 110.033 186.145 110.469C183.095 110.897 181.139 112.472 181.481 114.912ZM227.033 105.101L217.633 106.419L220.473 126.661L218.199 126.98L215.36 106.738L205.988 108.053L205.68 105.863L226.726 102.91L227.033 105.101ZM236.661 101.064C243.066 100.166 247.851 104.047 248.863 111.256C250.068 119.852 245.038 123.696 239.936 124.412C233.503 125.314 228.729 121.319 227.733 114.22C227.224 110.588 227.885 107.441 229.614 105.05C231.231 102.872 233.721 101.477 236.661 101.064ZM239.617 122.138C244.802 121.411 247.405 117.596 246.561 111.579C245.581 104.592 241.028 102.77 236.979 103.338C232.903 103.91 229.062 107.163 230.007 113.901C230.98 120.833 235.54 122.71 239.617 122.138ZM45.3777 163.287C46.3112 169.942 59.0317 163.068 60.3036 172.136C60.712 175.047 59.1536 179.055 53.1087 179.902C47.7294 180.657 44.4436 177.188 43.9847 173.916L46.2584 173.597C46.589 175.954 49.1851 178.134 53.0116 177.598C57.1432 177.018 58.3493 174.53 58.0187 172.173C57.1319 165.851 44.3798 172.701 43.0923 163.523C42.6295 160.223 44.9535 157.24 49.7228 156.571C54.1871 155.944 57.345 158.301 57.8857 162.155L55.6119 162.474C55.2658 160.006 53.1474 158.409 50.0418 158.844C46.9916 159.272 45.0354 160.847 45.3777 163.287ZM75.3484 169.743L65.4493 171.131L64.0502 177.887L61.6655 178.222L66.9206 154.611L69.4439 154.257L80.9923 175.511L78.5522 175.853L75.3484 169.743ZM68.464 156.543L65.9461 168.828L74.2647 167.661L68.464 156.543ZM92.1614 151.07L94.5738 150.732L89.9603 174.281L86.9102 174.709L75.9679 153.342L78.408 152.999L88.0657 171.861L92.1614 151.07ZM98.6918 152.388L99.6914 159.514L110.478 158.001L110.785 160.191L99.9909 161.649L101.228 170.467L114.038 168.67L114.342 170.833L99.2851 172.945L96.1385 150.512L111.195 148.4L111.502 150.591L98.6918 152.388ZM144.952 145.899L135.552 147.217L138.391 167.459L136.118 167.778L133.278 147.536L123.906 148.851L123.599 146.66L144.645 143.708L144.952 145.899ZM164.274 163.828L162.738 152.876L149.983 154.665L151.519 165.618L149.245 165.937L146.099 143.504L148.372 143.185L149.679 152.502L162.434 150.713L161.127 141.396L163.401 141.077L166.548 163.509L164.274 163.828ZM168.988 142.527L169.988 149.653L180.774 148.14L181.081 150.331L170.287 151.788L171.524 160.606L184.334 158.809L184.638 160.972L169.581 163.084L166.435 140.652L181.491 138.54L181.799 140.73L168.988 142.527ZM222.76 132.751L225.2 132.408L221.553 155.794L218.503 156.222L209.705 137.24L206.469 157.91L203.447 158.334L193.507 136.854L195.919 136.516L204.606 155.513L207.704 134.863L209.34 134.633L210.976 134.404L219.663 153.401L222.76 132.751ZM235.409 130.524C241.814 129.626 246.599 133.506 247.611 140.716C248.816 149.312 243.786 153.156 238.684 153.871C232.251 154.774 227.477 150.778 226.482 143.68C225.972 140.047 226.633 136.901 228.362 134.51C229.979 132.332 232.469 130.936 235.409 130.524ZM238.365 151.598C243.55 150.87 246.153 147.056 245.309 141.039C244.329 134.051 239.776 132.23 235.728 132.798C231.651 133.369 227.81 136.623 228.755 143.361C229.728 150.293 234.289 152.169 238.365 151.598ZM258.046 127.349C264.452 126.45 269.237 130.331 270.248 137.54C271.454 146.136 266.423 149.98 261.321 150.696C254.888 151.598 250.115 147.603 249.119 140.504C248.61 136.872 249.271 133.725 251 131.334C252.617 129.156 255.107 127.761 258.046 127.349ZM261.002 148.422C266.188 147.695 268.791 143.88 267.947 137.863C266.967 130.876 262.414 129.054 258.365 129.622C254.289 130.194 250.448 133.447 251.393 140.185C252.365 147.117 256.926 148.994 261.002 148.422ZM291.333 134.583C292.201 140.766 288.135 146.454 282.285 147.275L274.105 148.422L270.958 125.99L279.138 124.842C284.989 124.022 290.466 128.399 291.333 134.583ZM273.508 127.838L276.047 145.944L281.676 145.155C285.78 144.579 289.354 140.628 289.133 135.824L289.121 135.741L289.117 135.714C289.113 135.686 289.113 135.686 289.109 135.658L289.105 135.63L289.125 135.571C289.098 135.377 289.067 135.155 289.032 134.906C289.024 134.85 289.012 134.767 289.005 134.711L288.997 134.656L288.993 134.628L288.989 134.601C288.15 129.629 283.49 126.437 279.136 127.048L273.508 127.838ZM297.394 145.155L294.427 145.572L293.999 142.521L296.966 142.105L297.394 145.155ZM295.791 133.731L292.824 134.147L292.396 131.097L295.363 130.681L295.791 133.731Z" fill="#2C2729"/>
</g>
<defs>
<clipPath id="clip0_9_65">
<rect width="337" height="214" rx="5" transform="matrix(-0.990763 0.135605 0.135605 0.990763 333.887 0)" fill="white"/>
</clipPath>
</defs>
</svg>
