<svg version="1.2" xmlns="http://www.w3.org/2000/svg" viewBox="0 0 2272 1872" width="2272" height="1872">
	<title>DD Forest Background 60012-ai</title>
	<defs>
		<clipPath clipPathUnits="userSpaceOnUse" id="cp1">
			<path d="m0 0v1872h2272v-1872z"/>
		</clipPath>
	</defs>
	<style>
		.s0 { opacity: .5;fill: #000000 } 
	</style>
	<g id="Capa 1">
		<path id="&lt;Path&gt;" class="s0" d="m1544.6 425.7c-6.9-2.4-10.8 1.5-16.1 5.3-4.8 3.4-8.2 7.9-11.9 12.3q-0.4 0.4-0.8 0.9c1.6 0.4 3 1.1 3.9 2.1 6.8 7.5 13.2 7.2 22.6 6.6 0.2 0 0.5 0.2 0.8 0.4q0-0.1 0.1-0.1c0.7 0.1 1.4 0.2 1.9 0.6 0 0.1 0 0.1 0 0.2q0.3 0.3 0.4 0.7 0.1 0.3-0.1 0.4-0.2 0.2-0.5 0.3c0 0.1-0.1 0.2-0.2 0.3-1.8 1.6-4.4 2.8-6.4 4.2-4.8 3.1-8 5.8-13.8 6.6-11.3 1.6-26.7 4.1-37-2.6-2.1-1.4-4.4-2.6-3.6-5.4 0.2-0.6 0.9-1.4 1.5-1.5q1-0.3 1.8-0.6c0.8-0.7 1.7-1.6 2.7-1.9 1.1-1.3 1.7-2.9 2.8-5 0.1-0.2 0.2-0.3 0.3-0.5-0.6-0.7-1.3-1.5-2.1-2.1-4.6-3.9-9.1-8.2-14.7-10.7-6.5-3-12.8-4-18.7 0.8-3.4 2.8-6.3 7.2-10.7 8.6-9.4 3.1-20.9 5.2-30.8 5.1q-2.1-0.1-4.1-0.1c-2.5 0.5-5.1 0.6-7.6 0q-1.5-0.4-2.9-1c-1-0.1-1.9-0.5-2.6-0.9q-0.8-0.3-1.5-0.5c-1.2-0.3-2.3-1.2-3.3-1.9q-1.4-0.7-2.8-1.3c-0.5-0.3-0.4-1.2 0.2-1.3 0.9-0.1 1.8-0.3 2.7-0.3q0 0 0 0 0.3-0.1 0.6-0.1c6.2-1.5 12.3-6.2 17.2-10.1 3.1-2.5 7.1-4.3 9.9-6.9 6.3-6.1 19.2-9.4 27.6-10.4 13.6-1.7 23.5 7.4 33.7 14.7 3.7 2.7 7.2 6.6 10.5 9.9 1.4 1.5 3 3 4.6 4.7 1.6-0.6 3.3-0.9 4.9-0.9 1.4 0 3.1-0.3 4.8-0.5 3.2-6.6 8.1-12.8 12.5-18 7.3-8.8 13.5-13.9 25.2-14.6q2.6-0.2 5.1-0.1c4.8 0 9.4-0.7 13.6 0.5 1-0.2 2.1-0.3 3.1 0 2.4 0.6 4.7 1.9 7.2 2.7 5.7 1.7 11.2 4.2 16.7 6.4 6.2 2.4 12.1 3.5 18.6 4.2 0.7-0.1 1.3-0.3 2-0.3 0.1-0.1 0.3-0.2 0.4-0.3 0.1 0 0.2 0 0.2 0.2-0.3 1.2-1.2 2.2-2.1 3.1q-0.1 0.1-0.2 0.1c-2.5 4.1-12.8 5.2-16.8 5.6-12 1.4-23.1-1.1-34.8-3.4-4.6-0.9-9.6-2.6-14-4.2z"/>
		<path id="&lt;Path&gt;" class="s0" d="m885.3 418.9c0.1-0.3-0.4-0.4-0.5-0.1-2.7 5.2-9.2 9.3-13.8 12.5-4.8 3.3-8.9 7.2-13.8 10.2-8.6 5.4-18 9.4-27.2 13.7-9.1 4.2-13.7 13.8-20.6 20.2-3.3 3.1-6.9 6-10.3 9.2-1 0.9-2 1.7-3 2.5-18.4 4.9-37.1 11.2-54.5 18.9-5 2.2-10.7 4.3-15.5 7-5.6 3.3-10.5 7.4-16.6 10-8.9 3.7-18.2 5.9-27.7 7.7-0.2 0-0.2 0.5 0 0.5 7.6 1.5 17.6-0.7 24.6-3.4 10.7-4 21.9-6.9 32.3-11.5 10.7-4.7 20.7-10.5 31.1-15.7 5.3-2.6 10.7-4.9 16.2-6.9 0.7 0.2 1.3 0.6 1.8 1.1 0.9 0.9-1.4 4.3-2.1 5.1-2.5 2.9-5.7 4.7-8.5 7.2-0.7 0.2-1.4 0.5-1.9 0.9-0.1 0.1-0.1 0.3 0 0.4 1.4 2.2 7 1.8 9.2 1.9 3.5 0.1 6.9 1.4 10.3 1.5q0.1 0.2 0.2 0.3c1.2 1.7 1.4 3.1 1.6 5.2 0.1 0.9 0.4 1.6 1.1 2.3 0 0.1 0.1 0.1 0.2 0q0 0 0 0c0.1-0.1 0.1-0.2 0-0.2 0.4 0.3 0.5-3 0.5-3 0-1.7-0.3-3.1-1.1-4.7q0 0 0 0 0 0 0.1 0 1.8-0.3 3.4-0.9 0.1 0.2 0.1 0.4c0.2 2.6-1.2 5.4-0.6 7.8 0.1 0.5 0.7 0.6 1 0.3 2.4-2.4 3-6.3 2.3-9.8 2.5-1.4 4.7-3.4 6.2-5.8 1.9-3.1 5.8-7.3 7.3-10.9q0.5-0.5 0.8-1.2c0.1-0.3-0.1-0.5-0.4-0.6-1-0.4-1.2-0.3-2.3 0.1-1.5 0.5-3.1 0.4-4.6 0.4-1.8 0-3.9-0.8-5.4-1.6-0.3-0.1-0.9-0.3-1.5-0.6q-0.1 0-0.2 0c4.3-2.8 8.2-6.5 12.3-9.5 3.8-2.9 6.6-6.7 10.4-9.7 4.5-3.8 10.2-5.6 15-9.2 4.2-3 7.2-7.3 11.5-10.3q6.7-4.6 12.8-9.9c4.9-4.3 9.9-8.8 14.5-13.5 2.1-2.2 5-5.1 5.3-8.3z"/>
		<g id="&lt;Clip Group&gt;" clip-path="url(#cp1)">
		</g>
	</g>
</svg>