<svg version="1.2" xmlns="http://www.w3.org/2000/svg" viewBox="0 0 2272 1872" width="2272" height="1872">
	<title>DD Forest Background 60012-ai</title>
	<defs>
		<clipPath clipPathUnits="userSpaceOnUse" id="cp1">
			<path d="m0 0v1872h2272v-1872z"/>
		</clipPath>
	</defs>
	<style>
		.s0 { fill: #449d9c } 
	</style>
	<g id="Capa 1">
		<g id="&lt;Group&gt;">
			<path id="&lt;Path&gt;" class="s0" d="m106.8 1238.7c8.4-5.9 17.6-9.6 27.6-13.4 10.8-4.1 20.7-2.6 32.9-3.7 12.1-1.1 26.4-1 38.2-3.2 6-1.1 10.9-4.1 16.7-5.3 7.9-1.7 21.3-2.3 27.5 2.5 6.9 5.3 9.7 10.1 20 12.6 14.2 3.3 31.7 0 46.3 0.5 7.1 0.3 9.7 0.9 17 3 19 5.7 37.4 9.3 57.6 11.3 12.7 1.2 31 5.3 43.6 1.6 5.8-1.7 11.2-7 16.1-9.9 10.5-6.2 22.5-11.2 34.5-15.3 14.1-4.7 34.3-6.2 49.6-7 31-1.6 61.1 1.7 90.4-8.8 24.2-8.6 44.7-21.1 72.5-16.6 26.9 4.4 53.8 12.9 81.5 12.5 19.7-0.4 36.1-7 54.5-12.7 15.7-4.8 32.4-3.7 49.5-3.6 22.8 0.1 39.4-0.7 59.9-10.4 13.7-6.5 24.6-13.8 39.7-18.5 11.3-3.5 22.4-5.7 33-10.4 35.6-15.8 80.5-22 120.9-19.6 17.3 1 32.3 12.1 49.2 16.8 6.9 2 9.9 2.8 15.2 6.2 2.9 1.9 4.9 4.6 8.5 6.5 8.9 4.8 19 6.9 29.1 9.7 13.1 3.5 26.5 6.1 39.5 9.6 14.8 4.1 24.5 12.5 38.1 18.3 23.8 10.3 48.1 17.8 73.6 24.5 22 5.8 43.6 14.8 65.9 19.6 25.6 5.5 53 5.2 78-1.6 22.1-6 44.6-11.9 68.1-11.7 18.9 0.2 32 0.5 49.4-6.7 15.4-6.4 31.1-12.4 45.8-19.9 10.1-5.2 10.1-5.7 20.9-6 22.6-0.7 44.8 2.4 65.8-6.8 23.2-10.2 43.6-28.4 60.4-44.7 14.3-13.9 22.1-22.8 44.9-25.9 5.4-0.8 10.9-0.3 16.3-1 20.2-2.3 40.8-10.8 60-16.3 6.1-1.8 11.9-3.9 17.7-6.1-3.9-1.7-6.8-3.1-7.3-3.4-1.1-0.9-10.5-4.1-14.3-2.9-3.8 1.2-11.7-2.6-12.8-4.1-1.1-1.4-8.7-4.6-12.8-4-4.2 0.6-7.2-1.5-13.6-2.6-6.4-1.2-10.5-6.7-12.1-9-1.4-2.4-18-2.9-24.8-3.5-6.8-0.6-18.1-16.3-27.1-16.9-9.1-0.5-57.3-22.6-72.4-22.6-15.1 0-56.9-19.1-65.2-23.2-8.3-4.1-24.1-16-28.3-17.7-4.1-1.7-1.5-2.6-6-5.2-4.5-2.6-10.9-1.8-17.3-3.5-6.4-1.7-13.6-3.2-17-3.2-3.4 0-7.9-3.2-12.4-3.2-4.6 0-9.4-4.6-15.9-5.5-6.4-0.9-12.8-6.1-18-9-5.3-2.9-23.6-0.3-25.7 0-2 0.3-5.6 5.7-8.1 7.3-2.4 1.5-7.3 1-10.3 1.1-3.1 0.2-4.7 3.1-5.5 3.2-0.8 0.2-5.6 3.3-7.9 4.9-2.3 1.6-7.6 4.4-10.8 4.7q-0.6 0.1-1.4 0.3-0.3-0.1-0.6-0.2c-9.6-4-16.4-3.1-30.5-5.3-14.1-2.1-49.2-20.9-55.4-25.6-6.2-4.8-10.8 3.4-14.7 0-4-3.5-14.7-10.5-20.9-10.5-6.2 0-11.3-12.6-20.4-14.8-9-2.2-21.4-1.3-27.7-5.6-6.2-4.4-47.4-35.3-54.2-37.9-6.8-2.6-9.6-7.4-14.7-7.4-5.1 0-15.3 2.6-18.7 0-3.4-2.6-8.6-5.5-11.8-5.8-3.2-0.3-8.5-3.1-10.8-4.7-2.3-1.6-7.1-4.8-7.9-4.9-0.8-0.1-2.4-3-5.5-3.2-3-0.1-7.9 0.4-10.3-1.2-2.5-1.6-6.1-6.9-8.1-7.2-2.1-0.3-20.4-2.9-25.7 0-5.2 2.9-11.6 8.1-18 9-6.5 0.9-11.4 5.5-15.9 5.5-4.5 0-9 3.2-12.4 3.2-3.4 0-10.6 1.4-17 3.2-6.4 1.7-12.8 0.9-17.3 3.5-4.5 2.6-1.9 3.5-6 5.2-4.2 1.7-20 13.6-28.3 17.7-8.3 4.1-50.1 23.2-65.2 23.2-15.1 0-63.3 22.1-72.4 22.6-9 0.6-20.3 16.3-27.1 16.9-6.8 0.6-23.4 1.1-24.9 3.5-1.5 2.3-5.6 7.8-12 9-6.4 1.1-9.4 3.1-13.6 2.6-4.1-0.6-11.7 2.6-12.8 4-1.1 1.5-9 5.3-12.8 4.1-3.8-1.2-13.2 2-14.3 2.9-1.2 0.9-20.8 9.6-26 9.6-5.3 0-25.7 8.4-28.7 8.7-3 0.3-24.9 9.5-27.9 10.1-3 0.6-6.4 4.4-14.7 6.1 0 0-25.8-0.8-36.5-1.3-10.8-0.4-30-3-38.5-3.5-8.4-0.4-32.7 7.9-37.3 9.2-4.5 1.3-49.1 14.3-55.9 16.1-6.8 1.7-22.1 6.1-27.7 6.5-5.7 0.5-30 8.3-41.3 9.2-11.3 0.8-39.6 6.5-46.3 8.7 0 0-36.8 11.1-49.2 15.8-12.5 4.6-96.1 45.5-130 55.1-34 9.6-66.7 18.3-73.5 22.6-6.8 4.4-67.9 34-74.6 36.6-6.8 2.6-69.8 25.6-79.6 29.6-5.5 2.3-23.8 11.6-40.1 19.7v13.6c25.6 0.6 50.8 3.9 76.5 3.5 14.1-0.3 19.9-2.4 30.3-9.8z"/>
		</g>
		<g id="&lt;Clip Group&gt;" clip-path="url(#cp1)">
		</g>
	</g>
</svg>