<svg version="1.2" xmlns="http://www.w3.org/2000/svg" viewBox="0 0 2272 1872" width="2272" height="1872">
	<title>DD Forest Background 60012-ai</title>
	<style>
		.s0 { fill: #2b4549 } 
	</style>
	<g id="Capa 1">
		<g id="&lt;Group&gt;">
			<path id="&lt;Path&gt;" class="s0" d="m1471.2 1793.6c51.1-0.3 102.1 0.6 153.2 0.7 102.2 0.1 204.6 2 306.9-1.3 56.4-1.7 112.5-4.4 168.9-4.2 48.6 0.2 97.3-1 145.9 0.1q12.9 0.3 25.9 1.1v-678.6c-30.6-14.3-59.4-39.3-90.2-51.3-9.3-3.6-18.3-5.4-28.1-4.1-8.8 1.2-17 4.5-26 5.5-10.9 1.2-19 7.1-29.6 9.7-10.4 2.5-18.9 2.3-28.9 6.7-10.6 4.7-21.4 9.2-32.4 11.9-13 3.1-25.1 3.1-37.5 9.9-5.7 3.1-11.1 6.6-16.6 9.9-5.8 3.6-11.6 7.1-17.7 10-19.2 8.9-39.8 22.8-60 26.6-5.4 1-10.9 0.3-16.3 1.5-22.8 5.1-30.6 19.7-44.9 42.3-16.8 26.5-37.2 56.1-60.4 72.7-21 15-43.2 10.1-65.8 11.1-10.8 0.4-10.8 1.3-20.9 9.7-14.7 12.2-30.4 22.1-45.8 32.6-17.4 11.7-30.5 11.1-49.4 10.8-23.5-0.3-46 9.2-68.1 19-25 11.1-52.4 11.6-78 2.6-22.3-7.8-43.9-22.4-65.9-31.8-25.5-11-49.8-23.2-73.6-39.9-13.6-9.5-23.3-23.1-38.1-29.8-13-5.8-26.4-10.1-39.5-15.8-10.1-4.4-20.2-7.8-29.1-15.6-3.6-3.2-5.6-7.5-8.5-10.6-5.3-5.6-8.3-7-15.2-10.1-16.9-7.7-31.9-25.8-49.2-27.4-40.4-3.9-85.3 6.2-120.9 31.9-10.6 7.7-21.7 11.2-33 17-15.1 7.7-26 19.5-39.7 30.1-20.5 15.8-37.1 17.1-59.9 16.8-17.1-0.1-33.8-1.8-49.5 6-18.4 9.3-34.8 20-54.5 20.6-27.7 0.8-54.6-13.2-81.5-20.3-27.8-7.4-48.3 12.9-72.5 27-29.3 17.1-59.4 11.8-90.4 14.4-15.3 1.3-35.5 3.7-49.6 11.4-12 6.6-24 14.7-34.5 24.8-4.9 4.7-10.3 13.4-16.1 16.2-12.6 6-30.9-0.7-43.6-2.6-20.2-3.2-38.6-9.1-57.6-18.3-7.3-3.6-9.9-4.5-17-4.9-14.6-0.8-32.1 4.5-46.3-1-10.3-4-13.1-11.8-20-20.4-6.2-7.8-19.6-6.9-27.5-4.1-5.8 1.9-10.7 6.8-16.7 8.6-11.8 3.7-26.1 3.4-38.2 5.2-12.2 1.8-22.1-0.7-32.9 6-10 6.2-19.2 12.2-27.6 22-10.4 11.9-16.2 15.4-30.3 15.8-25.7 0.6-50.9-4.7-76.5-5.6v446.4q11.3-0.1 22.5-0.2 3.8 0 7.6 0c106.7-0.1 213.4-5.6 320.1-12.2 39.5-2.5 79.2-4.6 118.9-5 25.6-0.3 51.1 0.1 76.6 1.7 50.3 3 100.5 9.6 150.6 14.2 124.5 11.4 248.7 11.8 373.4 12 37.9 0 75.4 0.2 113.1-2.7 8.5-0.6 16.9-1.3 25.4-2.3 87.8-10.2 174.8-21.9 263-22.4z"/>
		</g>
	</g>
</svg>