<svg version="1.2" xmlns="http://www.w3.org/2000/svg" viewBox="0 0 2272 1872" width="2272" height="1872">
	<title>DD Forest Background 60012-ai</title>
	<style>
		.s0 { fill: #449d9c } 
	</style>
	<g id="Capa 1">
		<g id="&lt;Group&gt;">
			<path id="&lt;Path&gt;" class="s0" d="m106.8 1364.2c8.4-7.8 17.6-12.7 27.6-17.6 10.8-5.4 20.7-3.4 32.9-4.9 12.1-1.4 26.4-1.2 38.2-4.1 6-1.5 10.9-5.4 16.7-7 7.9-2.2 21.3-3 27.5 3.3 6.9 7 9.7 13.3 20 16.5 14.2 4.3 31.7 0.1 46.3 0.7 7.1 0.4 9.7 1.1 17 4 19 7.4 37.4 12.1 57.6 14.7 12.7 1.6 31 7 43.6 2.1 5.8-2.2 11.2-9.2 16.1-13 10.5-8.2 22.5-14.7 34.5-20 14.1-6.2 34.3-8.1 49.6-9.1 31-2.2 61.1 2.1 90.4-11.6 24.2-11.4 44.7-27.7 72.5-21.8 26.9 5.7 53.8 17 81.5 16.3 19.7-0.4 36.1-9.1 54.5-16.5 15.7-6.3 32.4-5 49.5-4.8 22.8 0.2 39.4-0.9 59.9-13.6 13.7-8.5 24.6-18.1 39.7-24.2 11.3-4.7 22.4-7.5 33-13.7 35.6-20.7 80.5-28.8 120.9-25.7 17.3 1.3 32.3 15.9 49.2 22.1 6.9 2.5 9.9 3.6 15.2 8.1 2.9 2.5 4.9 6 8.5 8.5 8.9 6.3 19 9.1 29.1 12.6 13.1 4.6 26.5 8.1 39.5 12.7 14.8 5.4 24.5 16.3 38.1 24 23.8 13.4 48.1 23.3 73.6 32.1 22 7.6 43.6 19.4 65.9 25.7 25.6 7.2 53 6.7 78-2.2 22.1-7.9 44.6-15.5 68.1-15.2 18.9 0.2 32 0.6 49.4-8.8 15.4-8.4 31.1-16.3 45.8-26.2 10.1-6.7 10.1-7.5 20.9-7.8 22.6-0.9 44.8 3.1 65.8-9 23.2-13.3 43.6-37.1 60.4-58.5 14.3-18.2 22.1-29.9 44.9-34 5.4-1 10.9-0.4 16.3-1.2 20.2-3.1 40.8-14.3 60-21.5 6.1-2.3 11.9-5.1 17.7-7.9-3.9-2.2-6.8-4.1-7.3-4.5-1.1-1.1-10.5-5.3-14.3-3.8-3.8 1.5-11.7-3.4-12.8-5.3-1.1-1.9-8.7-6.1-12.8-5.4-4.2 0.8-7.2-1.8-13.6-3.4-6.4-1.5-10.5-8.7-12.1-11.8-1.4-3-18-3.8-24.8-4.5-6.8-0.8-18.1-21.3-27.1-22.1-9.1-0.8-57.3-29.7-72.4-29.7-15.1 0-56.9-25.1-65.2-30.4-8.3-5.3-24.1-20.9-28.3-23.2-4.1-2.3-1.5-3.4-6-6.9-4.5-3.4-10.9-2.2-17.3-4.5-6.4-2.3-13.6-4.2-17-4.2-3.4 0-7.9-4.2-12.4-4.2-4.6 0-9.4-6.1-15.9-7.2-6.4-1.2-12.8-8-18-11.8-5.3-3.8-23.6-0.4-25.7 0-2 0.4-5.6 7.4-8.1 9.5-2.4 2.1-7.3 1.3-10.3 1.5-3.1 0.2-4.7 4-5.5 4.2-0.8 0.2-5.6 4.4-7.9 6.5-2.3 2.1-7.6 5.7-10.8 6.1q-0.6 0.1-1.4 0.3-0.3-0.1-0.6-0.2c-9.6-5.2-16.4-4-30.5-6.9-14.1-2.8-49.2-27.4-55.4-33.7-6.2-6.2-10.8 4.6-14.7 0-4-4.5-14.7-13.6-20.9-13.6-6.2 0-11.3-16.6-20.4-19.4-9-2.9-21.4-1.8-27.7-7.5-6.2-5.7-47.4-46.2-54.2-49.6-6.8-3.4-9.6-9.7-14.7-9.7-5.1 0-15.3 3.4-18.7 0-3.4-3.4-8.6-7.2-11.8-7.6-3.2-0.4-8.5-4-10.8-6.1-2.3-2.1-7.1-6.3-7.9-6.5-0.8-0.2-2.4-4-5.5-4.2-3-0.1-7.9 0.6-10.3-1.5-2.5-2.1-6.1-9.1-8.1-9.5-2.1-0.4-20.4-3.8-25.7 0-5.2 3.8-11.6 10.7-18 11.8-6.5 1.1-11.4 7.2-15.9 7.2-4.5 0-9 4.2-12.4 4.2-3.4 0-10.6 1.9-17 4.2-6.4 2.3-12.8 1.1-17.3 4.6-4.5 3.4-1.9 4.5-6 6.8-4.2 2.3-20 17.9-28.3 23.2-8.3 5.3-50.1 30.5-65.2 30.5-15.1 0-63.3 28.9-72.4 29.6-9 0.8-20.3 21.3-27.1 22.1-6.8 0.7-23.4 1.5-24.9 4.6-1.5 3-5.6 10.2-12 11.8-6.4 1.5-9.4 4.1-13.6 3.4-4.1-0.8-11.7 3.4-12.8 5.3-1.1 1.9-9 6.8-12.8 5.3-3.8-1.5-13.2 2.7-14.3 3.8-1.2 1.2-20.8 12.6-26 12.6-5.3 0-25.7 11-28.7 11.4-3 0.4-24.9 12.5-27.9 13.3-3 0.8-6.4 5.7-14.7 8 0 0-25.8-1.1-36.5-1.7-10.8-0.6-30-4-38.5-4.6-8.4-0.6-32.7 10.3-37.3 12-4.5 1.7-49.1 18.8-55.9 21.1-6.8 2.3-22.1 8-27.7 8.6-5.7 0.6-30 10.8-41.3 12-11.3 1.1-39.6 8.5-46.3 11.4 0 0-36.8 14.6-49.2 20.7-12.5 6.1-96.1 59.7-130 72.3-34 12.5-66.7 24-73.5 29.7-6.8 5.7-67.9 44.5-74.6 47.9-6.8 3.4-69.8 33.5-79.6 38.8-5.5 3-23.8 15.2-40.1 25.8v17.8c25.6 0.8 50.8 5.1 76.5 4.6 14.1-0.3 19.9-3.1 30.3-12.8z"/>
		</g>
	</g>
</svg>